<svg width="64" height="64" viewBox="0 0 64 64" fill="none" xmlns="http://www.w3.org/2000/svg">
<mask id="mask0_1007_51506" style="mask-type:alpha" maskUnits="userSpaceOnUse" x="8" y="8" width="48" height="48">
<path fill-rule="evenodd" clip-rule="evenodd" d="M54.7733 13.9467L51.0667 9.46667C50.3467 8.56 49.2533 8 48 8H16C14.7467 8 13.6533 8.56 12.9067 9.46667L9.22667 13.9467C8.45333 14.8533 8 16.0533 8 17.3333V50.6667C8 53.6 10.4 56 13.3333 56H50.6667C53.6 56 56 53.6 56 50.6667V17.3333C56 16.0533 55.5467 14.8533 54.7733 13.9467ZM31.0667 45.7333L17.3333 32H26.6667V26.6667H37.3333V32H46.6667L32.9333 45.7333C32.4267 46.24 31.5733 46.24 31.0667 45.7333ZM15.8133 10.6667L13.6533 13.3333H50.32L47.8133 10.6667H15.8133Z" fill="black"/>
</mask>
<g mask="url(#mask0_1007_51506)">
<rect width="64" height="64" fill="white"/>
</g>
</svg>
