<svg width="25" height="24" viewBox="0 0 25 24" fill="none" xmlns="http://www.w3.org/2000/svg">
<mask id="mask0_1463_54512" style="mask-type:alpha" maskUnits="userSpaceOnUse" x="5" y="5" width="15" height="14">
<path d="M18.7987 5.70971C18.6119 5.52246 18.3583 5.41723 18.0938 5.41723C17.8292 5.41723 17.5756 5.52246 17.3888 5.70971L12.4988 10.5897L7.60875 5.69971C7.42192 5.51246 7.16827 5.40723 6.90375 5.40723C6.63923 5.40723 6.38558 5.51246 6.19875 5.69971C5.80875 6.08971 5.80875 6.71971 6.19875 7.10971L11.0887 11.9997L6.19875 16.8897C5.80875 17.2797 5.80875 17.9097 6.19875 18.2997C6.58875 18.6897 7.21875 18.6897 7.60875 18.2997L12.4988 13.4097L17.3888 18.2997C17.7788 18.6897 18.4087 18.6897 18.7987 18.2997C19.1888 17.9097 19.1888 17.2797 18.7987 16.8897L13.9087 11.9997L18.7987 7.10971C19.1788 6.72971 19.1788 6.08971 18.7987 5.70971Z" fill="black"/>
</mask>
<g mask="url(#mask0_1463_54512)">
<rect x="0.5" width="24" height="24" fill="#111111"/>
</g>
</svg>
