<svg width="64" height="64" viewBox="0 0 64 64" fill="none" xmlns="http://www.w3.org/2000/svg">
<mask id="mask0_1009_51924" style="mask-type:alpha" maskUnits="userSpaceOnUse" x="0" y="10" width="64" height="44">
<path fill-rule="evenodd" clip-rule="evenodd" d="M32 10.6665C41.7067 10.6665 49.7867 17.5732 51.6 26.7732C58.5333 27.2532 64 32.9598 64 39.9998C64 47.3598 58.0267 53.3332 50.6667 53.3332H16C7.17333 53.3332 0 46.1598 0 37.3332C0 29.0932 6.24 22.2932 14.2667 21.4398C17.6 15.0398 24.2933 10.6665 32 10.6665ZM24.8 43.4398C25.84 44.4798 27.52 44.4798 28.56 43.4398L42.3733 29.6265C43.4133 28.5865 43.4133 26.9065 42.3733 25.8665C41.3333 24.8265 39.6533 24.8265 38.6133 25.8665L26.6667 37.8132L22.96 34.1065C21.92 33.0665 20.24 33.0665 19.2 34.1065C18.7007 34.6047 18.42 35.2811 18.42 35.9865C18.42 36.6919 18.7007 37.3683 19.2 37.8665L24.8 43.4398Z" fill="black"/>
</mask>
<g mask="url(#mask0_1009_51924)">
<rect width="64" height="64" fill="white"/>
</g>
</svg>
