<svg width="64" height="64" viewBox="0 0 64 64" fill="none" xmlns="http://www.w3.org/2000/svg">
<mask id="mask0_1009_51918" style="mask-type:alpha" maskUnits="userSpaceOnUse" x="5" y="15" width="54" height="34">
<path fill-rule="evenodd" clip-rule="evenodd" d="M39.974 26.6667V31.4401C39.974 32.6401 38.534 33.2267 37.7073 32.4001L30.294 24.9601C29.7873 24.4267 29.7873 23.6001 30.294 23.0667L37.7073 15.6267C38.534 14.7734 39.974 15.3601 39.974 16.5601V21.3334H56.0007C57.4673 21.3334 58.6673 22.5334 58.6673 24.0001C58.6673 25.4667 57.4673 26.6667 56.0007 26.6667H39.974ZM8.00065 37.3334H24.0273V32.5334C24.0273 31.3601 25.4673 30.7467 26.294 31.6001L33.7073 39.0401C34.214 39.5734 34.214 40.4001 33.7073 40.9334L26.294 48.3734C25.4673 49.2267 24.0273 48.6401 24.0273 47.4401V42.6667H8.00065C6.53398 42.6667 5.33398 41.4667 5.33398 40.0001C5.33398 38.5334 6.53398 37.3334 8.00065 37.3334Z" fill="black"/>
</mask>
<g mask="url(#mask0_1009_51918)">
<rect width="64" height="64" fill="white"/>
</g>
</svg>
