<svg width="16" height="17" viewBox="0 0 16 17" fill="none" xmlns="http://www.w3.org/2000/svg">
<mask id="mask0_1153_1816" style="mask-type:alpha" maskUnits="userSpaceOnUse" x="1" y="1" width="14" height="15">
<path fill-rule="evenodd" clip-rule="evenodd" d="M8.00065 1.83301C4.32065 1.83301 1.33398 4.81967 1.33398 8.49967C1.33398 12.1797 4.32065 15.1663 8.00065 15.1663C11.6807 15.1663 14.6673 12.1797 14.6673 8.49967C14.6673 4.81967 11.6807 1.83301 8.00065 1.83301ZM8.00065 9.16634C7.63398 9.16634 7.33398 8.86634 7.33398 8.49967V5.83301C7.33398 5.46634 7.63398 5.16634 8.00065 5.16634C8.36732 5.16634 8.66732 5.46634 8.66732 5.83301V8.49967C8.66732 8.86634 8.36732 9.16634 8.00065 9.16634ZM7.33398 10.4997V11.833H8.66732V10.4997H7.33398Z" fill="black"/>
</mask>
<g mask="url(#mask0_1153_1816)">
<rect y="0.5" width="16" height="16" fill="#F44646"/>
</g>
</svg>
