<svg width="24" height="24" viewBox="0 0 24 24" fill="none" xmlns="http://www.w3.org/2000/svg">
<mask id="mask0_949_676" style="mask-type:alpha" maskUnits="userSpaceOnUse" x="0" y="2" width="23" height="20">
<path fill-rule="evenodd" clip-rule="evenodd" d="M2.70805 4.54039C2.31805 4.15039 2.31805 3.52039 2.70805 3.13039C3.09805 2.74039 3.73805 2.74039 4.12805 3.13039L20.438 19.4604C20.828 19.8504 20.828 20.4804 20.438 20.8704C20.048 21.2604 19.418 21.2604 19.028 20.8704L16.308 18.1504C14.968 18.6704 13.518 18.9704 11.998 18.9704C6.99805 18.9704 2.72805 15.8604 0.998047 11.4704C1.76805 9.50039 3.05805 7.80039 4.67805 6.51039L2.70805 4.54039ZM16.998 11.4704C16.998 8.71039 14.758 6.47039 11.998 6.47039C11.488 6.47039 10.998 6.57039 10.528 6.71039L8.35805 4.54039C9.50805 4.17039 10.728 3.97039 11.998 3.97039C16.998 3.97039 21.268 7.08039 22.998 11.4604C22.308 13.2204 21.208 14.7604 19.818 15.9904L16.758 12.9304C16.898 12.4704 16.998 11.9804 16.998 11.4704ZM11.998 16.4704C9.23805 16.4704 6.99805 14.2304 6.99805 11.4704C6.99805 10.7004 7.17805 9.97039 7.48805 9.33039L9.05805 10.9004C9.02805 11.0804 8.99805 11.2704 8.99805 11.4704C8.99805 13.1304 10.338 14.4704 11.998 14.4704C12.198 14.4704 12.378 14.4404 12.568 14.4004L14.138 15.9704C13.488 16.2904 12.768 16.4704 11.998 16.4704ZM14.968 11.1404C14.818 9.74039 13.718 8.65039 12.328 8.50039L14.968 11.1404Z" fill="black"/>
</mask>
<g mask="url(#mask0_949_676)">
<rect x="-0.00195312" width="24" height="24" fill="#858C94"/>
</g>
</svg>
