<svg width="200" height="64" viewBox="0 0 200 64" fill="none" xmlns="http://www.w3.org/2000/svg">
<g clip-path="url(#clip0_543_58532)">
<path fill-rule="evenodd" clip-rule="evenodd" d="M56.1808 0C60.4964 0 64 3.50375 64 7.81925V56.1808C64 60.4963 60.4963 64 56.1808 64H42.8722V39.8856H51.1973L52.7812 29.558H42.8722V22.8559C42.8722 20.0305 44.2564 17.2764 48.6948 17.2764H53.2V8.48388C53.2 8.48388 49.1113 7.78613 45.2023 7.78613C37.0413 7.78613 31.7073 12.7322 31.7073 21.6866V29.558H22.6356V39.8856H31.7073V64H7.81925C3.50375 64 0 60.4963 0 56.1808V7.81925C0 3.50375 3.50362 0 7.81925 0L56.1808 0Z" fill="black"/>
</g>
<path d="M93.304 23.272V25.048H86.032V30.688H91.936V32.464H86.032V40H83.848V23.272H93.304ZM95.1258 33.376C95.1258 32.032 95.3978 30.856 95.9418 29.848C96.4858 28.824 97.2298 28.032 98.1738 27.472C99.1338 26.912 100.198 26.632 101.366 26.632C102.518 26.632 103.518 26.88 104.366 27.376C105.214 27.872 105.846 28.496 106.262 29.248V26.848H108.47V40H106.262V37.552C105.83 38.32 105.182 38.96 104.318 39.472C103.47 39.968 102.478 40.216 101.342 40.216C100.174 40.216 99.1178 39.928 98.1738 39.352C97.2298 38.776 96.4858 37.968 95.9418 36.928C95.3978 35.888 95.1258 34.704 95.1258 33.376ZM106.262 33.4C106.262 32.408 106.062 31.544 105.662 30.808C105.262 30.072 104.718 29.512 104.03 29.128C103.358 28.728 102.614 28.528 101.798 28.528C100.982 28.528 100.238 28.72 99.5658 29.104C98.8938 29.488 98.3578 30.048 97.9578 30.784C97.5578 31.52 97.3578 32.384 97.3578 33.376C97.3578 34.384 97.5578 35.264 97.9578 36.016C98.3578 36.752 98.8938 37.32 99.5658 37.72C100.238 38.104 100.982 38.296 101.798 38.296C102.614 38.296 103.358 38.104 104.03 37.72C104.718 37.32 105.262 36.752 105.662 36.016C106.062 35.264 106.262 34.392 106.262 33.4ZM111.345 33.4C111.345 32.04 111.617 30.856 112.161 29.848C112.705 28.824 113.457 28.032 114.417 27.472C115.393 26.912 116.505 26.632 117.753 26.632C119.369 26.632 120.697 27.024 121.737 27.808C122.793 28.592 123.489 29.68 123.825 31.072H121.473C121.249 30.272 120.809 29.64 120.153 29.176C119.513 28.712 118.713 28.48 117.753 28.48C116.505 28.48 115.497 28.912 114.729 29.776C113.961 30.624 113.577 31.832 113.577 33.4C113.577 34.984 113.961 36.208 114.729 37.072C115.497 37.936 116.505 38.368 117.753 38.368C118.713 38.368 119.513 38.144 120.153 37.696C120.793 37.248 121.233 36.608 121.473 35.776H123.825C123.473 37.12 122.769 38.2 121.713 39.016C120.657 39.816 119.337 40.216 117.753 40.216C116.505 40.216 115.393 39.936 114.417 39.376C113.457 38.816 112.705 38.024 112.161 37C111.617 35.976 111.345 34.776 111.345 33.4ZM138.739 32.92C138.739 33.336 138.715 33.776 138.667 34.24H128.155C128.235 35.536 128.675 36.552 129.475 37.288C130.291 38.008 131.275 38.368 132.427 38.368C133.371 38.368 134.155 38.152 134.779 37.72C135.419 37.272 135.867 36.68 136.123 35.944H138.475C138.123 37.208 137.419 38.24 136.363 39.04C135.307 39.824 133.995 40.216 132.427 40.216C131.179 40.216 130.059 39.936 129.067 39.376C128.091 38.816 127.323 38.024 126.763 37C126.203 35.96 125.923 34.76 125.923 33.4C125.923 32.04 126.195 30.848 126.739 29.824C127.283 28.8 128.043 28.016 129.019 27.472C130.011 26.912 131.147 26.632 132.427 26.632C133.675 26.632 134.779 26.904 135.739 27.448C136.699 27.992 137.435 28.744 137.947 29.704C138.475 30.648 138.739 31.72 138.739 32.92ZM136.483 32.464C136.483 31.632 136.299 30.92 135.931 30.328C135.563 29.72 135.059 29.264 134.419 28.96C133.795 28.64 133.099 28.48 132.331 28.48C131.227 28.48 130.283 28.832 129.499 29.536C128.731 30.24 128.291 31.216 128.179 32.464H136.483ZM143.805 29.296C144.253 28.512 144.909 27.872 145.773 27.376C146.637 26.88 147.621 26.632 148.725 26.632C149.909 26.632 150.973 26.912 151.917 27.472C152.861 28.032 153.605 28.824 154.149 29.848C154.693 30.856 154.965 32.032 154.965 33.376C154.965 34.704 154.693 35.888 154.149 36.928C153.605 37.968 152.853 38.776 151.893 39.352C150.949 39.928 149.893 40.216 148.725 40.216C147.589 40.216 146.589 39.968 145.725 39.472C144.877 38.976 144.237 38.344 143.805 37.576V40H141.621V22.24H143.805V29.296ZM152.733 33.376C152.733 32.384 152.533 31.52 152.133 30.784C151.733 30.048 151.189 29.488 150.501 29.104C149.829 28.72 149.085 28.528 148.269 28.528C147.469 28.528 146.725 28.728 146.037 29.128C145.365 29.512 144.821 30.08 144.405 30.832C144.005 31.568 143.805 32.424 143.805 33.4C143.805 34.392 144.005 35.264 144.405 36.016C144.821 36.752 145.365 37.32 146.037 37.72C146.725 38.104 147.469 38.296 148.269 38.296C149.085 38.296 149.829 38.104 150.501 37.72C151.189 37.32 151.733 36.752 152.133 36.016C152.533 35.264 152.733 34.384 152.733 33.376ZM163.576 40.216C162.344 40.216 161.224 39.936 160.216 39.376C159.224 38.816 158.44 38.024 157.864 37C157.304 35.96 157.024 34.76 157.024 33.4C157.024 32.056 157.312 30.872 157.888 29.848C158.48 28.808 159.28 28.016 160.288 27.472C161.296 26.912 162.424 26.632 163.672 26.632C164.92 26.632 166.048 26.912 167.056 27.472C168.064 28.016 168.856 28.8 169.432 29.824C170.024 30.848 170.32 32.04 170.32 33.4C170.32 34.76 170.016 35.96 169.408 37C168.816 38.024 168.008 38.816 166.984 39.376C165.96 39.936 164.824 40.216 163.576 40.216ZM163.576 38.296C164.36 38.296 165.096 38.112 165.784 37.744C166.472 37.376 167.024 36.824 167.44 36.088C167.872 35.352 168.088 34.456 168.088 33.4C168.088 32.344 167.88 31.448 167.464 30.712C167.048 29.976 166.504 29.432 165.832 29.08C165.16 28.712 164.432 28.528 163.648 28.528C162.848 28.528 162.112 28.712 161.44 29.08C160.784 29.432 160.256 29.976 159.856 30.712C159.456 31.448 159.256 32.344 159.256 33.4C159.256 34.472 159.448 35.376 159.832 36.112C160.232 36.848 160.76 37.4 161.416 37.768C162.072 38.12 162.792 38.296 163.576 38.296ZM178.928 40.216C177.696 40.216 176.576 39.936 175.568 39.376C174.576 38.816 173.792 38.024 173.216 37C172.656 35.96 172.376 34.76 172.376 33.4C172.376 32.056 172.664 30.872 173.24 29.848C173.832 28.808 174.632 28.016 175.64 27.472C176.648 26.912 177.776 26.632 179.024 26.632C180.272 26.632 181.4 26.912 182.408 27.472C183.416 28.016 184.208 28.8 184.784 29.824C185.376 30.848 185.672 32.04 185.672 33.4C185.672 34.76 185.368 35.96 184.76 37C184.168 38.024 183.36 38.816 182.336 39.376C181.312 39.936 180.176 40.216 178.928 40.216ZM178.928 38.296C179.712 38.296 180.448 38.112 181.136 37.744C181.824 37.376 182.376 36.824 182.792 36.088C183.224 35.352 183.44 34.456 183.44 33.4C183.44 32.344 183.232 31.448 182.816 30.712C182.4 29.976 181.856 29.432 181.184 29.08C180.512 28.712 179.784 28.528 179 28.528C178.2 28.528 177.464 28.712 176.792 29.08C176.136 29.432 175.608 29.976 175.208 30.712C174.808 31.448 174.608 32.344 174.608 33.4C174.608 34.472 174.8 35.376 175.184 36.112C175.584 36.848 176.112 37.4 176.768 37.768C177.424 38.12 178.144 38.296 178.928 38.296ZM195.887 40L190.727 34.192V40H188.543V22.24H190.727V32.68L195.791 26.848H198.839L192.647 33.4L198.863 40H195.887Z" fill="#111111"/>
<defs>
<clipPath id="clip0_543_58532">
<rect width="64" height="64" fill="white"/>
</clipPath>
</defs>
</svg>
