<svg width="65" height="65" viewBox="0 0 65 65" fill="none" xmlns="http://www.w3.org/2000/svg">
<g id="5282541_fb_social media_facebook_facebook logo_social network_icon" clip-path="url(#clip0_723_61609)">
<path id="Vector" fill-rule="evenodd" clip-rule="evenodd" d="M56.6808 0.5C60.9964 0.5 64.5 4.00375 64.5 8.31925V56.6808C64.5 60.9963 60.9963 64.5 56.6808 64.5H43.3722V40.3856H51.6973L53.2812 30.058H43.3722V23.3559C43.3722 20.5305 44.7564 17.7764 49.1948 17.7764H53.7V8.98388C53.7 8.98388 49.6113 8.28613 45.7023 8.28613C37.5413 8.28613 32.2073 13.2322 32.2073 22.1866V30.058H23.1356V40.3856H32.2073V64.5H8.31925C4.00375 64.5 0.5 60.9963 0.5 56.6808V8.31925C0.5 4.00375 4.00362 0.5 8.31925 0.5L56.6808 0.5Z" fill="black"/>
</g>
<defs>
<clipPath id="clip0_723_61609">
<rect width="64" height="64" fill="white" transform="translate(0.5 0.5)"/>
</clipPath>
</defs>
</svg>
