<svg width="101" height="41" viewBox="0 0 101 41" fill="none" xmlns="http://www.w3.org/2000/svg">
<g clip-path="url(#clip0_1410_52175)">
<path d="M51.3176 11.2608C51.6904 11.9105 52.2362 12.3403 52.9592 12.5521C53.228 12.6315 53.4989 12.6722 53.7678 12.6722C54.2117 12.6722 54.6496 12.5561 55.0814 12.3219C55.2932 12.2058 55.4826 12.0735 55.6496 11.9289L57.5417 13.9737C57.2056 14.2873 56.835 14.5582 56.4256 14.7822C55.7698 15.1325 55.0732 15.3484 54.336 15.4278C54.1323 15.4502 53.9307 15.4604 53.7352 15.4604C53.2036 15.4604 52.6781 15.383 52.1608 15.2303C51.446 15.0185 50.8003 14.6804 50.224 14.2119C49.6476 13.7456 49.1832 13.1855 48.8288 12.5337C48.4745 11.882 48.2586 11.1875 48.1771 10.4502C48.1547 10.2466 48.1445 10.0449 48.1445 9.84942C48.1445 9.31785 48.2219 8.79239 48.3747 8.27508C48.5865 7.56021 48.9246 6.91459 49.393 6.33822C49.8594 5.76184 50.4195 5.29749 51.0712 4.94311C51.7229 4.58873 52.4174 4.37284 53.1547 4.29138C53.3584 4.26897 53.56 4.25879 53.7555 4.25879C54.2871 4.25879 54.8126 4.33618 55.3299 4.48893C56.0447 4.70074 56.6904 5.03883 57.2667 5.50726C57.8431 5.97366 58.3075 6.53374 58.6618 7.18547C59.0162 7.83924 59.2321 8.53374 59.3136 9.26897C59.336 9.47264 59.3462 9.68038 59.3462 9.89219C59.3462 10.3443 59.2912 10.7924 59.1812 11.2384L51.3156 11.2608H51.3176ZM51.3075 8.46042L56.0773 8.45024C55.727 7.80054 55.2138 7.37488 54.5356 7.17121C54.2647 7.09178 53.9959 7.05105 53.727 7.05105C53.283 7.05105 52.8451 7.16714 52.4134 7.40136C51.9327 7.66408 51.5641 8.01846 51.3095 8.46245L51.3075 8.46042Z" fill="white"/>
<path d="M63.3293 15.4603C63.3293 16.2037 63.1868 16.9186 62.9037 17.6049C62.6185 18.2913 62.2153 18.8961 61.6898 19.4216C61.1644 19.9471 60.5595 20.3524 59.8731 20.6355C59.1868 20.9206 58.4719 21.0611 57.7285 21.0611V18.2607C58.5004 18.2607 59.1623 17.9878 59.7081 17.4399C60.254 16.8921 60.5289 16.2322 60.5289 15.4603V4.25867H63.3293V15.4603ZM61.9281 3.55806C61.4475 3.55806 61.034 3.38698 60.6919 3.04483C60.3497 2.70267 60.1786 2.28922 60.1786 1.80857C60.1786 1.32792 60.3497 0.914479 60.6919 0.57232C61.034 0.230161 61.4475 0.059082 61.9281 0.059082C62.4088 0.059082 62.8222 0.230161 63.1644 0.57232C63.5065 0.914479 63.6776 1.32792 63.6776 1.80857C63.6776 2.28922 63.5065 2.70267 63.1644 3.04483C62.8222 3.38698 62.4088 3.55806 61.9281 3.55806Z" fill="white"/>
<path d="M75.7133 15.4601H72.9129V14.7045C72.7011 14.8287 72.4832 14.9387 72.2571 15.0324C71.5708 15.3175 70.8559 15.4581 70.1125 15.4581C69.3692 15.4581 68.6543 15.3155 67.9679 15.0324C67.2816 14.7473 66.6767 14.344 66.1512 13.8185C65.6258 13.2931 65.2205 12.6882 64.9374 12.0018C64.6522 11.3155 64.5117 10.6006 64.5117 9.85725C64.5117 9.11386 64.6543 8.399 64.9374 7.71264C65.2225 7.02629 65.6258 6.4214 66.1512 5.89594C66.6767 5.37048 67.2816 4.96519 67.9679 4.68209C68.6543 4.39696 69.3692 4.25643 70.1125 4.25643C70.8559 4.25643 71.5708 4.399 72.2571 4.68209C72.4832 4.77782 72.7011 4.88576 72.9129 5.01V4.25439H75.7133V15.456V15.4601ZM70.1125 7.05888C69.3386 7.05888 68.6787 7.33179 68.1329 7.87965C67.5871 8.42751 67.3121 9.08739 67.3121 9.85928C67.3121 10.6312 67.585 11.2931 68.1329 11.8389C68.6808 12.3847 69.3406 12.6597 70.1125 12.6597C70.8844 12.6597 71.5463 12.3868 72.0922 11.8389C72.638 11.2911 72.9129 10.6312 72.9129 9.85928C72.9129 9.08739 72.64 8.42547 72.0922 7.87965C71.5443 7.33382 70.8844 7.05888 70.1125 7.05888Z" fill="white"/>
<path d="M85.3055 14.707C85.0937 14.8312 84.8758 14.9412 84.6497 15.0349C83.9634 15.32 83.2485 15.4605 82.5051 15.4605C81.7617 15.4605 81.0469 15.318 80.3605 15.0349C79.6741 14.7497 79.0693 14.3465 78.5438 13.821C78.0183 13.2956 77.6131 12.6907 77.33 12.0043C77.0448 11.318 76.9043 10.6031 76.9043 9.85972C76.9043 9.11634 77.0469 8.40147 77.33 7.71512C77.6151 7.02876 78.0183 6.42387 78.5438 5.89841C79.0693 5.37296 79.6741 4.96766 80.3605 4.68457C81.0469 4.39943 81.7617 4.2589 82.5051 4.2589C83.2485 4.2589 83.9634 4.40147 84.6497 4.68457C84.8758 4.78029 85.0937 4.88823 85.3055 5.01247V1.4585H88.1059V15.4605H85.3055V14.7049V14.707ZM82.5051 12.6622C83.277 12.6622 83.9389 12.3892 84.4847 11.8414C85.0306 11.2935 85.3055 10.6336 85.3055 9.86175C85.3055 9.08986 85.0326 8.42795 84.4847 7.88212C83.9369 7.3363 83.277 7.06135 82.5051 7.06135C81.7332 7.06135 81.0713 7.33426 80.5255 7.88212C79.9797 8.42998 79.7047 9.08986 79.7047 9.86175C79.7047 10.6336 79.9776 11.2956 80.5255 11.8414C81.0733 12.3872 81.7332 12.6622 82.5051 12.6622Z" fill="white"/>
<path d="M100.5 15.4601H97.7001V14.7045C97.4882 14.8287 97.2703 14.9387 97.0442 15.0324C96.3579 15.3175 95.643 15.4581 94.8996 15.4581C94.1563 15.4581 93.4414 15.3155 92.755 15.0324C92.0687 14.7473 91.4638 14.344 90.9383 13.8185C90.4129 13.2931 90.0076 12.6882 89.7245 12.0018C89.4394 11.3155 89.2988 10.6006 89.2988 9.85725C89.2988 9.11386 89.4414 8.399 89.7245 7.71264C90.0096 7.02629 90.4129 6.4214 90.9383 5.89594C91.4638 5.37048 92.0687 4.96519 92.755 4.68209C93.4414 4.39696 94.1563 4.25643 94.8996 4.25643C95.643 4.25643 96.3579 4.399 97.0442 4.68209C97.2703 4.77782 97.4882 4.88576 97.7001 5.01V4.25439H100.5V15.456V15.4601ZM94.8996 7.05888C94.1257 7.05888 93.4658 7.33179 92.92 7.87965C92.3742 8.42751 92.0992 9.08739 92.0992 9.85928C92.0992 10.6312 92.3721 11.2931 92.92 11.8389C93.4679 12.3847 94.1277 12.6597 94.8996 12.6597C95.6715 12.6597 96.3335 12.3868 96.8793 11.8389C97.4251 11.2911 97.7001 10.6312 97.7001 9.85928C97.7001 9.08739 97.4271 8.42547 96.8793 7.87965C96.3314 7.33382 95.6715 7.05888 94.8996 7.05888Z" fill="white"/>
<path d="M51.927 33.6822C52.2997 34.3319 52.8456 34.7616 53.5686 34.9735C53.8374 35.0529 54.1083 35.0936 54.3771 35.0936C54.8211 35.0936 55.259 34.9775 55.6908 34.7433C55.9026 34.6272 56.092 34.4948 56.259 34.3502L58.1511 36.395C57.815 36.7087 57.4443 36.9796 57.035 37.2036C56.3792 37.5539 55.6826 37.7698 54.9454 37.8492C54.7417 37.8716 54.5401 37.8818 54.3445 37.8818C53.813 37.8818 53.2875 37.8044 52.7702 37.6517C52.0553 37.4398 51.4097 37.1018 50.8333 36.6333C50.257 36.1669 49.7926 35.6069 49.4382 34.9551C49.0838 34.3034 48.868 33.6089 48.7865 32.8716C48.7641 32.668 48.7539 32.4663 48.7539 32.2708C48.7539 31.7392 48.8313 31.2138 48.984 30.6965C49.1959 29.9816 49.5339 29.336 50.0024 28.7596C50.4688 28.1832 51.0289 27.7189 51.6806 27.3645C52.3323 27.0101 53.0268 26.7942 53.7641 26.7128C53.9678 26.6904 54.1694 26.6802 54.3649 26.6802C54.8965 26.6802 55.4219 26.7576 55.9392 26.9103C56.6541 27.1221 57.2997 27.4602 57.8761 27.9286C58.4525 28.395 58.9168 28.9551 59.2712 29.6069C59.6256 30.2606 59.8415 30.9551 59.9229 31.6904C59.9454 31.894 59.9555 32.1018 59.9555 32.3136C59.9555 32.7657 59.9005 33.2138 59.7906 33.6598L51.925 33.6822H51.927ZM51.9168 30.8818L56.6867 30.8716C56.3364 30.2219 55.8232 29.7963 55.1449 29.5926C54.8741 29.5132 54.6052 29.4724 54.3364 29.4724C53.8924 29.4724 53.4545 29.5885 53.0227 29.8227C52.5421 30.0855 52.1735 30.4398 51.9189 30.8838L51.9168 30.8818Z" fill="white"/>
<path d="M63.9488 37.8818H61.1484V26.6802H63.9488V37.8818Z" fill="white"/>
<path d="M69.2554 27.4357C69.4672 27.3115 69.6851 27.2015 69.9112 27.1078C70.5976 26.8227 71.3124 26.6821 72.0558 26.6821C72.7992 26.6821 73.5141 26.8247 74.2004 27.1078C74.8868 27.3929 75.4917 27.7962 76.0171 28.3216C76.0965 28.4011 76.178 28.4866 76.2574 28.5742C76.3369 28.4866 76.4183 28.4031 76.4978 28.3216C77.0232 27.7962 77.6281 27.3909 78.3145 27.1078C79.0008 26.8227 79.7157 26.6821 80.4591 26.6821C81.2024 26.6821 81.9173 26.8247 82.6037 27.1078C83.29 27.3929 83.8949 27.7962 84.4204 28.3216C84.9458 28.8471 85.3511 29.452 85.6342 30.1383C85.9194 30.8247 86.0599 31.5396 86.0599 32.2829V37.8838H83.2595V32.2829C83.2595 31.511 82.9866 30.8491 82.4387 30.3033C81.8908 29.7575 81.231 29.4825 80.4591 29.4825C79.6872 29.4825 79.0253 29.7554 78.4794 30.3033C77.9336 30.8512 77.6587 31.511 77.6587 32.2829V37.8838H74.8583V32.2829C74.8583 31.511 74.5853 30.8491 74.0375 30.3033C73.4896 29.7575 72.8297 29.4825 72.0578 29.4825C71.286 29.4825 70.624 29.7554 70.0782 30.3033C69.5324 30.8512 69.2574 31.511 69.2574 32.2829V37.8838H66.457V26.6821H69.2574V27.4377L69.2554 27.4357Z" fill="white"/>
<path d="M9.95214 24.6823C9.88289 24.5092 9.81772 24.334 9.75866 24.1548C9.35132 22.9674 9.12933 21.6925 9.12933 20.3666C9.12933 18.8432 9.41853 17.387 9.9501 16.0509C11.6731 11.7067 15.9155 8.63136 20.8625 8.63136C25.8096 8.63136 30.054 11.7067 31.777 16.0509H40.7709C38.7953 6.87373 30.6344 0 20.8666 0C11.0988 0 2.93788 6.87373 0.958248 16.0509C0.658859 17.442 0.5 18.8859 0.5 20.3666C0.5 21.8472 0.658859 23.2912 0.958248 24.6823C1.00916 24.9145 1.06212 25.1405 1.12118 25.3686H10.2536C10.1456 25.1446 10.0458 24.9124 9.95417 24.6823H9.95214Z" fill="white"/>
<path d="M20.8663 32.1017C19.3449 32.1017 17.8887 31.8084 16.5527 31.2769L23.1494 24.6821L31.7808 16.0508H19.573L10.2553 25.3685L3.93555 31.6862C5.04756 33.3461 6.39787 34.8349 7.93758 36.0976C8.21457 36.3298 8.49766 36.5457 8.78687 36.7595C8.89685 36.843 9.00683 36.9225 9.11885 37.0019C12.4406 39.3502 16.4936 40.731 20.8683 40.731C27.2594 40.731 32.9661 37.786 36.7013 33.173L30.5343 27.006C28.4182 30.0793 24.8724 32.0976 20.8663 32.0976V32.1017Z" fill="#0EF2A0"/>
<path d="M62.5561 26.0429C62.0755 26.0429 61.662 25.8718 61.3199 25.5297C60.9777 25.1875 60.8066 24.7741 60.8066 24.2934C60.8066 23.8128 60.9777 23.3993 61.3199 23.0572C61.662 22.715 62.0755 22.5439 62.5561 22.5439C63.0368 22.5439 63.4502 22.715 63.7924 23.0572C64.1345 23.3993 64.3056 23.8128 64.3056 24.2934C64.3056 24.7741 64.1345 25.1875 63.7924 25.5297C63.4502 25.8718 63.0368 26.0429 62.5561 26.0429Z" fill="#0EF2A0"/>
<path d="M63.787 23.0571C64.1291 23.3993 64.3002 23.8127 64.3002 24.2934C64.3002 24.774 64.1291 25.1875 63.787 25.5296C63.4448 25.8718 63.0314 26.0429 62.5507 26.0429C62.0701 26.0429 61.6566 25.8718 61.3145 25.5296L63.787 23.0571Z" fill="white"/>
</g>
<defs>
<clipPath id="clip0_1410_52175">
<rect width="100" height="40.7332" fill="white" transform="translate(0.5)"/>
</clipPath>
</defs>
</svg>
