<svg width="19" height="19" viewBox="0 0 19 19" fill="none" xmlns="http://www.w3.org/2000/svg">
<g clip-path="url(#clip0_504_1324)">
<path d="M15.7098 17.0838H3.63696V15.5747C3.63696 14.5741 4.03445 13.6145 4.74197 12.907C5.4495 12.1995 6.40911 11.802 7.40971 11.802H11.937C12.9376 11.802 13.8972 12.1995 14.6047 12.907C15.3123 13.6145 15.7098 14.5741 15.7098 15.5747V17.0838ZM9.67336 10.2929C9.07882 10.2929 8.49011 10.1758 7.94084 9.94825C7.39156 9.72073 6.89247 9.38726 6.47208 8.96686C6.05168 8.54646 5.7182 8.04738 5.49068 7.4981C5.26316 6.94882 5.14606 6.36011 5.14606 5.76558C5.14606 5.17104 5.26316 4.58233 5.49068 4.03306C5.7182 3.48378 6.05168 2.98469 6.47208 2.5643C6.89247 2.1439 7.39156 1.81042 7.94084 1.5829C8.49011 1.35538 9.07882 1.23828 9.67336 1.23828C10.8741 1.23828 12.0256 1.71526 12.8746 2.5643C13.7237 3.41333 14.2007 4.56486 14.2007 5.76558C14.2007 6.96629 13.7237 8.11783 12.8746 8.96686C12.0256 9.81589 10.8741 10.2929 9.67336 10.2929Z" fill="white"/>
</g>
<defs>
<clipPath id="clip0_504_1324">
<rect width="18.1092" height="18.1092" fill="white" transform="translate(0.619385 0.482422)"/>
</clipPath>
</defs>
</svg>
