<svg width="244" height="220" viewBox="0 0 244 220" fill="none" xmlns="http://www.w3.org/2000/svg">
<line opacity="0.2" x1="47.182" y1="173.385" x2="47.182" y2="0.207977" stroke="black" stroke-width="0.503191" stroke-dasharray="2.01 3.02"/>
<line opacity="0.2" x1="159.082" y1="173.385" x2="159.082" y2="0.207977" stroke="black" stroke-width="0.503191" stroke-dasharray="2.01 3.02"/>
<line opacity="0.2" x1="24.9796" y1="173.385" x2="24.9796" y2="0.207977" stroke="black" stroke-width="0.503191" stroke-dasharray="2.01 3.02"/>
<line opacity="0.2" x1="114.233" y1="173.385" x2="114.233" y2="0.207977" stroke="black" stroke-width="0.503191" stroke-dasharray="2.01 3.02"/>
<line opacity="0.2" x1="2.77819" y1="173.385" x2="2.77818" y2="0.207977" stroke="black" stroke-width="0.503191" stroke-dasharray="2.01 3.02"/>
<line opacity="0.2" x1="69.8287" y1="173.385" x2="69.8287" y2="0.207977" stroke="black" stroke-width="0.503191" stroke-dasharray="2.01 3.02"/>
<line opacity="0.2" x1="92.0316" y1="173.385" x2="92.0316" y2="0.207977" stroke="black" stroke-width="0.503191" stroke-dasharray="2.01 3.02"/>
<line opacity="0.2" x1="181.285" y1="173.385" x2="181.285" y2="0.207977" stroke="black" stroke-width="0.503191" stroke-dasharray="2.01 3.02"/>
<line opacity="0.2" x1="136.435" y1="173.385" x2="136.435" y2="0.207977" stroke="black" stroke-width="0.503191" stroke-dasharray="2.01 3.02"/>
<line opacity="0.2" x1="203.487" y1="173.385" x2="203.487" y2="0.207977" stroke="black" stroke-width="0.503191" stroke-dasharray="2.01 3.02"/>
<path d="M2.9601 155.072C9.35821 154.87 16.1495 150.716 22.4008 146.893C23.4042 146.279 24.3962 145.665 25.3795 145.057C32.1953 140.84 38.5978 136.879 45.5529 134.945C48.9309 133.912 52.4665 133.361 56.0863 132.797C60.2195 132.154 64.4623 131.493 68.7051 130.077C71.166 129.325 73.7106 128.265 76.2819 127.194C81.2704 125.117 86.3595 122.997 91.1337 122.997C96.1972 122.997 100.968 124.968 105.818 126.971C108.592 128.116 111.391 129.272 114.286 130.077C121.521 132.732 129.479 132.732 136.714 126.537C140.062 124.117 143.41 120.602 146.704 117.142C151.24 112.377 155.675 107.72 159.867 106.182C165.183 104.704 170.176 107.372 175.277 110.098C177.813 111.453 180.376 112.823 183.019 113.704C186.636 114.811 190.435 114.811 194.233 114.811C198.031 114.811 201.83 114.811 205.447 115.917C208.798 116.849 212.149 118.643 215.447 120.409C219.98 122.837 224.411 125.21 228.6 125.21C232.579 125.21 236.377 123.44 240.176 121.67C240.608 121.468 241.04 121.267 241.473 121.068" stroke="#D1D7EC" stroke-width="5.03191" stroke-linecap="round"/>
<circle opacity="0.2" cx="159.452" cy="108.277" r="21.134" fill="#3E68FF"/>
<path d="M123.242 52.1586C121.919 52.1586 120.742 51.9437 119.711 51.5141C118.685 51.0787 117.88 50.4858 117.296 49.7353C116.712 48.9849 116.419 48.1341 116.419 47.1832C116.419 46.4499 116.586 45.7768 116.918 45.1638C117.256 44.5451 117.714 44.0324 118.293 43.6256C118.871 43.2132 119.519 42.9497 120.235 42.8351V42.7148C119.295 42.5257 118.533 42.0703 117.949 41.3485C117.365 40.6209 117.072 39.7759 117.072 38.8135C117.072 37.9026 117.339 37.092 117.872 36.3817C118.404 35.6656 119.135 35.1042 120.063 34.6974C120.997 34.285 122.056 34.0787 123.242 34.0787C124.428 34.0787 125.485 34.285 126.413 34.6974C127.347 35.1099 128.08 35.6742 128.613 36.3903C129.146 37.1006 129.415 37.9084 129.421 38.8135C129.415 39.7817 129.117 40.6267 128.527 41.3485C127.937 42.0703 127.181 42.5257 126.258 42.7148V42.8351C126.963 42.9497 127.602 43.2132 128.175 43.6256C128.753 44.0324 129.212 44.5451 129.55 45.1638C129.893 45.7768 130.068 46.4499 130.074 47.1832C130.068 48.1341 129.773 48.9849 129.189 49.7353C128.604 50.4858 127.797 51.0787 126.765 51.5141C125.74 51.9437 124.566 52.1586 123.242 52.1586ZM123.242 49.426C123.832 49.426 124.348 49.32 124.789 49.108C125.23 48.8903 125.574 48.5924 125.82 48.2143C126.072 47.8305 126.198 47.3894 126.198 46.891C126.198 46.3812 126.069 45.9315 125.812 45.5419C125.554 45.1466 125.204 44.8373 124.763 44.6138C124.322 44.3847 123.815 44.2701 123.242 44.2701C122.675 44.2701 122.168 44.3847 121.721 44.6138C121.274 44.8373 120.922 45.1466 120.664 45.5419C120.412 45.9315 120.286 46.3812 120.286 46.891C120.286 47.3894 120.409 47.8305 120.656 48.2143C120.902 48.5924 121.249 48.8903 121.696 49.108C122.142 49.32 122.658 49.426 123.242 49.426ZM123.242 41.5633C123.735 41.5633 124.173 41.4631 124.557 41.2625C124.941 41.062 125.242 40.7842 125.459 40.429C125.677 40.0738 125.786 39.6642 125.786 39.2002C125.786 38.7419 125.677 38.3409 125.459 37.9972C125.242 37.6477 124.944 37.3756 124.566 37.1808C124.188 36.9803 123.746 36.8801 123.242 36.8801C122.744 36.8801 122.303 36.9803 121.919 37.1808C121.535 37.3756 121.234 37.6477 121.017 37.9972C120.805 38.3409 120.699 38.7419 120.699 39.2002C120.699 39.6642 120.808 40.0738 121.025 40.429C121.243 40.7842 121.544 41.062 121.928 41.2625C122.311 41.4631 122.75 41.5633 123.242 41.5633ZM132.675 51.918V49.2369L138.94 43.4366C139.472 42.921 139.919 42.457 140.28 42.0445C140.647 41.632 140.925 41.2282 141.114 40.8329C141.303 40.4319 141.397 39.9994 141.397 39.5353C141.397 39.0198 141.28 38.5758 141.045 38.2034C140.81 37.8253 140.489 37.536 140.083 37.3355C139.676 37.1293 139.215 37.0262 138.699 37.0262C138.161 37.0262 137.691 37.135 137.29 37.3527C136.889 37.5704 136.579 37.8826 136.362 38.2893C136.144 38.6961 136.035 39.1802 136.035 39.7416H132.503C132.503 38.5901 132.764 37.5904 133.285 36.7426C133.807 35.8947 134.537 35.2388 135.477 34.7748C136.416 34.3107 137.499 34.0787 138.725 34.0787C139.985 34.0787 141.082 34.3021 142.016 34.749C142.956 35.1901 143.686 35.8031 144.207 36.5879C144.729 37.3727 144.989 38.2722 144.989 39.2861C144.989 39.9507 144.857 40.6066 144.594 41.254C144.336 41.9013 143.875 42.6203 143.21 43.4108C142.546 44.1957 141.609 45.138 140.401 46.2379L137.831 48.7557V48.876H145.221V51.918H132.675ZM151.93 49.5119L151.836 50.4571C151.761 51.2133 151.618 51.9667 151.406 52.7171C151.2 53.4733 150.982 54.1579 150.753 54.7709C150.53 55.3838 150.349 55.8651 150.212 56.2145H147.84C147.926 55.8765 148.043 55.4039 148.192 54.7967C148.341 54.1951 148.482 53.5191 148.613 52.7687C148.745 52.0182 148.828 51.2534 148.863 50.4743L148.906 49.5119H151.93ZM161.181 52.1586C159.898 52.1586 158.755 51.938 157.752 51.4969C156.755 51.0501 155.968 50.4371 155.389 49.658C154.816 48.8732 154.521 47.968 154.504 46.9426H158.251C158.273 47.3722 158.414 47.7503 158.672 48.0769C158.935 48.3977 159.285 48.6469 159.72 48.8245C160.155 49.002 160.645 49.0908 161.189 49.0908C161.756 49.0908 162.258 48.9906 162.693 48.7901C163.129 48.5896 163.469 48.3117 163.716 47.9566C163.962 47.6014 164.085 47.1918 164.085 46.7277C164.085 46.258 163.953 45.8427 163.69 45.4817C163.432 45.1151 163.06 44.8287 162.573 44.6224C162.092 44.4162 161.519 44.3131 160.854 44.3131H159.213V41.5805H160.854C161.416 41.5805 161.911 41.4831 162.341 41.2883C162.776 41.0935 163.114 40.8243 163.355 40.4806C163.595 40.1311 163.716 39.7244 163.716 39.2604C163.716 38.8192 163.61 38.4326 163.398 38.1003C163.192 37.7623 162.899 37.4988 162.521 37.3097C162.149 37.1207 161.714 37.0262 161.215 37.0262C160.711 37.0262 160.25 37.1178 159.832 37.3011C159.413 37.4787 159.078 37.7337 158.826 38.0659C158.574 38.3982 158.44 38.7877 158.422 39.2346H154.856C154.873 38.2206 155.163 37.3269 155.724 36.5535C156.286 35.7802 157.042 35.1758 157.993 34.7404C158.949 34.2993 160.029 34.0787 161.232 34.0787C162.447 34.0787 163.509 34.2993 164.42 34.7404C165.331 35.1815 166.039 35.7773 166.543 36.5278C167.053 37.2725 167.305 38.1089 167.299 39.0369C167.305 40.0223 166.998 40.8443 166.38 41.5032C165.767 42.162 164.967 42.5802 163.982 42.7577V42.8952C165.277 43.0614 166.262 43.5111 166.938 44.2443C167.62 44.9719 167.958 45.8828 167.952 46.9769C167.958 47.9795 167.669 48.8703 167.084 49.6494C166.506 50.4285 165.706 51.0415 164.687 51.4883C163.667 51.9352 162.498 52.1586 161.181 52.1586ZM170.36 48.8245V45.8942L177.707 34.3193H180.234V38.3753H178.739L174.107 45.7052V45.8427H184.548V48.8245H170.36ZM178.807 51.918V47.9308L178.876 46.6332V34.3193H182.365V51.918H178.807ZM187.723 51.918L195.018 37.4816V37.3613H186.52V34.3193H198.868V37.4043L191.564 51.918H187.723Z" fill="black"/>
<path opacity="0.5" d="M101.968 70.4668V63.1477H106.356V63.9339H102.854V66.407H106.028V67.1932H102.854V70.4668H101.968ZM109.375 70.5955C109.028 70.5955 108.712 70.5299 108.428 70.3989C108.145 70.2655 107.92 70.0737 107.753 69.8235C107.586 69.571 107.503 69.266 107.503 68.9086C107.503 68.5941 107.565 68.3392 107.689 68.1438C107.812 67.9461 107.978 67.7912 108.185 67.6792C108.393 67.5673 108.621 67.4839 108.872 67.4291C109.124 67.3719 109.378 67.3266 109.633 67.2933C109.966 67.2504 110.237 67.2182 110.444 67.1968C110.654 67.1729 110.806 67.1336 110.901 67.0788C110.999 67.024 111.048 66.9287 111.048 66.7929V66.7643C111.048 66.4117 110.951 66.1377 110.759 65.9424C110.568 65.747 110.278 65.6493 109.89 65.6493C109.487 65.6493 109.172 65.7375 108.943 65.9138C108.714 66.0901 108.553 66.2783 108.461 66.4784L107.66 66.1925C107.803 65.859 107.994 65.5993 108.232 65.4134C108.472 65.2252 108.735 65.0942 109.018 65.0203C109.304 64.9441 109.585 64.906 109.861 64.906C110.038 64.906 110.24 64.9274 110.469 64.9703C110.7 65.0108 110.923 65.0954 111.137 65.224C111.354 65.3527 111.534 65.5469 111.677 65.8066C111.82 66.0663 111.891 66.4141 111.891 66.8501V70.4668H111.048V69.7234H111.005C110.948 69.8426 110.853 69.97 110.719 70.1058C110.586 70.2416 110.408 70.3572 110.187 70.4525C109.965 70.5478 109.695 70.5955 109.375 70.5955ZM109.504 69.8378C109.838 69.8378 110.119 69.7723 110.348 69.6412C110.579 69.5102 110.753 69.341 110.869 69.1338C110.988 68.9265 111.048 68.7085 111.048 68.4798V67.7078C111.012 67.7507 110.934 67.79 110.812 67.8258C110.693 67.8591 110.555 67.8889 110.398 67.9151C110.243 67.9389 110.091 67.9604 109.944 67.9794C109.798 67.9961 109.68 68.0104 109.59 68.0223C109.371 68.0509 109.166 68.0974 108.975 68.1617C108.787 68.2236 108.634 68.3178 108.518 68.444C108.403 68.5679 108.346 68.7371 108.346 68.9515C108.346 69.2446 108.455 69.4661 108.671 69.6162C108.891 69.7639 109.168 69.8378 109.504 69.8378ZM115.661 70.5812C115.146 70.5812 114.703 70.4596 114.331 70.2166C113.96 69.9736 113.674 69.6389 113.474 69.2124C113.274 68.7859 113.173 68.2987 113.173 67.7507C113.173 67.1932 113.276 66.7012 113.481 66.2747C113.688 65.8459 113.976 65.5111 114.346 65.2705C114.717 65.0275 115.151 64.906 115.647 64.906C116.033 64.906 116.38 64.9774 116.69 65.1204C117 65.2633 117.254 65.4635 117.451 65.7208C117.649 65.9781 117.772 66.2783 117.819 66.6214H116.976C116.912 66.3712 116.769 66.1496 116.547 65.9567C116.328 65.7613 116.033 65.6636 115.661 65.6636C115.332 65.6636 115.044 65.7494 114.796 65.9209C114.551 66.0901 114.359 66.3295 114.221 66.6393C114.085 66.9466 114.017 67.3076 114.017 67.7221C114.017 68.1462 114.084 68.5155 114.217 68.83C114.353 69.1445 114.543 69.3887 114.789 69.5626C115.037 69.7366 115.327 69.8235 115.661 69.8235C115.88 69.8235 116.079 69.7854 116.258 69.7092C116.436 69.6329 116.588 69.5233 116.712 69.3804C116.835 69.2374 116.924 69.0659 116.976 68.8657H117.819C117.772 69.1898 117.654 69.4816 117.466 69.7413C117.28 69.9986 117.033 70.2035 116.726 70.356C116.421 70.5061 116.066 70.5812 115.661 70.5812ZM119.052 70.4668V64.9774H119.896V70.4668H119.052ZM119.481 64.0625C119.317 64.0625 119.175 64.0066 119.056 63.8946C118.939 63.7826 118.881 63.648 118.881 63.4907C118.881 63.3335 118.939 63.1989 119.056 63.0869C119.175 62.9749 119.317 62.9189 119.481 62.9189C119.646 62.9189 119.786 62.9749 119.903 63.0869C120.022 63.1989 120.082 63.3335 120.082 63.4907C120.082 63.648 120.022 63.7826 119.903 63.8946C119.786 64.0066 119.646 64.0625 119.481 64.0625ZM122.284 63.1477V70.4668H121.441V63.1477H122.284ZM123.829 70.4668V64.9774H124.672V70.4668H123.829ZM124.258 64.0625C124.093 64.0625 123.951 64.0066 123.832 63.8946C123.716 63.7826 123.657 63.648 123.657 63.4907C123.657 63.3335 123.716 63.1989 123.832 63.0869C123.951 62.9749 124.093 62.9189 124.258 62.9189C124.422 62.9189 124.563 62.9749 124.679 63.0869C124.798 63.1989 124.858 63.3335 124.858 63.4907C124.858 63.648 124.798 63.7826 124.679 63.8946C124.563 64.0066 124.422 64.0625 124.258 64.0625ZM130.105 66.2068L129.348 66.4213C129.3 66.295 129.23 66.1723 129.137 66.0532C129.046 65.9316 128.922 65.8316 128.765 65.753C128.608 65.6743 128.407 65.635 128.161 65.635C127.825 65.635 127.545 65.7125 127.321 65.8673C127.1 66.0198 126.989 66.214 126.989 66.4498C126.989 66.6595 127.065 66.8251 127.218 66.9466C127.37 67.0681 127.608 67.1694 127.932 67.2504L128.747 67.4505C129.238 67.5696 129.604 67.7519 129.844 67.9973C130.085 68.2403 130.205 68.5536 130.205 68.9372C130.205 69.2517 130.115 69.5328 129.934 69.7806C129.755 70.0284 129.505 70.2238 129.183 70.3667C128.862 70.5097 128.488 70.5812 128.061 70.5812C127.501 70.5812 127.038 70.4596 126.671 70.2166C126.304 69.9736 126.072 69.6186 125.974 69.1516L126.774 68.9515C126.851 69.2469 126.995 69.4685 127.207 69.6162C127.421 69.7639 127.701 69.8378 128.047 69.8378C128.44 69.8378 128.752 69.7544 128.983 69.5876C129.217 69.4185 129.333 69.216 129.333 68.9801C129.333 68.7895 129.267 68.6299 129.133 68.5012C129 68.3702 128.795 68.2725 128.519 68.2082L127.604 67.9937C127.101 67.8746 126.732 67.69 126.496 67.4398C126.262 67.1872 126.145 66.8716 126.145 66.4927C126.145 66.183 126.232 65.909 126.406 65.6708C126.583 65.4325 126.822 65.2455 127.125 65.1097C127.43 64.9739 127.775 64.906 128.161 64.906C128.704 64.906 129.131 65.0251 129.441 65.2633C129.753 65.5016 129.974 65.8161 130.105 66.2068ZM131.475 70.4668V64.9774H132.318V70.4668H131.475ZM131.904 64.0625C131.739 64.0625 131.598 64.0066 131.478 63.8946C131.362 63.7826 131.303 63.648 131.303 63.4907C131.303 63.3335 131.362 63.1989 131.478 63.0869C131.598 62.9749 131.739 62.9189 131.904 62.9189C132.068 62.9189 132.209 62.9749 132.325 63.0869C132.445 63.1989 132.504 63.3335 132.504 63.4907C132.504 63.648 132.445 63.7826 132.325 63.8946C132.209 64.0066 132.068 64.0625 131.904 64.0625ZM136.694 70.4668V64.9774H137.537V70.4668H136.694ZM137.122 64.0625C136.958 64.0625 136.816 64.0066 136.697 63.8946C136.58 63.7826 136.522 63.648 136.522 63.4907C136.522 63.3335 136.58 63.1989 136.697 63.0869C136.816 62.9749 136.958 62.9189 137.122 62.9189C137.287 62.9189 137.427 62.9749 137.544 63.0869C137.663 63.1989 137.723 63.3335 137.723 63.4907C137.723 63.648 137.663 63.7826 137.544 63.8946C137.427 64.0066 137.287 64.0625 137.122 64.0625ZM139.925 67.1646V70.4668H139.082V64.9774H139.897V65.8352H139.968C140.097 65.5564 140.292 65.3324 140.554 65.1633C140.816 64.9917 141.155 64.906 141.569 64.906C141.941 64.906 142.266 64.9822 142.545 65.1347C142.824 65.2848 143.04 65.5135 143.195 65.8209C143.35 66.1258 143.428 66.5118 143.428 66.9788V70.4668H142.584V67.0359C142.584 66.6047 142.472 66.2688 142.248 66.0281C142.024 65.7851 141.717 65.6636 141.326 65.6636C141.057 65.6636 140.816 65.722 140.604 65.8387C140.395 65.9555 140.229 66.1258 140.107 66.3498C139.986 66.5737 139.925 66.8453 139.925 67.1646ZM147.799 70.4668V64.9774H148.614V65.8352H148.685C148.8 65.5421 148.984 65.3146 149.239 65.1526C149.494 64.9882 149.8 64.906 150.158 64.906C150.52 64.906 150.821 64.9882 151.062 65.1526C151.305 65.3146 151.494 65.5421 151.63 65.8352H151.687C151.828 65.5516 152.039 65.3265 152.32 65.1597C152.601 64.9905 152.938 64.906 153.331 64.906C153.822 64.906 154.224 65.0596 154.536 65.367C154.848 65.6719 155.004 66.1473 155.004 66.7929V70.4668H154.161V66.7929C154.161 66.3879 154.05 66.0984 153.828 65.9245C153.607 65.7506 153.346 65.6636 153.045 65.6636C152.66 65.6636 152.361 65.7804 152.148 66.0138C151.936 66.2449 151.83 66.538 151.83 66.893V70.4668H150.973V66.7072C150.973 66.395 150.871 66.1437 150.669 65.9531C150.466 65.7601 150.206 65.6636 149.886 65.6636C149.667 65.6636 149.462 65.722 149.272 65.8387C149.083 65.9555 148.931 66.1175 148.814 66.3248C148.7 66.5297 148.643 66.7667 148.643 67.0359V70.4668H147.799ZM158.161 70.5955C157.814 70.5955 157.498 70.5299 157.214 70.3989C156.931 70.2655 156.706 70.0737 156.539 69.8235C156.372 69.571 156.289 69.266 156.289 68.9086C156.289 68.5941 156.351 68.3392 156.475 68.1438C156.598 67.9461 156.764 67.7912 156.971 67.6792C157.179 67.5673 157.407 67.4839 157.657 67.4291C157.91 67.3719 158.164 67.3266 158.419 67.2933C158.752 67.2504 159.023 67.2182 159.23 67.1968C159.44 67.1729 159.592 67.1336 159.687 67.0788C159.785 67.024 159.834 66.9287 159.834 66.7929V66.7643C159.834 66.4117 159.737 66.1377 159.544 65.9424C159.354 65.747 159.064 65.6493 158.676 65.6493C158.273 65.6493 157.958 65.7375 157.729 65.9138C157.5 66.0901 157.339 66.2783 157.246 66.4784L156.446 66.1925C156.589 65.859 156.78 65.5993 157.018 65.4134C157.258 65.2252 157.52 65.0942 157.804 65.0203C158.09 64.9441 158.371 64.906 158.647 64.906C158.824 64.906 159.026 64.9274 159.255 64.9703C159.486 65.0108 159.709 65.0954 159.923 65.224C160.14 65.3527 160.32 65.5469 160.463 65.8066C160.606 66.0663 160.677 66.4141 160.677 66.8501V70.4668H159.834V69.7234H159.791C159.734 69.8426 159.639 69.97 159.505 70.1058C159.372 70.2416 159.194 70.3572 158.973 70.4525C158.751 70.5478 158.481 70.5955 158.161 70.5955ZM158.29 69.8378C158.624 69.8378 158.905 69.7723 159.133 69.6412C159.365 69.5102 159.538 69.341 159.655 69.1338C159.774 68.9265 159.834 68.7085 159.834 68.4798V67.7078C159.798 67.7507 159.72 67.79 159.598 67.8258C159.479 67.8591 159.341 67.8889 159.183 67.9151C159.029 67.9389 158.877 67.9604 158.73 67.9794C158.584 67.9961 158.466 68.0104 158.376 68.0223C158.157 68.0509 157.952 68.0974 157.761 68.1617C157.573 68.2236 157.42 68.3178 157.304 68.444C157.189 68.5679 157.132 68.7371 157.132 68.9515C157.132 69.2446 157.241 69.4661 157.457 69.6162C157.677 69.7639 157.954 69.8378 158.29 69.8378ZM164.433 72.6397C164.025 72.6397 163.675 72.5873 163.382 72.4824C163.089 72.38 162.845 72.2442 162.649 72.075C162.456 71.9082 162.303 71.7295 162.188 71.5389L162.86 71.0672C162.936 71.1673 163.033 71.2816 163.15 71.4103C163.266 71.5413 163.426 71.6545 163.628 71.7498C163.833 71.8475 164.101 71.8963 164.433 71.8963C164.876 71.8963 165.241 71.7891 165.53 71.5747C165.818 71.3602 165.962 71.0243 165.962 70.5669V69.4518H165.891C165.829 69.5519 165.741 69.6758 165.626 69.8235C165.514 69.9688 165.352 70.0987 165.14 70.2131C164.93 70.325 164.647 70.381 164.29 70.381C163.846 70.381 163.449 70.2762 163.096 70.0665C162.746 69.8569 162.468 69.5519 162.263 69.1516C162.061 68.7514 161.959 68.2653 161.959 67.6935C161.959 67.1313 162.058 66.6416 162.256 66.2247C162.454 65.8054 162.729 65.4813 163.082 65.2526C163.434 65.0215 163.842 64.906 164.304 64.906C164.661 64.906 164.945 64.9655 165.154 65.0847C165.366 65.2014 165.528 65.3348 165.64 65.4849C165.755 65.6326 165.843 65.7541 165.905 65.8494H165.991V64.9774H166.806V70.624C166.806 71.0958 166.698 71.4794 166.484 71.7748C166.272 72.0726 165.986 72.2906 165.626 72.4288C165.269 72.5694 164.871 72.6397 164.433 72.6397ZM164.404 69.6234C164.742 69.6234 165.028 69.5459 165.262 69.3911C165.495 69.2362 165.673 69.0135 165.794 68.7228C165.916 68.4321 165.976 68.0843 165.976 67.6792C165.976 67.2837 165.917 66.9347 165.798 66.6321C165.679 66.3295 165.502 66.0925 165.269 65.9209C165.035 65.7494 164.747 65.6636 164.404 65.6636C164.047 65.6636 163.749 65.7541 163.51 65.9352C163.275 66.1163 163.097 66.3593 162.978 66.6643C162.861 66.9692 162.803 67.3076 162.803 67.6792C162.803 68.0604 162.862 68.3976 162.982 68.6906C163.103 68.9813 163.282 69.21 163.518 69.3768C163.756 69.5412 164.051 69.6234 164.404 69.6234ZM169.193 67.1646V70.4668H168.349V64.9774H169.164V65.8352H169.236C169.364 65.5564 169.56 65.3324 169.822 65.1633C170.084 64.9917 170.422 64.906 170.837 64.906C171.208 64.906 171.534 64.9822 171.812 65.1347C172.091 65.2848 172.308 65.5135 172.463 65.8209C172.618 66.1258 172.695 66.5118 172.695 66.9788V70.4668H171.852V67.0359C171.852 66.6047 171.74 66.2688 171.516 66.0281C171.292 65.7851 170.984 65.6636 170.594 65.6636C170.325 65.6636 170.084 65.722 169.872 65.8387C169.662 65.9555 169.497 66.1258 169.375 66.3498C169.254 66.5737 169.193 66.8453 169.193 67.1646ZM175.852 70.5955C175.504 70.5955 175.188 70.5299 174.905 70.3989C174.621 70.2655 174.396 70.0737 174.229 69.8235C174.062 69.571 173.979 69.266 173.979 68.9086C173.979 68.5941 174.041 68.3392 174.165 68.1438C174.289 67.9461 174.454 67.7912 174.662 67.6792C174.869 67.5673 175.098 67.4839 175.348 67.4291C175.6 67.3719 175.854 67.3266 176.109 67.2933C176.443 67.2504 176.713 67.2182 176.92 67.1968C177.13 67.1729 177.282 67.1336 177.378 67.0788C177.475 67.024 177.524 66.9287 177.524 66.7929V66.7643C177.524 66.4117 177.428 66.1377 177.235 65.9424C177.044 65.747 176.755 65.6493 176.366 65.6493C175.964 65.6493 175.648 65.7375 175.419 65.9138C175.191 66.0901 175.03 66.2783 174.937 66.4784L174.136 66.1925C174.279 65.859 174.47 65.5993 174.708 65.4134C174.949 65.2252 175.211 65.0942 175.494 65.0203C175.78 64.9441 176.061 64.906 176.338 64.906C176.514 64.906 176.717 64.9274 176.945 64.9703C177.176 65.0108 177.399 65.0954 177.614 65.224C177.83 65.3527 178.01 65.5469 178.153 65.8066C178.296 66.0663 178.368 66.4141 178.368 66.8501V70.4668H177.524V69.7234H177.481C177.424 69.8426 177.329 69.97 177.195 70.1058C177.062 70.2416 176.885 70.3572 176.663 70.4525C176.441 70.5478 176.171 70.5955 175.852 70.5955ZM175.98 69.8378C176.314 69.8378 176.595 69.7723 176.824 69.6412C177.055 69.5102 177.229 69.341 177.346 69.1338C177.465 68.9265 177.524 68.7085 177.524 68.4798V67.7078C177.488 67.7507 177.41 67.79 177.288 67.8258C177.169 67.8591 177.031 67.8889 176.874 67.9151C176.719 67.9389 176.568 67.9604 176.42 67.9794C176.275 67.9961 176.157 68.0104 176.066 68.0223C175.847 68.0509 175.642 68.0974 175.451 68.1617C175.263 68.2236 175.111 68.3178 174.994 68.444C174.88 68.5679 174.822 68.7371 174.822 68.9515C174.822 69.2446 174.931 69.4661 175.148 69.6162C175.367 69.7639 175.644 69.8378 175.98 69.8378ZM182.738 70.4668V64.9774H183.552V65.8352H183.624C183.738 65.5421 183.923 65.3146 184.178 65.1526C184.433 64.9882 184.739 64.906 185.096 64.906C185.458 64.906 185.76 64.9882 186 65.1526C186.243 65.3146 186.433 65.5421 186.569 65.8352H186.626C186.766 65.5516 186.977 65.3265 187.258 65.1597C187.54 64.9905 187.877 64.906 188.27 64.906C188.761 64.906 189.162 65.0596 189.474 65.367C189.786 65.6719 189.942 66.1473 189.942 66.7929V70.4668H189.099V66.7929C189.099 66.3879 188.988 66.0984 188.767 65.9245C188.545 65.7506 188.284 65.6636 187.984 65.6636C187.598 65.6636 187.299 65.7804 187.087 66.0138C186.875 66.2449 186.769 66.538 186.769 66.893V70.4668H185.911V66.7072C185.911 66.395 185.81 66.1437 185.607 65.9531C185.405 65.7601 185.144 65.6636 184.825 65.6636C184.605 65.6636 184.401 65.722 184.21 65.8387C184.022 65.9555 183.869 66.1175 183.752 66.3248C183.638 66.5297 183.581 66.7667 183.581 67.0359V70.4668H182.738ZM193.1 70.5955C192.752 70.5955 192.436 70.5299 192.153 70.3989C191.869 70.2655 191.644 70.0737 191.477 69.8235C191.31 69.571 191.227 69.266 191.227 68.9086C191.227 68.5941 191.289 68.3392 191.413 68.1438C191.537 67.9461 191.702 67.7912 191.91 67.6792C192.117 67.5673 192.346 67.4839 192.596 67.4291C192.848 67.3719 193.102 67.3266 193.357 67.2933C193.691 67.2504 193.961 67.2182 194.168 67.1968C194.378 67.1729 194.53 67.1336 194.626 67.0788C194.723 67.024 194.772 66.9287 194.772 66.7929V66.7643C194.772 66.4117 194.676 66.1377 194.483 65.9424C194.292 65.747 194.003 65.6493 193.614 65.6493C193.212 65.6493 192.896 65.7375 192.667 65.9138C192.439 66.0901 192.278 66.2783 192.185 66.4784L191.384 66.1925C191.527 65.859 191.718 65.5993 191.956 65.4134C192.197 65.2252 192.459 65.0942 192.742 65.0203C193.028 64.9441 193.309 64.906 193.586 64.906C193.762 64.906 193.965 64.9274 194.193 64.9703C194.424 65.0108 194.647 65.0954 194.862 65.224C195.078 65.3527 195.258 65.5469 195.401 65.8066C195.544 66.0663 195.616 66.4141 195.616 66.8501V70.4668H194.772V69.7234H194.729C194.672 69.8426 194.577 69.97 194.443 70.1058C194.31 70.2416 194.133 70.3572 193.911 70.4525C193.689 70.5478 193.419 70.5955 193.1 70.5955ZM193.228 69.8378C193.562 69.8378 193.843 69.7723 194.072 69.6412C194.303 69.5102 194.477 69.341 194.594 69.1338C194.713 68.9265 194.772 68.7085 194.772 68.4798V67.7078C194.737 67.7507 194.658 67.79 194.536 67.8258C194.417 67.8591 194.279 67.8889 194.122 67.9151C193.967 67.9389 193.816 67.9604 193.668 67.9794C193.523 67.9961 193.405 68.0104 193.314 68.0223C193.095 68.0509 192.89 68.0974 192.699 68.1617C192.511 68.2236 192.359 68.3178 192.242 68.444C192.128 68.5679 192.07 68.7371 192.07 68.9515C192.07 69.2446 192.179 69.4661 192.396 69.6162C192.615 69.7639 192.892 69.8378 193.228 69.8378ZM200.615 68.2225V64.9774H201.458V70.4668H200.615V69.5376H200.557C200.429 69.8164 200.229 70.0534 199.957 70.2488C199.685 70.4418 199.342 70.5383 198.928 70.5383C198.585 70.5383 198.28 70.4632 198.013 70.3131C197.746 70.1606 197.536 69.9319 197.384 69.627C197.231 69.3196 197.155 68.9324 197.155 68.4655V64.9774H197.999V68.4083C197.999 68.8086 198.111 69.1278 198.334 69.3661C198.561 69.6043 198.849 69.7234 199.199 69.7234C199.409 69.7234 199.622 69.6698 199.839 69.5626C200.058 69.4554 200.242 69.291 200.389 69.0694C200.54 68.8479 200.615 68.5655 200.615 68.2225ZM203.003 70.4668V64.9774H203.818V65.8066H203.875C203.975 65.535 204.156 65.3146 204.418 65.1454C204.68 64.9762 204.975 64.8917 205.304 64.8917C205.366 64.8917 205.444 64.8929 205.537 64.8952C205.629 64.8976 205.7 64.9012 205.747 64.906V65.7637C205.719 65.7565 205.653 65.7458 205.551 65.7315C205.451 65.7148 205.345 65.7065 205.233 65.7065C204.966 65.7065 204.728 65.7625 204.518 65.8745C204.311 65.9841 204.146 66.1365 204.025 66.3319C203.906 66.5249 203.846 66.7453 203.846 66.9931V70.4668H203.003ZM206.747 70.4668V64.9774H207.591V70.4668H206.747ZM207.176 64.0625C207.012 64.0625 206.87 64.0066 206.751 63.8946C206.634 63.7826 206.576 63.648 206.576 63.4907C206.576 63.3335 206.634 63.1989 206.751 63.0869C206.87 62.9749 207.012 62.9189 207.176 62.9189C207.34 62.9189 207.481 62.9749 207.598 63.0869C207.717 63.1989 207.776 63.3335 207.776 63.4907C207.776 63.648 207.717 63.7826 207.598 63.8946C207.481 64.0066 207.34 64.0625 207.176 64.0625ZM213.024 66.2068L212.266 66.4213C212.218 66.295 212.148 66.1723 212.055 66.0532C211.965 65.9316 211.841 65.8316 211.684 65.753C211.526 65.6743 211.325 65.635 211.08 65.635C210.744 65.635 210.464 65.7125 210.24 65.8673C210.018 66.0198 209.907 66.214 209.907 66.4498C209.907 66.6595 209.984 66.8251 210.136 66.9466C210.289 67.0681 210.527 67.1694 210.851 67.2504L211.666 67.4505C212.156 67.5696 212.522 67.7519 212.763 67.9973C213.003 68.2403 213.124 68.5536 213.124 68.9372C213.124 69.2517 213.033 69.5328 212.852 69.7806C212.673 70.0284 212.423 70.2238 212.102 70.3667C211.78 70.5097 211.406 70.5812 210.979 70.5812C210.42 70.5812 209.956 70.4596 209.589 70.2166C209.222 69.9736 208.99 69.6186 208.892 69.1516L209.693 68.9515C209.769 69.2469 209.913 69.4685 210.125 69.6162C210.34 69.7639 210.62 69.8378 210.965 69.8378C211.358 69.8378 211.67 69.7544 211.902 69.5876C212.135 69.4185 212.252 69.216 212.252 68.9801C212.252 68.7895 212.185 68.6299 212.052 68.5012C211.918 68.3702 211.713 68.2725 211.437 68.2082L210.522 67.9937C210.019 67.8746 209.65 67.69 209.414 67.4398C209.181 67.1872 209.064 66.8716 209.064 66.4927C209.064 66.183 209.151 65.909 209.325 65.6708C209.501 65.4325 209.741 65.2455 210.043 65.1097C210.348 64.9739 210.694 64.906 211.08 64.906C211.623 64.906 212.049 65.0251 212.359 65.2633C212.671 65.5016 212.893 65.8161 213.024 66.2068Z" fill="black"/>
<circle cx="159.452" cy="108.275" r="11.0702" fill="#3E68FF"/>
<path d="M104.827 38.0221C104.827 37.4328 105.298 36.9551 105.879 36.9551C106.46 36.9551 106.931 37.4328 106.931 38.0221V38.813C107.858 38.9509 108.593 39.2599 109.137 39.7402C109.587 40.1352 109.912 40.6077 110.112 41.1577C110.359 41.8372 109.772 42.4633 109.059 42.4951C108.403 42.5243 107.894 42.0002 107.499 41.4679C107.421 41.3621 107.332 41.2706 107.235 41.1934C106.894 40.915 106.381 40.7758 105.695 40.7758C104.987 40.7758 104.432 40.9233 104.031 41.2184C103.773 41.4077 103.644 41.6611 103.644 41.9784C103.644 42.2679 103.765 42.5157 104.007 42.7217C104.314 42.9834 105.061 43.2562 106.246 43.5401C107.432 43.8241 108.308 44.1192 108.873 44.4254C109.444 44.726 109.889 45.1408 110.207 45.6697C110.531 46.1931 110.693 46.8417 110.693 47.6156C110.693 48.3171 110.501 48.9741 110.117 49.5865C109.732 50.199 109.189 50.6555 108.486 50.9562C108.038 51.1443 107.52 51.2725 106.931 51.3407V51.893C106.931 52.4823 106.46 52.96 105.879 52.96C105.298 52.96 104.827 52.4823 104.827 51.893V51.3379C103.794 51.2084 102.966 50.8724 102.343 50.3298C101.793 49.8465 101.391 49.2156 101.139 48.4372C100.925 47.7753 101.439 47.1426 102.123 47.0752C102.759 47.0125 103.3 47.4766 103.592 48.0534C103.732 48.3322 103.906 48.5621 104.114 48.7431C104.553 49.1216 105.143 49.3109 105.884 49.3109C106.669 49.3109 107.259 49.1439 107.654 48.8099C108.055 48.4702 108.256 48.0749 108.256 47.624C108.256 47.3344 108.171 47.0895 108 46.889C107.836 46.683 107.545 46.5049 107.127 46.3545C106.842 46.2543 106.191 46.0762 105.176 45.8201C103.869 45.4916 102.953 45.0879 102.426 44.6091C101.684 43.9354 101.314 43.1142 101.314 42.1454C101.314 41.5219 101.487 40.9401 101.833 40.4C102.184 39.8544 102.686 39.4396 103.34 39.1556C103.776 38.9674 104.272 38.8415 104.827 38.7781V38.0221Z" fill="#F39800"/>
</svg>
