<svg width="160" height="67" viewBox="0 0 160 67" fill="none" xmlns="http://www.w3.org/2000/svg">
<path d="M23.8356 33.3332C13.5885 34.0251 0.545898 21.1907 0.545898 21.1907V66.8098H159.756V1.83842C143.504 14.1379 137 0.560665 116.613 1.83842C102.258 2.73807 98.5161 26.8418 85.3051 21.1906C70.2962 14.7703 62.1251 -2.43774 46.3617 1.83842C31.714 5.8119 38.9842 32.3104 23.8356 33.3332Z" fill="url(#paint0_linear_504_1321)"/>
<path d="M1.30078 21.0756C1.30078 21.0756 14.1889 33.8363 24.3145 33.1484C39.2836 32.1314 32.0996 5.78519 46.5737 1.83454C62.1504 -2.41704 70.2247 14.6921 85.0558 21.0755C98.1102 26.6943 101.808 2.72903 115.992 1.83454C136.138 0.564133 142.565 14.0633 158.624 1.83454" stroke="#73CED0" stroke-width="1.71012" stroke-linecap="round"/>
<defs>
<linearGradient id="paint0_linear_504_1321" x1="80.5281" y1="-31.6588" x2="80.1509" y2="66.8098" gradientUnits="userSpaceOnUse">
<stop stop-color="#4BA2A4"/>
<stop offset="1" stop-color="white" stop-opacity="0"/>
</linearGradient>
</defs>
</svg>
