<svg width="152" height="142" viewBox="0 0 152 142" fill="none" xmlns="http://www.w3.org/2000/svg">
<circle opacity="0.67" cx="37.6305" cy="82.727" r="36.8715" fill="#2B59FF"/>
<circle opacity="0.77" cx="78.7555" cy="114.635" r="26.59" fill="#FFC947"/>
<circle opacity="0.9" cx="97.5476" cy="54.7182" r="54.2436" fill="#45C646"/>
<path d="M76.5782 53.8908C75.6653 53.5056 74.9994 52.9779 74.5807 52.3079C74.1703 51.6295 73.9651 50.8883 73.9651 50.0843C73.9651 48.7107 74.4425 47.5759 75.3973 46.6797C76.3604 45.7835 77.7256 45.3355 79.4928 45.3355C81.2432 45.3355 82.6 45.7835 83.5632 46.6797C84.5347 47.5759 85.0205 48.7107 85.0205 50.0843C85.0205 50.9385 84.7985 51.7007 84.3546 52.3707C83.9107 53.0324 83.2868 53.5391 82.4828 53.8908C83.5045 54.3012 84.2793 54.9001 84.8069 55.6873C85.3429 56.4746 85.6109 57.3833 85.6109 58.4135C85.6109 60.1137 85.0665 61.4956 83.9777 62.5593C82.8973 63.6229 81.4568 64.1548 79.6561 64.1548C77.981 64.1548 76.5865 63.7151 75.4726 62.8357C74.1577 61.7971 73.5003 60.3733 73.5003 58.5642C73.5003 57.5676 73.7473 56.6547 74.2415 55.8255C74.7356 54.988 75.5145 54.3431 76.5782 53.8908ZM77.3068 50.3355C77.3068 51.039 77.5036 51.5876 77.8973 51.9813C78.2993 52.3749 78.8311 52.5717 79.4928 52.5717C80.1628 52.5717 80.6988 52.3749 81.1008 51.9813C81.5028 51.5792 81.7039 51.0265 81.7039 50.323C81.7039 49.6613 81.5028 49.1337 81.1008 48.74C80.7072 48.338 80.1837 48.137 79.5305 48.137C78.8521 48.137 78.3119 48.338 77.9098 48.74C77.5078 49.142 77.3068 49.6739 77.3068 50.3355ZM76.9802 58.225C76.9802 59.1966 77.2273 59.9545 77.7214 60.4989C78.2239 61.0433 78.8479 61.3155 79.5933 61.3155C80.3219 61.3155 80.925 61.0559 81.4023 60.5366C81.8797 60.009 82.1184 59.251 82.1184 58.2627C82.1184 57.4001 81.8755 56.7091 81.3898 56.1899C80.904 55.6622 80.2884 55.3984 79.543 55.3984C78.6804 55.3984 78.0355 55.6957 77.6083 56.2904C77.1896 56.885 76.9802 57.5299 76.9802 58.225ZM87.9476 59.5693L91.3648 59.1924C91.4485 59.8875 91.6663 60.4026 92.018 60.7376C92.3698 61.0727 92.8346 61.2402 93.4125 61.2402C94.1412 61.2402 94.7609 60.9051 95.2718 60.2351C95.7827 59.5651 96.1094 58.1748 96.2518 56.0642C95.364 57.0944 94.2542 57.6095 92.9226 57.6095C91.4736 57.6095 90.2215 57.0525 89.1662 55.9386C88.1193 54.8163 87.5959 53.359 87.5959 51.5667C87.5959 49.699 88.1486 48.1956 89.2542 47.0566C90.3681 45.9092 91.7835 45.3355 93.5005 45.3355C95.3682 45.3355 96.9008 46.0599 98.0985 47.5089C99.2962 48.9494 99.895 51.3238 99.895 54.632C99.895 57.9989 99.271 60.4278 98.0231 61.9186C96.7752 63.4094 95.1504 64.1548 93.1487 64.1548C91.7082 64.1548 90.544 63.7737 89.6562 63.0115C88.7684 62.241 88.1989 61.0936 87.9476 59.5693ZM95.9377 51.8556C95.9377 50.7166 95.6739 49.833 95.1462 49.2049C94.6269 48.5767 94.0239 48.2626 93.3371 48.2626C92.6839 48.2626 92.1395 48.5223 91.704 49.0415C91.2768 49.5524 91.0633 50.3941 91.0633 51.5667C91.0633 52.756 91.2978 53.6312 91.7668 54.1923C92.2358 54.7451 92.8221 55.0215 93.5256 55.0215C94.204 55.0215 94.7735 54.7535 95.2342 54.2175C95.7032 53.6814 95.9377 52.8942 95.9377 51.8556ZM102.948 63.8281V60.2979H106.478V63.8281H102.948ZM109.355 48.941V45.6621H121.428V48.2249C120.431 49.2049 119.418 50.6119 118.388 52.4461C117.358 54.2803 116.57 56.2317 116.026 58.3004C115.49 60.3608 115.226 62.2033 115.234 63.8281H111.83C111.888 61.282 112.412 58.6857 113.4 56.0391C114.397 53.3925 115.724 51.0265 117.383 48.941H109.355Z" fill="white"/>
<path d="M36.8817 86.3205V88.2168H29.7254C29.8029 87.5 30.0353 86.8219 30.4228 86.1825C30.8103 85.5383 31.5756 84.6859 32.7187 83.6251C33.6389 82.7678 34.2032 82.1866 34.4115 81.8814C34.6924 81.4601 34.8329 81.0435 34.8329 80.6318C34.8329 80.1765 34.7094 79.8278 34.4624 79.5856C34.2202 79.3386 33.8835 79.2151 33.4525 79.2151C33.0262 79.2151 32.6872 79.3434 32.4353 79.6001C32.1835 79.8568 32.0382 80.2831 31.9994 80.8788L29.9651 80.6754C30.0862 79.5517 30.4664 78.7452 31.1058 78.256C31.7451 77.7668 32.5443 77.5222 33.5033 77.5222C34.5544 77.5222 35.3802 77.8056 35.9808 78.3723C36.5814 78.939 36.8817 79.6437 36.8817 80.4865C36.8817 80.966 36.7945 81.4237 36.6201 81.8596C36.4506 82.2907 36.1794 82.7436 35.8064 83.2183C35.5594 83.5331 35.1138 83.986 34.4696 84.5769C33.8254 85.1678 33.4161 85.5601 33.2418 85.7539C33.0723 85.9476 32.9342 86.1365 32.8277 86.3205H36.8817ZM38.1967 85.3906L40.1729 85.1508C40.2359 85.6546 40.4054 86.0396 40.6815 86.306C40.9575 86.5724 41.2918 86.7056 41.6841 86.7056C42.1055 86.7056 42.459 86.5458 42.7448 86.2261C43.0354 85.9064 43.1807 85.4753 43.1807 84.9329C43.1807 84.4195 43.0427 84.0126 42.7666 83.7123C42.4905 83.412 42.1539 83.2618 41.7567 83.2618C41.4952 83.2618 41.1828 83.3127 40.8195 83.4144L41.0447 81.7507C41.5969 81.7652 42.0183 81.6465 42.3089 81.3947C42.5995 81.138 42.7448 80.7989 42.7448 80.3775C42.7448 80.0191 42.6383 79.7333 42.4251 79.5202C42.212 79.3071 41.9287 79.2005 41.5751 79.2005C41.2264 79.2005 40.9285 79.3216 40.6815 79.5638C40.4344 79.806 40.2843 80.1596 40.231 80.6245L38.3493 80.3049C38.4801 79.6607 38.6762 79.1473 38.9378 78.7646C39.2042 78.3771 39.5723 78.0744 40.0421 77.8565C40.5168 77.6336 41.0472 77.5222 41.6332 77.5222C42.6358 77.5222 43.4399 77.8419 44.0453 78.4813C44.5442 79.0044 44.7936 79.5953 44.7936 80.254C44.7936 81.1888 44.2826 81.9347 43.2607 82.4917C43.8709 82.6225 44.3577 82.9155 44.721 83.3708C45.0891 83.8261 45.2731 84.3759 45.2731 85.0201C45.2731 85.9549 44.9317 86.7516 44.2487 87.4103C43.5658 88.0691 42.7158 88.3984 41.6986 88.3984C40.7347 88.3984 39.9356 88.1223 39.3011 87.5702C38.6665 87.0132 38.2984 86.2866 38.1967 85.3906Z" fill="white"/>
<path d="M76.3371 120.125H74.2956V112.431C73.5497 113.128 72.6706 113.644 71.6583 113.979V112.126C72.1911 111.952 72.7699 111.622 73.3947 111.138C74.0195 110.649 74.4482 110.079 74.6807 109.43H76.3371V120.125ZM86.2906 118.229V120.125H79.1343C79.2118 119.408 79.4443 118.73 79.8318 118.091C80.2192 117.447 80.9845 116.594 82.1276 115.533C83.0479 114.676 83.6121 114.095 83.8204 113.79C84.1013 113.368 84.2418 112.952 84.2418 112.54C84.2418 112.085 84.1183 111.736 83.8713 111.494C83.6291 111.247 83.2925 111.123 82.8614 111.123C82.4352 111.123 82.0961 111.252 81.8443 111.508C81.5924 111.765 81.4471 112.191 81.4083 112.787L79.374 112.584C79.4951 111.46 79.8754 110.653 80.5147 110.164C81.154 109.675 81.9532 109.43 82.9123 109.43C83.9633 109.43 84.7891 109.714 85.3897 110.28C85.9903 110.847 86.2906 111.552 86.2906 112.395C86.2906 112.874 86.2034 113.332 86.0291 113.768C85.8596 114.199 85.5883 114.652 85.2154 115.126C84.9683 115.441 84.5227 115.894 83.8785 116.485C83.2344 117.076 82.8251 117.468 82.6507 117.662C82.4812 117.856 82.3431 118.045 82.2366 118.229H86.2906Z" fill="white"/>
</svg>
