<svg width="16" height="16" viewBox="0 0 16 16" fill="none" xmlns="http://www.w3.org/2000/svg">
<mask id="mask0_516_53880" style="mask-type:alpha" maskUnits="userSpaceOnUse" x="1" y="2" width="14" height="12">
<path d="M6.66527 12.8849V9.55158H9.33193V12.8849C9.33193 13.2516 9.63193 13.5516 9.9986 13.5516H11.9986C12.3653 13.5516 12.6653 13.2516 12.6653 12.8849V8.21824H13.7986C14.1053 8.21824 14.2519 7.83824 14.0186 7.63824L8.44527 2.61824C8.19193 2.39158 7.80527 2.39158 7.55193 2.61824L1.9786 7.63824C1.75193 7.83824 1.89193 8.21824 2.1986 8.21824H3.33193V12.8849C3.33193 13.2516 3.63193 13.5516 3.9986 13.5516H5.9986C6.36527 13.5516 6.66527 13.2516 6.66527 12.8849Z" fill="black"/>
</mask>
<g mask="url(#mask0_516_53880)">
<rect width="16" height="16" fill="#BDBDBD"/>
</g>
</svg>
