<svg width="26" height="26" viewBox="0 0 26 26" fill="none" xmlns="http://www.w3.org/2000/svg">
<g clip-path="url(#clip0_503_906)">
<path d="M3.08846 20.3342C2.34367 18.4436 1.08325 14.9848 1.08325 13.0008C1.08325 6.41905 6.88862 1.08398 12.9999 1.08398C19.1112 1.08398 24.9166 6.41905 24.9166 13.0008C24.9166 14.9848 23.5989 18.5581 22.9114 20.3342" stroke="#009AEC" stroke-width="1.5" stroke-linecap="round" stroke-linejoin="round"/>
<path d="M4.54209 13.8095L3.75777 14.2678C2.02584 15.2819 1.94162 18.4164 3.56412 21.2689C5.18662 24.1215 7.91084 25.6123 9.64277 24.5988L10.4271 24.1404C10.6353 24.0165 10.7865 23.8158 10.8485 23.5815C10.9104 23.3473 10.878 23.0981 10.7582 22.8874L5.78016 14.1458C5.72148 14.0419 5.64275 13.9507 5.54854 13.8774C5.45434 13.8041 5.34653 13.7503 5.23137 13.719C5.11621 13.6878 4.99599 13.6796 4.87767 13.6952C4.75935 13.7107 4.64528 13.7495 4.54209 13.8095V13.8095ZM21.4557 13.8095L22.2401 14.2678C23.972 15.2813 24.0585 18.4158 22.4337 21.2684C20.8089 24.121 18.087 25.6117 16.3551 24.5982L15.5707 24.1399C15.3626 24.0159 15.2113 23.8152 15.1494 23.581C15.0875 23.3467 15.1199 23.0975 15.2396 22.8869L20.2177 14.1458C20.2764 14.0419 20.3551 13.9507 20.4493 13.8774C20.5435 13.8041 20.6513 13.7503 20.7665 13.719C20.8816 13.6878 21.0018 13.6796 21.1202 13.6952C21.2385 13.7107 21.3525 13.7495 21.4557 13.8095V13.8095Z" stroke="#009AEC" stroke-width="1.5" stroke-miterlimit="10"/>
</g>
<defs>
<clipPath id="clip0_503_906">
<rect width="26" height="26" fill="white"/>
</clipPath>
</defs>
</svg>
