<svg width="64" height="65" viewBox="0 0 64 65" fill="none" xmlns="http://www.w3.org/2000/svg">
<g id="5282542_linkedin_network_social network_linkedin logo_icon" clip-path="url(#clip0_723_61613)">
<path id="Vector" fill-rule="evenodd" clip-rule="evenodd" d="M56.1808 0.5C60.4964 0.5 64 4.00375 64 8.31925V56.6808C64 60.9963 60.4963 64.5 56.1808 64.5H7.81925C3.50375 64.5 0 60.9963 0 56.6808V8.31925C0 4.00375 3.50362 0.5 7.81925 0.5L56.1808 0.5ZM20.0576 53.4098V25.1951H10.6776V53.4098H20.0576ZM53.875 53.4098V37.2299C53.875 28.5632 49.2477 24.5316 43.0774 24.5316C38.1019 24.5316 35.8731 27.268 34.6253 29.1899V25.1951H25.2476C25.372 27.8428 25.2476 53.4098 25.2476 53.4098H34.6251V37.6527C34.6251 36.8092 34.6859 35.9663 34.9344 35.3634C35.6111 33.679 37.1553 31.9341 39.7461 31.9341C43.138 31.9341 44.497 34.5225 44.497 38.3138V53.4098H53.875ZM15.431 11.5903C12.2218 11.5903 10.125 13.7001 10.125 16.4655C10.125 19.1728 12.158 21.3407 15.3069 21.3407H15.3674C18.638 21.3407 20.6739 19.1728 20.6739 16.4655C20.6133 13.704 18.6437 11.5962 15.431 11.5903Z" fill="black"/>
</g>
<defs>
<clipPath id="clip0_723_61613">
<rect width="64" height="64" fill="white" transform="translate(0 0.5)"/>
</clipPath>
</defs>
</svg>
