<svg width="185" height="64" viewBox="0 0 185 64" fill="none" xmlns="http://www.w3.org/2000/svg">
<g clip-path="url(#clip0_543_58535)">
<path fill-rule="evenodd" clip-rule="evenodd" d="M56.1808 0C60.4964 0 64 3.50375 64 7.81925V56.1808C64 60.4963 60.4963 64 56.1808 64H7.81925C3.50375 64 0 60.4963 0 56.1808V7.81925C0 3.50375 3.50362 0 7.81925 0L56.1808 0ZM20.0576 52.9098V24.6951H10.6776V52.9098H20.0576ZM53.875 52.9098V36.7299C53.875 28.0632 49.2477 24.0316 43.0774 24.0316C38.1019 24.0316 35.8731 26.768 34.6253 28.6899V24.6951H25.2476C25.372 27.3428 25.2476 52.9098 25.2476 52.9098H34.6251V37.1527C34.6251 36.3092 34.6859 35.4663 34.9344 34.8634C35.6111 33.179 37.1553 31.4341 39.7461 31.4341C43.138 31.4341 44.497 34.0225 44.497 37.8138V52.9098H53.875ZM15.431 11.0903C12.2218 11.0903 10.125 13.2001 10.125 15.9655C10.125 18.6728 12.158 20.8407 15.3069 20.8407H15.3674C18.638 20.8407 20.6739 18.6728 20.6739 15.9655C20.6133 13.204 18.6437 11.0962 15.431 11.0903Z" fill="black"/>
</g>
<path d="M92.032 38.224H97.888V40H89.848V23.272H92.032V38.224ZM101.335 24.712C100.919 24.712 100.567 24.568 100.279 24.28C99.9914 23.992 99.8474 23.64 99.8474 23.224C99.8474 22.808 99.9914 22.456 100.279 22.168C100.567 21.88 100.919 21.736 101.335 21.736C101.735 21.736 102.071 21.88 102.343 22.168C102.631 22.456 102.775 22.808 102.775 23.224C102.775 23.64 102.631 23.992 102.343 24.28C102.071 24.568 101.735 24.712 101.335 24.712ZM102.391 26.848V40H100.207V26.848H102.391ZM112.522 26.608C114.122 26.608 115.418 27.096 116.41 28.072C117.402 29.032 117.898 30.424 117.898 32.248V40H115.738V32.56C115.738 31.248 115.41 30.248 114.754 29.56C114.098 28.856 113.202 28.504 112.066 28.504C110.914 28.504 109.994 28.864 109.306 29.584C108.634 30.304 108.298 31.352 108.298 32.728V40H106.114V26.848H108.298V28.72C108.73 28.048 109.314 27.528 110.05 27.16C110.802 26.792 111.626 26.608 112.522 26.608ZM128.809 40L123.649 34.192V40H121.465V22.24H123.649V32.68L128.713 26.848H131.761L125.569 33.4L131.785 40H128.809ZM145.817 32.92C145.817 33.336 145.793 33.776 145.745 34.24H135.233C135.313 35.536 135.753 36.552 136.553 37.288C137.369 38.008 138.353 38.368 139.505 38.368C140.449 38.368 141.233 38.152 141.857 37.72C142.497 37.272 142.945 36.68 143.201 35.944H145.553C145.201 37.208 144.497 38.24 143.441 39.04C142.385 39.824 141.073 40.216 139.505 40.216C138.257 40.216 137.137 39.936 136.145 39.376C135.169 38.816 134.401 38.024 133.841 37C133.281 35.96 133.001 34.76 133.001 33.4C133.001 32.04 133.273 30.848 133.817 29.824C134.361 28.8 135.121 28.016 136.097 27.472C137.089 26.912 138.225 26.632 139.505 26.632C140.753 26.632 141.857 26.904 142.817 27.448C143.777 27.992 144.513 28.744 145.025 29.704C145.553 30.648 145.817 31.72 145.817 32.92ZM143.561 32.464C143.561 31.632 143.377 30.92 143.009 30.328C142.641 29.72 142.137 29.264 141.497 28.96C140.873 28.64 140.177 28.48 139.409 28.48C138.305 28.48 137.361 28.832 136.577 29.536C135.809 30.24 135.369 31.216 135.257 32.464H143.561ZM147.884 33.376C147.884 32.032 148.156 30.856 148.7 29.848C149.244 28.824 149.988 28.032 150.932 27.472C151.892 26.912 152.964 26.632 154.148 26.632C155.172 26.632 156.124 26.872 157.004 27.352C157.884 27.816 158.556 28.432 159.02 29.2V22.24H161.228V40H159.02V37.528C158.588 38.312 157.948 38.96 157.1 39.472C156.252 39.968 155.26 40.216 154.124 40.216C152.956 40.216 151.892 39.928 150.932 39.352C149.988 38.776 149.244 37.968 148.7 36.928C148.156 35.888 147.884 34.704 147.884 33.376ZM159.02 33.4C159.02 32.408 158.82 31.544 158.42 30.808C158.02 30.072 157.476 29.512 156.788 29.128C156.116 28.728 155.372 28.528 154.556 28.528C153.74 28.528 152.996 28.72 152.324 29.104C151.652 29.488 151.116 30.048 150.716 30.784C150.316 31.52 150.116 32.384 150.116 33.376C150.116 34.384 150.316 35.264 150.716 36.016C151.116 36.752 151.652 37.32 152.324 37.72C152.996 38.104 153.74 38.296 154.556 38.296C155.372 38.296 156.116 38.104 156.788 37.72C157.476 37.32 158.02 36.752 158.42 36.016C158.82 35.264 159.02 34.392 159.02 33.4ZM166.046 24.712C165.63 24.712 165.278 24.568 164.99 24.28C164.702 23.992 164.558 23.64 164.558 23.224C164.558 22.808 164.702 22.456 164.99 22.168C165.278 21.88 165.63 21.736 166.046 21.736C166.446 21.736 166.782 21.88 167.054 22.168C167.342 22.456 167.486 22.808 167.486 23.224C167.486 23.64 167.342 23.992 167.054 24.28C166.782 24.568 166.446 24.712 166.046 24.712ZM167.102 26.848V40H164.918V26.848H167.102ZM177.233 26.608C178.833 26.608 180.129 27.096 181.121 28.072C182.113 29.032 182.609 30.424 182.609 32.248V40H180.449V32.56C180.449 31.248 180.121 30.248 179.465 29.56C178.809 28.856 177.913 28.504 176.777 28.504C175.625 28.504 174.705 28.864 174.017 29.584C173.345 30.304 173.009 31.352 173.009 32.728V40H170.825V26.848H173.009V28.72C173.441 28.048 174.025 27.528 174.761 27.16C175.513 26.792 176.337 26.608 177.233 26.608Z" fill="#111111"/>
<defs>
<clipPath id="clip0_543_58535">
<rect width="64" height="64" fill="white"/>
</clipPath>
</defs>
</svg>
