<svg width="26" height="26" viewBox="0 0 26 26" fill="none" xmlns="http://www.w3.org/2000/svg">
<g clip-path="url(#clip0_503_897)">
<path d="M23.1562 3.41172C22.8769 3.23099 22.5574 3.12165 22.2259 3.09332C21.8944 3.06498 21.561 3.11852 21.255 3.24922L11.2288 7.19797C10.9914 7.29457 10.7375 7.34424 10.4812 7.34422H4.0625C3.52378 7.34422 3.00712 7.55822 2.62619 7.93916C2.24526 8.32009 2.03125 8.83675 2.03125 9.37547V9.53797H0V14.413H2.03125V14.6242C2.04398 15.1544 2.26359 15.6587 2.64315 16.0291C3.02272 16.3996 3.53212 16.6069 4.0625 16.6067L6.5 21.7742C6.66505 22.1222 6.9249 22.4166 7.24971 22.6235C7.57452 22.8305 7.95112 22.9416 8.33625 22.9442H9.36C9.8959 22.9399 10.4084 22.724 10.7858 22.3436C11.1632 21.9631 11.375 21.4489 11.375 20.913V16.8017L21.255 20.7505C21.498 20.8472 21.7572 20.8968 22.0188 20.8967C22.4245 20.8902 22.8197 20.766 23.1562 20.5392C23.4235 20.3588 23.644 20.1172 23.7994 19.8347C23.9548 19.5521 24.0407 19.2366 24.05 18.9142V5.08547C24.0485 4.75481 23.9663 4.42951 23.8106 4.13782C23.6548 3.84614 23.4302 3.59689 23.1562 3.41172ZM9.34375 9.37547V14.6242H4.0625V9.37547H9.34375ZM9.34375 20.913H8.32L6.32125 16.6067H9.34375V20.913ZM11.9762 14.868C11.7833 14.7694 11.5821 14.6878 11.375 14.6242V9.26172C11.5801 9.21939 11.7813 9.15959 11.9762 9.08297L22.0188 5.08547V18.8655L11.9762 14.868ZM24.0987 9.94422V14.0067C24.6375 14.0067 25.1541 13.7927 25.5351 13.4118C25.916 13.0308 26.13 12.5142 26.13 11.9755C26.13 11.4367 25.916 10.9201 25.5351 10.5392C25.1541 10.1582 24.6375 9.94422 24.0987 9.94422Z" fill="#009AEC"/>
</g>
<defs>
<clipPath id="clip0_503_897">
<rect width="26" height="26" fill="white"/>
</clipPath>
</defs>
</svg>
