<svg width="24" height="24" viewBox="0 0 24 24" fill="none" xmlns="http://www.w3.org/2000/svg">
<mask id="mask0_1196_1722" style="mask-type:alpha" maskUnits="userSpaceOnUse" x="3" y="3" width="18" height="18">
<path d="M19.2232 15.2686L16.6832 14.9786C16.0732 14.9086 15.4732 15.1186 15.0432 15.5486L13.2032 17.3886C10.3732 15.9486 8.0532 13.6386 6.6132 10.7986L8.4632 8.94855C8.8932 8.51855 9.1032 7.91855 9.0332 7.30855L8.7432 4.78855C8.6232 3.77855 7.7732 3.01855 6.7532 3.01855H5.0232C3.8932 3.01855 2.9532 3.95855 3.0232 5.08855C3.5532 13.6286 10.3832 20.4486 18.9132 20.9786C20.0432 21.0486 20.9832 20.1086 20.9832 18.9786V17.2486C20.9932 16.2386 20.2332 15.3886 19.2232 15.2686Z" fill="black"/>
</mask>
<g mask="url(#mask0_1196_1722)">
<rect width="24" height="24" fill="#858C94"/>
</g>
</svg>
