<svg width="64" height="64" viewBox="0 0 64 64" fill="none" xmlns="http://www.w3.org/2000/svg">
<mask id="mask0_1009_51895" style="mask-type:alpha" maskUnits="userSpaceOnUse" x="5" y="5" width="54" height="54">
<path fill-rule="evenodd" clip-rule="evenodd" d="M53.334 5.3335H21.334C18.4007 5.3335 16.0007 7.7335 16.0007 10.6668V42.6668C16.0007 45.6002 18.4007 48.0002 21.334 48.0002H53.334C56.2673 48.0002 58.6673 45.6002 58.6673 42.6668V10.6668C58.6673 7.7335 56.2673 5.3335 53.334 5.3335ZM30.6673 25.3335C30.6673 27.5468 28.8807 29.3335 26.6673 29.3335H24.0007V32.6668C24.0007 33.7602 23.094 34.6668 22.0007 34.6668C20.9073 34.6668 20.0007 33.7602 20.0007 32.6668V21.3335C20.0007 19.8668 21.2007 18.6668 22.6673 18.6668H26.6673C28.8807 18.6668 30.6673 20.4535 30.6673 22.6668V25.3335ZM40.0007 34.6668C42.214 34.6668 44.0007 32.8802 44.0007 30.6668V22.6668C44.0007 20.4535 42.214 18.6668 40.0007 18.6668H34.6673C33.9207 18.6668 33.334 19.2535 33.334 20.0002V33.3335C33.334 34.0802 33.9207 34.6668 34.6673 34.6668H40.0007ZM54.6673 20.6668C54.6673 21.7602 53.7607 22.6668 52.6673 22.6668H50.6673V25.3335H52.6673C53.7607 25.3335 54.6673 26.2402 54.6673 27.3335C54.6673 28.4268 53.7607 29.3335 52.6673 29.3335H50.6673V32.6668C50.6673 33.7602 49.7607 34.6668 48.6673 34.6668C47.574 34.6668 46.6673 33.7602 46.6673 32.6668V21.3335C46.6673 19.8668 47.8673 18.6668 49.334 18.6668H52.6673C53.7607 18.6668 54.6673 19.5735 54.6673 20.6668ZM26.6673 25.3335H24.0007V22.6668H26.6673V25.3335ZM8.00065 16.0002C6.53398 16.0002 5.33398 17.2002 5.33398 18.6668V53.3335C5.33398 56.2668 7.73398 58.6668 10.6673 58.6668H45.334C46.8007 58.6668 48.0007 57.4668 48.0007 56.0002C48.0007 54.5335 46.8007 53.3335 45.334 53.3335H13.334C11.8673 53.3335 10.6673 52.1335 10.6673 50.6668V18.6668C10.6673 17.2002 9.46732 16.0002 8.00065 16.0002ZM40.0007 30.6668H37.334V22.6668H40.0007V30.6668Z" fill="black"/>
</mask>
<g mask="url(#mask0_1009_51895)">
<rect width="64" height="64" fill="white"/>
</g>
</svg>
