<svg width="26" height="26" viewBox="0 0 26 26" fill="none" xmlns="http://www.w3.org/2000/svg">
<g clip-path="url(#clip0_503_422)">
<path d="M23.1562 3.41269C22.8769 3.23197 22.5574 3.12263 22.2259 3.09429C21.8944 3.06596 21.561 3.11949 21.255 3.2502L11.2288 7.19894C10.9914 7.29555 10.7375 7.34522 10.4812 7.34519H4.0625C3.52378 7.34519 3.00712 7.5592 2.62619 7.94013C2.24526 8.32107 2.03125 8.83772 2.03125 9.37644V9.53894H0V14.4139H2.03125V14.6252C2.04398 15.1554 2.26359 15.6596 2.64315 16.0301C3.02272 16.4005 3.53212 16.6078 4.0625 16.6077L6.5 21.7752C6.66505 22.1232 6.9249 22.4175 7.24971 22.6245C7.57452 22.8315 7.95112 22.9426 8.33625 22.9452H9.36C9.8959 22.9409 10.4084 22.725 10.7858 22.3445C11.1632 21.9641 11.375 21.4499 11.375 20.9139V16.8027L21.255 20.7514C21.498 20.8482 21.7572 20.8978 22.0188 20.8977C22.4245 20.8911 22.8197 20.767 23.1562 20.5402C23.4235 20.3597 23.644 20.1182 23.7994 19.8356C23.9548 19.5531 24.0407 19.2376 24.05 18.9152V5.08645C24.0485 4.75578 23.9663 4.43048 23.8106 4.1388C23.6548 3.84711 23.4302 3.59786 23.1562 3.41269ZM9.34375 9.37644V14.6252H4.0625V9.37644H9.34375ZM9.34375 20.9139H8.32L6.32125 16.6077H9.34375V20.9139ZM11.9762 14.8689C11.7833 14.7703 11.5821 14.6888 11.375 14.6252V9.26269C11.5801 9.22037 11.7813 9.16057 11.9762 9.08394L22.0188 5.08645V18.8664L11.9762 14.8689ZM24.0987 9.94519V14.0077C24.6375 14.0077 25.1541 13.7937 25.5351 13.4128C25.916 13.0318 26.13 12.5152 26.13 11.9764C26.13 11.4377 25.916 10.9211 25.5351 10.5401C25.1541 10.1592 24.6375 9.94519 24.0987 9.94519Z" fill="#E8544B"/>
</g>
<defs>
<clipPath id="clip0_503_422">
<rect width="26" height="26" fill="white"/>
</clipPath>
</defs>
</svg>
