<svg width="191" height="64" viewBox="0 0 191 64" fill="none" xmlns="http://www.w3.org/2000/svg">
<g clip-path="url(#clip0_543_58538)">
<path d="M32.4475 28.3038L20.6212 11.7559H14.3135L28.9633 32.253L30.8074 34.8315L43.3469 52.3912H49.6546L34.2838 30.8823L32.4475 28.3038Z" fill="black"/>
<path d="M58.6467 0H5.35334C2.39666 0 0 2.39666 0 5.35334V58.6467C0 61.6033 2.39666 64 5.35334 64H58.6467C61.6033 64 64 61.6033 64 58.6467V5.35334C64 2.39666 61.6033 0 58.6467 0ZM41.4119 55.2727L28.7209 37.1985L12.8333 55.2727H8.72727L26.9 34.6046L8.72727 8.72727H22.5881L34.603 25.8384L49.657 8.72727H53.7628L36.4334 28.4382L55.2727 55.2727H41.4119Z" fill="black"/>
</g>
<path d="M101.144 23.272V25.048H96.584V40H94.4V25.048H89.816V23.272H101.144ZM121.352 26.848L117.248 40H114.992L111.824 29.56L108.656 40H106.4L102.272 26.848H104.504L107.528 37.888L110.792 26.848H113.024L116.216 37.912L119.192 26.848H121.352ZM124.648 24.712C124.232 24.712 123.88 24.568 123.592 24.28C123.304 23.992 123.16 23.64 123.16 23.224C123.16 22.808 123.304 22.456 123.592 22.168C123.88 21.88 124.232 21.736 124.648 21.736C125.048 21.736 125.384 21.88 125.656 22.168C125.944 22.456 126.088 22.808 126.088 23.224C126.088 23.64 125.944 23.992 125.656 24.28C125.384 24.568 125.048 24.712 124.648 24.712ZM125.704 26.848V40H123.52V26.848H125.704ZM132.09 28.648V36.4C132.09 37.04 132.226 37.496 132.498 37.768C132.77 38.024 133.242 38.152 133.914 38.152H135.522V40H133.554C132.338 40 131.426 39.72 130.818 39.16C130.21 38.6 129.906 37.68 129.906 36.4V28.648H128.202V26.848H129.906V23.536H132.09V26.848H135.522V28.648H132.09ZM140.832 28.648V36.4C140.832 37.04 140.968 37.496 141.24 37.768C141.512 38.024 141.984 38.152 142.656 38.152H144.264V40H142.296C141.08 40 140.168 39.72 139.56 39.16C138.952 38.6 138.648 37.68 138.648 36.4V28.648H136.944V26.848H138.648V23.536H140.832V26.848H144.264V28.648H140.832ZM158.911 32.92C158.911 33.336 158.887 33.776 158.839 34.24H148.327C148.407 35.536 148.847 36.552 149.647 37.288C150.463 38.008 151.447 38.368 152.599 38.368C153.543 38.368 154.327 38.152 154.951 37.72C155.591 37.272 156.039 36.68 156.295 35.944H158.647C158.295 37.208 157.591 38.24 156.535 39.04C155.479 39.824 154.167 40.216 152.599 40.216C151.351 40.216 150.231 39.936 149.239 39.376C148.263 38.816 147.495 38.024 146.935 37C146.375 35.96 146.095 34.76 146.095 33.4C146.095 32.04 146.367 30.848 146.911 29.824C147.455 28.8 148.215 28.016 149.191 27.472C150.183 26.912 151.319 26.632 152.599 26.632C153.847 26.632 154.951 26.904 155.911 27.448C156.871 27.992 157.607 28.744 158.119 29.704C158.647 30.648 158.911 31.72 158.911 32.92ZM156.655 32.464C156.655 31.632 156.471 30.92 156.103 30.328C155.735 29.72 155.231 29.264 154.591 28.96C153.967 28.64 153.271 28.48 152.503 28.48C151.399 28.48 150.455 28.832 149.671 29.536C148.903 30.24 148.463 31.216 148.351 32.464H156.655ZM163.977 28.984C164.361 28.232 164.905 27.648 165.609 27.232C166.329 26.816 167.201 26.608 168.225 26.608V28.864H167.649C165.201 28.864 163.977 30.192 163.977 32.848V40H161.793V26.848H163.977V28.984ZM183.985 31.648L189.121 40H186.649L182.641 33.472L178.825 40H176.401L181.513 31.648L176.377 23.272H178.825L182.857 29.824L186.697 23.272H189.145L183.985 31.648Z" fill="#111111"/>
<defs>
<clipPath id="clip0_543_58538">
<rect width="64" height="64" fill="white"/>
</clipPath>
</defs>
</svg>
