<svg width="65" height="64" viewBox="0 0 65 64" fill="none" xmlns="http://www.w3.org/2000/svg">
<g id="11053969_x_logo_twitter_new_brand_icon" clip-path="url(#clip0_723_61617)">
<g id="Group">
<path id="Vector" d="M32.9475 28.3038L21.1212 11.7559H14.8135L29.4633 32.253L31.3074 34.8315L43.8469 52.3912H50.1546L34.7838 30.8823L32.9475 28.3038Z" fill="black"/>
<path id="Vector_2" d="M59.1467 0H5.85334C2.89666 0 0.5 2.39666 0.5 5.35334V58.6467C0.5 61.6033 2.89666 64 5.85334 64H59.1467C62.1033 64 64.5 61.6033 64.5 58.6467V5.35334C64.5 2.39666 62.1033 0 59.1467 0ZM41.9119 55.2727L29.2209 37.1985L13.3333 55.2727H9.22727L27.4 34.6046L9.22727 8.72727H23.0881L35.103 25.8384L50.157 8.72727H54.2628L36.9334 28.4382L55.7727 55.2727H41.9119Z" fill="black"/>
</g>
</g>
<defs>
<clipPath id="clip0_723_61617">
<rect width="64" height="64" fill="white" transform="translate(0.5)"/>
</clipPath>
</defs>
</svg>
