<svg width="64" height="64" viewBox="0 0 64 64" fill="none" xmlns="http://www.w3.org/2000/svg">
<mask id="mask0_1009_51888" style="mask-type:alpha" maskUnits="userSpaceOnUse" x="6" y="9" width="52" height="46">
<path fill-rule="evenodd" clip-rule="evenodd" d="M52.079 54.6766C56.1857 54.6766 58.7457 50.2232 56.6924 46.6766L36.6124 11.9832C34.559 8.43658 29.439 8.43658 27.3857 11.9832L7.30569 46.6766C5.25235 50.2232 7.81235 54.6766 11.919 54.6766H52.079ZM31.999 36.0099C30.5324 36.0099 29.3324 34.8099 29.3324 33.3432V28.0099C29.3324 26.5432 30.5324 25.3432 31.999 25.3432C33.4657 25.3432 34.6657 26.5432 34.6657 28.0099V33.3432C34.6657 34.8099 33.4657 36.0099 31.999 36.0099ZM29.3324 41.3432V46.6766H34.6657V41.3432H29.3324Z" fill="black"/>
</mask>
<g mask="url(#mask0_1009_51888)">
<rect width="64" height="64" fill="white"/>
</g>
</svg>
