<svg width="603" height="380" viewBox="0 0 603 380" fill="none" xmlns="http://www.w3.org/2000/svg">
<path d="M141.498 10.281C140.461 12.8741 139.486 15.4978 138.601 18.1824C132.504 35.9682 129.18 55.0658 129.18 74.9261C129.18 97.7457 133.51 119.558 141.467 139.571C167.261 204.644 230.769 250.71 304.826 250.71C378.883 250.71 442.421 204.644 468.214 139.571H602.852C573.278 277.038 451.11 380 304.887 380C158.663 380 36.4949 277.038 6.85995 139.571C2.37812 118.735 0 97.105 0 74.9261C0 52.7473 2.37812 31.1175 6.85995 10.281C7.62217 6.80313 8.41487 3.41684 9.29904 0H146.01C144.394 3.35583 142.9 6.83365 141.528 10.281H141.498Z" fill="url(#paint0_linear_1410_51776)"/>
<defs>
<linearGradient id="paint0_linear_1410_51776" x1="301.426" y1="380" x2="301.426" y2="0" gradientUnits="userSpaceOnUse">
<stop stop-color="#566BE3"/>
<stop offset="1" stop-color="#566BE3" stop-opacity="0"/>
</linearGradient>
</defs>
</svg>
