<svg width="388" height="428" viewBox="0 0 388 428" fill="none" xmlns="http://www.w3.org/2000/svg">
<g clip-path="url(#clip0_1040_55254)">
<path d="M137.884 500C125.268 500 112.641 499.031 100.058 497.094C68.1206 492.177 37.7932 481.247 9.92055 464.61C-17.9521 447.977 -41.9679 426.474 -61.4602 400.699C-81.6408 374.014 -96.0597 343.898 -104.32 311.185C-112.58 278.475 -114.186 245.125 -109.095 212.059C-104.178 180.122 -93.248 149.794 -76.6111 121.922C-59.9778 94.0489 -38.4751 70.0331 -12.7003 50.5408C13.9851 30.3602 44.1013 15.9413 76.8142 7.68108C109.527 -0.579111 142.878 -2.18526 175.944 2.90634C207.881 7.82312 238.208 18.7529 266.081 35.3899C293.954 52.0231 317.969 73.5258 337.462 99.3007C357.642 125.986 372.061 156.102 380.322 188.815C388.582 221.528 390.188 254.882 385.096 287.945C380.18 319.882 369.25 350.209 352.613 378.082C335.979 405.955 314.477 429.97 288.702 449.463C262.017 469.643 231.9 484.062 199.187 492.323C178.927 497.44 158.415 500.004 137.884 500.004V500ZM138.434 1.79187C118.053 1.79187 97.5303 4.3231 77.2549 9.44383C-55.3852 42.9398 -136.05 178.1 -102.557 310.744C-86.3318 374.997 -46.0579 429.089 10.8529 463.051C67.7601 497.013 134.486 506.782 198.743 490.556C331.387 457.064 412.048 321.9 378.555 189.26C362.33 125.006 322.056 70.9145 265.145 36.9523C226.197 13.705 182.645 1.79551 138.434 1.79551V1.79187Z" fill="#685BFB"/>
<path d="M146.841 492.865C133.118 492.865 119.144 491.732 105.184 489.463C73.0496 484.237 42.3434 473.285 16.3792 457.792C-8.82748 442.75 -32.3552 420.523 -51.6617 393.521C-70.8663 366.66 -85.1359 336.147 -92.9299 305.281C-100.655 274.688 -101.824 243.082 -96.4044 211.338C-91.2036 180.857 -80.2155 151.706 -63.7461 124.686C-47.324 97.7454 -26.4259 74.5091 -1.62349 55.625C24.0822 36.0526 52.6578 22.2018 83.3166 14.4625C113.382 6.87241 147.009 5.74337 180.57 11.2028C212.704 16.4292 243.411 27.3808 269.375 42.8778C294.581 57.9195 318.109 80.147 337.416 107.149C356.62 134.009 370.89 164.523 378.684 195.389C386.409 225.979 387.578 257.588 382.158 289.332C376.958 319.813 365.969 348.964 349.5 375.984C333.078 402.924 312.18 426.161 287.377 445.045C261.672 464.617 233.096 478.468 202.437 486.207C184.879 490.64 166.108 492.869 146.841 492.869V492.865ZM139.288 9.55296C120.269 9.55296 101.516 11.7382 83.7609 16.2216C24.2206 31.2596 -28.979 71.1365 -62.1909 125.633C-96.0366 181.156 -106.325 244.797 -91.1635 304.833C-75.2732 367.768 -33.7064 425.778 17.3116 456.226C71.6693 488.666 142.434 499.475 201.989 484.437C261.53 469.403 314.729 429.526 347.945 375.03C381.787 319.507 392.076 255.865 376.918 195.83C361.027 132.895 319.46 74.8842 268.442 44.4366C230.292 21.6701 184.06 9.55661 139.291 9.55661L139.288 9.55296Z" fill="#685BFB"/>
<path d="M156.071 485.854C141.346 485.854 125.984 484.514 110.301 481.83C77.9707 476.294 46.9039 465.331 22.8299 450.964C-0.242561 437.193 -22.6157 414.845 -41.8713 386.332C-60.118 359.311 -74.2091 328.427 -81.5479 299.363C-88.7409 270.882 -89.473 241.021 -83.7258 210.606C-78.2409 181.586 -67.1945 153.604 -50.889 127.439C-17.6698 74.1416 33.614 35.4302 89.8146 21.237C117.724 14.1897 150.703 13.5851 185.189 19.4925C217.52 25.0284 248.587 35.991 272.661 50.359C295.733 64.1296 318.106 86.4772 337.362 114.991C355.608 142.011 369.7 172.896 377.038 201.96C384.231 230.441 384.963 260.302 379.216 290.717C373.731 319.737 362.685 347.718 346.379 373.883C313.164 427.188 261.88 465.9 205.679 480.093C190.463 483.935 173.731 485.862 156.075 485.862L156.071 485.854ZM90.259 23.0034C-27.6745 52.7846 -108.721 184.296 -79.7778 298.922C-64.2517 360.404 -21.6724 422.286 23.7659 449.405C60.6927 471.443 110.906 483.899 156.362 483.899C173.677 483.899 190.295 482.092 205.231 478.319C260.98 464.242 311.864 425.822 344.832 372.914C378.069 319.573 389.163 257.425 375.272 202.4C359.746 140.919 317.167 79.0365 271.728 51.9178C220.736 21.4884 144.42 9.32752 90.259 23.0034Z" fill="#685BFB"/>
<path d="M165.139 478.844C149.467 478.844 132.655 477.296 115.432 474.204C82.9009 468.358 51.5063 457.403 29.2934 444.146C8.54096 431.763 -13.2495 408.679 -32.068 379.153C-49.3787 351.991 -63.2622 320.757 -70.153 293.459C-83.1297 242.074 -71.4168 182.573 -38.0191 130.211C-22.249 105.489 -2.00645 83.2106 20.5233 65.7906C44.2659 47.431 69.7676 34.7238 96.3182 28.0188C121.732 21.6015 154.937 21.5177 189.814 27.7857C222.344 33.6312 253.739 44.5865 275.952 57.8436C296.704 70.2266 318.495 93.31 337.313 122.836C354.624 149.999 368.507 181.233 375.398 208.53C388.375 259.916 376.662 319.416 343.264 371.778C327.494 396.5 307.252 418.779 284.722 436.199C260.979 454.558 235.478 467.266 208.927 473.971C196.063 477.219 181.2 478.844 165.139 478.844ZM96.544 28.9002L96.7662 29.7816C-13.122 57.5304 -94.9263 187.916 -68.3866 293.011C-55.1295 345.515 -14.6189 415.818 30.2258 442.58C62.3888 461.773 116.521 477.074 165.153 477.077C180.424 477.077 195.142 475.569 208.479 472.204C318.364 444.455 400.168 314.073 373.632 208.974C360.375 156.471 319.864 86.1679 275.019 59.4061C232.757 34.1848 152.588 15.6868 96.7662 29.7852L96.544 28.9038V28.9002Z" fill="#685BFB"/>
<path d="M174.191 471.963C157.834 471.963 139.649 470.161 120.554 466.57C87.8228 460.411 56.1187 449.477 35.7487 437.32C16.8937 426.066 -3.71304 402.855 -22.2693 371.963C-38.6659 344.67 -52.309 313.111 -58.7628 287.544C-64.8996 263.248 -64.7576 236.872 -58.3403 209.156C-52.3819 183.41 -40.9057 157.064 -25.1538 132.968C-9.59497 109.163 10.0284 87.6898 31.5967 70.8671C54.3523 53.1157 78.317 40.9804 102.821 34.7925C126.166 28.896 158.705 29.3513 194.44 36.0745C227.172 42.2333 258.876 53.1667 279.246 65.3239C298.101 76.5779 318.707 99.7887 337.264 130.677C353.66 157.971 367.303 189.529 373.757 215.096C379.894 239.392 379.748 265.768 373.335 293.484C367.376 319.23 355.9 345.577 340.148 369.673C324.589 393.477 304.966 414.951 283.398 431.773C260.642 449.525 236.677 461.66 212.174 467.848C201.302 470.594 188.442 471.96 174.194 471.96L174.191 471.963ZM103.265 36.5589C55.8492 48.534 8.41137 84.9437 -23.6315 133.962C-56.654 184.485 -68.8185 240.299 -57 287.096C-50.5863 312.5 -37.0197 343.876 -20.7105 371.024C-2.30357 401.661 18.0774 424.649 36.681 435.754C78.1022 460.476 161.764 478.698 211.726 466.081C259.142 454.106 306.579 417.697 338.622 368.678C371.645 318.156 383.809 262.341 371.991 215.544C365.577 190.137 352.01 158.765 335.701 131.617C317.294 100.98 296.913 77.991 278.31 66.8863C236.885 42.1641 153.227 23.9428 103.265 36.5589Z" fill="#685BFB"/>
<path d="M183.115 465.087C166.151 465.087 146.469 463.022 125.68 458.936C92.2459 452.365 61.0408 441.734 42.2077 430.495C25.1629 420.323 5.74707 396.984 -12.4705 364.778C-27.9711 337.375 -41.3448 305.514 -47.376 281.633C-52.9884 259.409 -52.4057 234.778 -45.6497 208.428C-39.4145 184.113 -27.8801 158.972 -12.2848 135.729C19.7981 87.8973 65.2619 52.7005 109.327 41.574C130.324 36.2712 163.033 37.2909 199.068 44.3711C232.502 50.9414 263.707 61.5725 282.54 72.8119C299.585 82.9842 319.001 106.323 337.218 138.529C352.719 165.932 366.092 197.793 372.124 221.674C377.736 243.898 377.153 268.529 370.397 294.879C364.162 319.194 352.628 344.335 337.032 367.578C304.949 415.409 259.486 450.606 215.42 461.733C206.537 463.976 195.557 465.087 183.115 465.087ZM141.476 40.0334C129.617 40.0334 118.793 41.0605 109.768 43.3404C66.1287 54.3613 21.0656 89.2777 -10.777 136.745C-43.7012 185.829 -56.3974 238.475 -45.6132 281.189C-39.6184 304.924 -26.314 336.61 -10.8899 363.885C7.17111 395.822 26.3575 418.924 43.1364 428.936C73.941 447.321 136.563 463.273 183.261 463.277C195.12 463.277 205.944 462.25 214.969 459.97C258.608 448.949 303.671 414.033 335.514 366.566C368.438 317.482 381.134 264.836 370.35 222.122C364.355 198.386 351.051 166.701 335.627 139.425C317.566 107.488 298.379 84.3864 281.6 74.3744C250.796 55.9893 188.17 40.0334 141.476 40.0334Z" fill="#685BFB"/>
<path d="M191.699 458.35C174.538 458.35 153.589 455.968 130.804 451.306C97.1513 444.415 65.6803 433.828 48.6646 423.677C33.3643 414.547 15.1358 391.081 -2.6702 357.6C-17.2931 330.098 -30.3717 297.964 -35.9841 275.73C-41.0757 255.567 -40.0559 232.681 -32.9576 207.703C-26.4528 184.817 -14.8529 160.885 0.582161 138.497C15.7222 116.532 34.1073 96.6642 53.7489 81.0434C74.2392 64.7452 95.7054 53.4403 115.828 48.3596C134.836 43.5594 166.86 45.1291 203.689 52.6718C237.341 59.5626 268.812 70.15 285.828 80.3005C301.128 89.4311 319.357 112.897 337.163 146.378C351.786 173.88 364.865 206.013 370.477 228.248C375.569 248.411 374.549 271.297 367.45 296.275C360.946 319.161 349.346 343.093 333.911 365.481C318.771 387.446 300.385 407.314 280.744 422.934C260.254 439.236 238.787 450.538 218.665 455.618C211.417 457.447 202.276 458.353 191.699 458.353V458.35ZM142.797 47.4345C132.381 47.4345 123.392 48.3232 116.272 50.1187C77.0217 60.0288 33.266 94.2896 2.07905 139.524C-30.2661 186.445 -43.8364 237.193 -34.2214 275.278C-28.6381 297.382 -15.625 329.359 -1.06405 356.74C16.5854 389.93 34.5771 413.148 49.597 422.108C66.4488 432.163 97.7049 442.667 131.168 449.518C167.738 457.006 199.464 458.583 218.217 453.848C257.467 443.938 301.223 409.677 332.41 364.443C364.755 317.522 378.326 266.774 368.711 228.689C363.127 206.585 350.114 174.608 335.553 147.227C317.904 114.037 299.912 90.8224 284.892 81.8593C268.04 71.8035 236.784 61.2998 203.321 54.4491C180.638 49.8055 159.813 47.4345 142.794 47.4345H142.797Z" fill="#685BFB"/>
<path d="M199.905 451.681C182.849 451.681 160.756 448.96 135.925 443.672C102.054 436.461 70.3387 425.932 55.1186 416.852C36.748 405.889 17.1647 370.518 7.12716 350.414C-8.77407 318.56 -20.2648 286.983 -24.5988 269.818C-29.1732 251.703 -27.7164 230.561 -20.2684 206.971C-13.4942 185.512 -1.83595 162.786 13.4425 141.257C44.7059 97.2031 86.4294 64.2024 122.325 55.1373C139.37 50.8324 170.707 52.9557 208.307 60.9609C242.178 68.1722 273.893 78.7014 289.114 87.781C307.484 98.7436 327.067 134.115 337.105 154.219C353.006 186.073 364.497 217.65 368.831 234.815C373.405 252.93 371.949 274.072 364.501 297.662C357.726 319.121 346.068 341.847 330.79 363.376C299.526 407.43 257.803 440.431 221.907 449.496C216.116 450.956 208.675 451.677 199.901 451.677L199.905 451.681ZM122.773 56.8964C87.2779 65.8595 45.9551 98.5834 14.9321 142.303C-17.3256 187.759 -31.4422 235.259 -22.8324 269.367C-18.5239 286.437 -7.08415 317.864 8.7588 349.598C25.9348 384.008 42.7319 407.339 56.0546 415.286C71.1145 424.274 102.618 434.716 136.307 441.891C173.642 449.842 204.683 451.969 221.466 447.733C256.961 438.77 298.284 406.046 329.307 362.327C361.565 316.87 375.682 269.37 367.072 235.263C362.763 218.192 351.324 186.765 335.481 155.032C318.305 120.621 301.507 97.2905 288.185 89.3435C273.125 80.3549 241.621 69.9131 207.932 62.7382C170.597 54.7876 139.556 52.6607 122.773 56.8964Z" fill="#685BFB"/>
<path d="M207.684 445.078C191.069 445.078 167.956 441.986 141.052 436.042C106.962 428.507 75.0253 418.054 61.5788 410.03C46.2166 400.863 28.8221 368.642 16.9308 343.228C2.51188 312.401 -9.14634 279.991 -13.2072 263.904C-17.2681 247.824 -15.3706 228.419 -7.56934 206.232C-0.525599 186.193 11.1909 164.679 26.3164 144.014C41.0412 123.892 58.188 105.631 75.8957 91.2082C94.4301 76.1082 112.735 65.9796 128.833 61.9151C143.933 58.1019 174.585 60.7788 212.935 69.2538C247.025 76.7893 278.962 87.242 292.409 95.2654C307.771 104.432 325.165 136.654 337.057 162.068C351.476 192.894 363.134 225.305 367.195 241.392C371.256 257.472 369.358 276.877 361.557 299.064C354.513 319.103 342.797 340.616 327.671 361.285C312.946 381.407 295.8 399.669 278.092 414.091C259.557 429.191 241.252 439.32 225.155 443.384C220.646 444.521 214.753 445.082 207.68 445.082L207.684 445.078ZM146.085 62.0681C139.238 62.0681 133.549 62.5962 129.274 63.6778C98.0394 71.5629 58.2026 103.518 27.7805 145.085C-4.39711 189.052 -19.06 233.303 -11.4445 263.456C-7.40544 279.459 4.20544 311.731 18.577 342.452C35.2285 378.049 50.8311 401.493 62.5075 408.461C75.801 416.393 107.523 426.762 141.442 434.261C178.966 442.554 210.091 445.304 224.707 441.614C255.941 433.729 295.778 401.774 326.2 360.203C358.377 316.236 373.04 271.985 365.425 241.833C361.386 225.83 349.775 193.557 335.403 162.837C318.752 127.239 303.149 103.795 291.473 96.8279C278.179 88.8955 246.457 78.5265 212.538 71.0275C185.992 65.1602 162.646 62.0681 146.085 62.0681Z" fill="#685BFB"/>
<path d="M214.976 438.562C193.269 438.562 161.092 431.824 146.177 428.408C111.862 420.548 79.7316 410.183 68.0369 403.205C54.707 395.251 38.2194 362.29 26.736 336.042C13.1547 304.997 1.88986 272.659 -1.81411 257.992C-5.36512 243.934 -3.02693 226.27 5.13128 205.492C12.4409 186.874 24.2157 166.569 39.1882 146.771C69.7378 106.373 107.477 75.7291 135.339 68.6927C154.048 63.9689 199.071 73.3108 217.562 77.5465C251.877 85.4061 284.007 95.7714 295.702 102.75C309.032 110.704 325.52 143.664 337.003 169.913C350.584 200.954 361.849 233.296 365.553 247.962C369.104 262.02 366.766 279.684 358.608 300.462C351.298 319.081 339.523 339.385 324.551 359.183C294.001 399.581 256.262 430.225 228.4 437.262C224.78 438.176 220.18 438.562 214.972 438.562H214.976ZM135.779 70.4554C108.296 77.3972 70.9506 107.783 40.6377 147.867C25.7635 167.535 14.0725 187.693 6.8212 206.155C-1.08206 226.285 -3.45668 244.054 -0.051358 257.544C3.63441 272.142 14.8592 304.356 28.4004 335.31C44.4837 372.069 58.8917 395.626 68.9656 401.639C80.5146 408.533 112.43 418.807 146.582 426.631C184.82 435.39 215.242 438.704 227.952 435.495C255.435 428.554 292.781 398.168 323.094 358.083C337.968 338.416 349.659 318.257 356.91 299.796C364.814 279.666 367.188 261.897 363.783 248.406C360.097 233.809 348.872 201.595 335.331 170.641C319.248 133.882 304.84 110.325 294.762 104.312C283.213 97.4213 251.298 87.1434 217.146 79.3202C178.908 70.5611 148.486 67.2468 135.776 70.4554H135.779Z" fill="#685BFB"/>
<path d="M222.007 432.04C207.264 432.04 182.115 428.081 151.303 420.778C116.762 412.591 84.4608 402.331 74.4961 396.384C63.1474 389.61 47.5922 355.924 36.5386 328.86C24.2721 298.82 12.9927 265.619 9.57276 252.085C6.53164 240.034 9.30689 224.111 17.8257 204.753C25.3975 187.555 37.2306 168.46 52.0537 149.532C66.1631 131.515 82.4941 114.412 98.0384 101.377C114.61 87.4826 129.753 78.5231 141.834 75.4747C152.935 72.6703 182.971 76.5491 222.178 85.8437C256.719 94.031 289.021 104.291 298.989 110.238C310.338 117.012 325.893 150.698 336.947 177.762C349.213 207.802 360.492 241.003 363.912 254.537C366.953 266.588 364.178 282.511 355.659 301.869C348.088 319.067 336.254 338.162 321.431 357.09C307.322 375.107 290.991 392.21 275.447 405.245C258.875 419.139 243.732 428.099 231.651 431.147C229.273 431.748 226.028 432.043 222.01 432.043L222.007 432.04ZM151.566 76.378C147.687 76.378 144.566 76.662 142.278 77.2375C118.94 83.1303 83.2552 112.635 53.4851 150.654C38.7566 169.465 27 188.426 19.4901 205.485C11.2554 224.195 8.43644 240.154 11.3355 251.637C17.578 276.363 55.2733 382.792 75.4248 394.818C85.2511 400.681 117.338 410.854 151.722 419.005C182.443 426.289 207.424 430.237 221.916 430.24C225.795 430.24 228.916 429.956 231.203 429.381C254.541 423.488 290.226 393.984 319.996 355.964C334.725 337.153 346.481 318.192 353.991 301.133C362.226 282.424 365.045 266.464 362.146 254.981C355.903 230.255 318.208 123.827 298.057 111.801C288.23 105.937 256.144 95.7646 221.759 87.6137C191.038 80.3296 166.057 76.378 151.566 76.378Z" fill="#685BFB"/>
<path d="M228.114 425.658C209.165 425.658 169.485 416.342 156.428 413.144C121.089 404.487 89.3447 394.566 80.9498 389.558C71.535 383.938 56.9304 349.539 46.3393 321.67C34.2294 289.813 23.6456 256.805 20.9614 246.17C18.4229 236.111 21.6425 221.925 30.5291 204.002C38.3559 188.218 50.2508 170.335 64.9247 152.285C78.8337 135.178 94.5237 118.902 109.114 106.457C124.695 93.1635 138.261 84.7941 148.339 82.2483C162.029 78.7919 211.86 90.4684 226.807 94.1323C262.146 102.789 293.89 112.71 302.285 117.718C311.7 123.338 326.304 157.737 336.895 185.606C349.005 217.463 359.589 250.471 362.273 261.106C364.812 271.165 361.592 285.351 352.706 303.274C344.879 319.059 332.984 336.941 318.31 354.991C304.401 372.098 288.711 388.374 274.121 400.819C258.54 414.113 244.974 422.482 234.892 425.028C233.162 425.465 230.853 425.662 228.111 425.662L228.114 425.658ZM155.138 83.4356C152.462 83.4356 150.327 83.625 148.787 84.0147C138.975 86.4913 125.667 94.7332 110.297 107.845C95.7911 120.22 80.1813 136.409 66.3415 153.436C51.7514 171.384 39.9329 189.15 32.1644 204.814C23.5983 222.089 20.335 236.238 22.7315 245.726C25.4084 256.32 35.9594 289.23 48.0474 321.025C62.8779 360.035 74.8967 383.822 81.8894 387.995C90.0148 392.847 122.247 402.899 156.865 411.377C196.483 421.084 225.492 425.527 234.452 423.262C244.263 420.785 257.571 412.543 272.941 399.431C287.447 387.056 303.057 370.867 316.897 353.84C331.487 335.892 343.305 318.126 351.074 302.462C359.64 285.187 362.903 271.038 360.507 261.55C357.83 250.956 347.279 218.046 335.191 186.251C320.36 147.241 308.342 123.455 301.349 119.281C293.224 114.429 260.991 104.377 226.374 95.8987C193.566 87.8607 168.035 83.4319 155.138 83.4319V83.4356Z" fill="#685BFB"/>
<path d="M233.776 419.31C217.507 419.31 175.238 408.974 161.551 405.514C125.968 396.518 94.0925 386.725 87.4057 382.737C81.3671 379.135 70.8489 356.171 56.1423 314.488C44.6552 281.932 34.3992 248.377 32.3487 240.263C30.3091 232.181 33.9694 219.733 43.2348 203.256C51.3165 188.881 63.2661 172.211 77.7943 155.042C107.295 120.181 138.977 93.0327 154.838 89.0301C165.794 86.2621 216.229 98.5869 231.427 102.426C267.01 111.421 298.885 121.215 305.572 125.203C311.611 128.805 322.129 151.768 336.836 193.452C348.323 226.008 358.579 259.562 360.629 267.677C362.669 275.758 359.009 288.207 349.743 304.684C341.661 319.059 329.712 335.729 315.184 352.897C285.683 387.759 254.001 414.907 238.14 418.91C237.051 419.183 235.572 419.31 233.776 419.31ZM155.286 90.7929C139.757 94.7154 108.464 121.619 79.1855 156.219C54.547 185.337 29.7665 222.588 34.1151 239.815C36.1583 247.9 46.3888 281.374 57.8577 313.88C72.0107 353.99 82.8349 377.885 88.338 381.171C94.7845 385.017 127.141 394.934 161.995 403.748C196.493 412.47 222.923 417.489 233.846 417.489C235.488 417.489 236.777 417.376 237.692 417.143C253.221 413.221 284.514 386.317 313.792 351.717C338.435 322.599 363.211 285.348 358.863 268.121C356.82 260.032 346.589 226.562 335.12 194.056C320.967 153.946 310.143 130.051 304.64 126.765C298.193 122.919 265.837 113.002 230.983 104.188C191.299 94.1545 162.294 89.0228 155.286 90.7929Z" fill="#685BFB"/>
<path d="M238.913 413.017C225.849 413.017 180.99 401.61 166.68 397.88C135.267 389.693 99.4441 379.24 93.8681 375.911C89.3229 373.198 79.93 350.115 65.9518 307.302C55.1021 274.072 45.3414 240.674 43.7425 234.348C42.1983 228.23 46.3065 217.515 55.9507 202.498C64.2837 189.533 76.2879 174.072 90.6704 157.796C115.619 129.559 147.905 99.1987 161.345 95.8043C169.583 93.7247 220.612 106.69 236.054 110.715C267.467 118.899 303.29 129.355 308.866 132.684C313.411 135.397 322.804 158.481 336.783 201.293C347.632 234.523 357.393 267.921 358.992 274.247C360.536 280.366 356.428 291.081 346.784 306.097C338.451 319.063 326.446 334.523 312.064 350.799C287.116 379.036 254.829 409.396 241.39 412.791C240.785 412.944 239.947 413.017 238.913 413.017ZM161.793 97.5707C150.247 100.484 120.91 126.321 92.0362 159.001C77.7156 175.212 65.766 190.593 57.484 203.482C48.2514 217.85 44.1103 228.368 45.5089 233.9C49.4751 249.601 85.3275 368.689 94.8005 374.342C99.5898 377.201 132.041 386.965 167.139 396.114C207.464 406.621 235.745 412.336 240.942 411.021C252.487 408.107 281.824 382.27 310.698 349.59C325.019 333.379 336.968 317.999 345.25 305.11C354.483 290.742 358.624 280.224 357.225 274.691C353.259 258.99 317.407 139.902 307.934 134.25C303.144 131.391 270.694 121.627 235.595 112.478C195.27 101.97 166.99 96.2559 161.793 97.5707Z" fill="#685BFB"/>
<path d="M243.476 406.778C234.432 406.778 190.87 395.364 171.804 390.247C140.329 381.801 104.05 371.312 100.324 369.086C99.1772 368.402 95.6845 366.318 75.7551 300.117C65.8014 267.05 56.1973 232.651 55.1302 228.437C52.2602 217.07 91.4633 173.602 103.544 160.549C127.986 134.148 158.83 104.862 167.848 102.582C173.242 101.22 220.578 113.614 240.678 119.008C272.153 127.454 308.432 137.943 312.158 140.168C313.305 140.853 316.797 142.936 336.727 209.138C346.681 242.204 356.285 276.604 357.352 280.817C360.222 292.184 321.019 335.652 308.938 348.705C284.496 375.107 253.652 404.392 244.634 406.672C244.357 406.742 243.967 406.778 243.476 406.778ZM168.07 103.471L168.293 104.352C160.801 106.243 132.946 131.475 104.881 161.791C73.9997 195.149 55.1629 221.135 56.8966 227.997C57.96 232.203 67.5532 266.555 77.4997 299.596C95.3021 358.736 100.048 366.803 101.26 367.528C104.414 369.41 136.938 379.011 172.281 388.491C210.242 398.674 237.481 404.982 243.344 404.986C243.712 404.986 243.993 404.961 244.189 404.913C251.681 403.023 279.536 377.791 307.601 347.474C338.482 314.117 357.319 288.131 355.585 281.269C354.522 277.062 344.929 242.711 334.982 209.67C317.18 150.53 312.434 142.463 311.222 141.738C308.068 139.855 275.544 130.255 240.201 120.774C199.869 109.954 171.643 103.511 168.289 104.356L168.067 103.475L168.07 103.471Z" fill="#685BFB"/>
<path d="M247.424 400.608C246.284 400.608 242.314 399.978 224.213 395.316C208.752 391.335 189.967 386.211 176.928 382.613C144.685 373.715 108.694 363.404 106.778 362.261C105.977 361.784 104.313 360.789 85.5561 292.931C76.0176 258.422 66.9889 224.402 66.5155 222.526C66.2605 221.513 65.6596 219.139 81.3969 200.98C90.0832 190.953 102.521 177.576 116.419 163.306C141.032 138.034 169.699 110.544 174.35 109.367C174.896 109.229 176.032 108.941 198.016 114.604C213.476 118.585 232.262 123.71 245.3 127.308C277.544 136.205 313.534 146.516 315.45 147.66C316.251 148.137 317.916 149.131 336.672 216.99C346.207 251.484 355.236 285.515 355.713 287.395C355.968 288.407 356.569 290.782 340.832 308.941C332.145 318.968 319.708 332.345 305.81 346.615C281.193 371.887 252.526 399.381 247.879 400.553C247.784 400.579 247.668 400.608 247.424 400.608ZM107.784 360.735C110.155 361.871 142.223 371.144 177.026 380.752C217.522 391.929 245.129 398.998 247.457 398.783C251.212 397.76 276.757 373.832 304.488 345.358C318.36 331.114 330.772 317.766 339.437 307.765C353.827 291.157 354.045 288.251 353.943 287.839C351.343 277.543 318.265 154.113 314.449 149.186C312.078 148.049 280.009 138.777 245.206 129.169C204.71 117.992 177.088 110.926 174.776 111.137C171.021 112.161 145.475 136.089 117.745 164.563C103.872 178.807 91.4599 192.155 82.7955 202.156C68.4057 218.764 68.1872 221.67 68.2891 222.082C70.8896 232.378 103.963 355.8 107.784 360.735Z" fill="#685BFB"/>
<path d="M251.158 394.573L112.949 355.388L112.821 354.878L77.7812 216.105L78.16 215.737L180.822 116.003L319.031 155.188L319.159 155.698L354.199 294.471L353.82 294.839L251.158 394.573ZM114.457 353.924L250.641 392.534L352.17 293.899L317.516 156.656L181.332 118.046L79.8026 216.68L114.457 353.924Z" fill="#685BFB"/>
<path d="M251.162 394.573L112.953 355.388L112.825 354.878L77.7852 216.105L78.1639 215.737L180.826 116.003L319.035 155.188L319.163 155.698L354.203 294.471L353.824 294.839L251.162 394.573ZM114.461 353.924L250.645 392.534L352.174 293.899L317.52 156.656L181.336 118.046L79.8065 216.68L114.461 353.924Z" fill="#685BFB"/>
<path d="M245.817 389.059C245.394 389.059 243.482 388.52 225.199 383.363C213.086 379.947 196.955 375.387 180.824 370.82C116.262 352.544 116.112 352.453 116.003 352.387C115.78 352.254 115.508 351.577 115.187 350.359C114.936 349.401 114.575 347.998 114.116 346.218C113.202 342.659 111.902 337.579 110.347 331.482C107.597 320.694 103.777 305.663 98.9909 286.808C90.8108 254.576 82.5142 221.816 82.4851 221.706C82.3879 221.32 83.8338 219.643 86.8228 216.673C89.3358 214.178 92.9924 210.573 97.6979 205.958C106.067 197.745 117.813 186.266 130.768 173.642C142.757 161.959 154.845 150.202 163.94 141.388C179.218 126.576 179.284 126.55 179.622 126.463C179.829 126.41 186.739 128.303 200.353 132.145C212.466 135.561 228.597 140.121 244.728 144.688C309.291 162.964 309.44 163.055 309.549 163.12C309.773 163.254 310.045 163.93 310.365 165.149C310.616 166.107 310.977 167.509 311.436 169.29C312.35 172.848 313.65 177.929 315.205 184.026C317.955 194.81 321.776 209.841 326.561 228.699C334.752 260.979 343.016 293.597 343.067 293.801C343.164 294.19 341.718 295.867 338.729 298.834C336.216 301.329 332.56 304.935 327.854 309.549C319.481 317.766 307.739 329.242 294.784 341.865C282.795 353.549 270.707 365.306 261.612 374.119C246.323 388.943 246.268 388.957 245.93 389.044C245.897 389.052 245.868 389.059 245.817 389.059ZM117.208 350.872C125.214 353.167 237.542 385.02 245.471 387.162C251.801 381.385 335.688 299.545 341.184 293.783C339.101 285.559 310.518 172.699 308.347 164.635C300.342 162.341 188.014 130.487 180.085 128.346C173.755 134.122 89.8675 215.963 84.3716 221.725C86.4549 229.952 115.045 342.823 117.208 350.872Z" fill="#685BFB"/>
<path d="M240.59 383.665C240.123 383.665 238.149 383.13 221.174 378.369C210.728 375.441 195.96 371.278 179.589 366.653C157.03 360.276 119.127 349.55 118.763 349.331C118.508 349.178 117.889 347.234 116.905 343.497C116.075 340.332 114.869 335.685 113.321 329.69C110.717 319.587 107.112 305.517 102.607 287.872C94.7288 257.009 87.0914 226.94 87.0549 226.798C86.8983 226.182 86.891 226.146 91.0867 221.877C93.4285 219.492 96.8484 216.072 101.252 211.702C109.082 203.929 120.085 193.105 132.231 181.225C143.474 170.226 154.841 159.165 163.414 150.872C177.837 136.919 178.044 136.868 178.387 136.781C178.729 136.693 178.769 136.682 197.937 142.058C208.383 144.986 223.151 149.149 239.522 153.775C267.082 161.561 300.002 170.892 300.348 171.096C300.603 171.249 301.223 173.194 302.206 176.931C303.036 180.096 304.242 184.743 305.79 190.738C308.394 200.841 311.999 214.91 316.505 232.556C324.382 263.419 332.02 293.488 332.056 293.63C332.213 294.245 332.22 294.282 328.024 298.55C325.683 300.936 322.263 304.356 317.859 308.726C310.029 316.498 299.026 327.322 286.88 339.203C275.637 350.202 264.27 361.263 255.697 369.556C241.271 383.508 241.067 383.559 240.724 383.647C240.684 383.658 240.651 383.665 240.59 383.665ZM119.95 347.824C127.737 350.165 233.152 379.91 240.276 381.778C242.99 379.378 262.945 360.068 285.354 338.147C310.725 313.333 328.014 296.175 330.184 293.666C328.272 286.138 301.31 180.059 299.161 172.608C291.378 170.266 185.959 140.521 178.835 138.653C176.121 141.053 156.167 160.363 133.757 182.285C108.386 207.098 91.0976 224.256 88.927 226.765C90.839 234.293 117.801 340.372 119.95 347.824Z" fill="#685BFB"/>
<path d="M235.378 378.272C234.89 378.272 232.891 377.762 217.153 373.38C207.396 370.663 193.618 366.796 178.354 362.491C168.962 359.839 122.07 346.604 121.524 346.28C121.249 346.115 120.641 344.282 119.699 340.78C118.905 337.823 117.762 333.489 116.301 327.902C113.843 318.48 110.456 305.372 106.231 288.936C98.7755 259.923 91.6625 232.021 91.6297 231.894C91.4549 231.198 91.3894 230.939 104.807 217.453C112.098 210.121 122.358 199.953 133.696 188.819C144.196 178.508 154.834 168.136 162.89 160.367C176.45 147.285 176.792 147.201 177.153 147.11C177.499 147.023 177.611 146.994 195.523 151.983C205.28 154.7 219.058 158.568 234.322 162.873C243.715 165.524 290.606 178.76 291.153 179.084C291.427 179.249 292.035 181.082 292.977 184.583C293.771 187.541 294.915 191.875 296.375 197.462C298.834 206.884 302.221 219.991 306.446 236.428C313.901 265.437 321.014 293.343 321.047 293.47C321.221 294.166 321.287 294.424 307.87 307.911C300.578 315.242 290.319 325.411 278.981 336.545C268.481 346.855 257.842 357.228 249.786 364.996C236.227 378.079 235.884 378.162 235.524 378.253C235.484 378.264 235.444 378.275 235.375 378.275L235.378 378.272ZM122.7 344.768C130.09 347.077 228.597 374.797 235.094 376.392C237.654 374.254 256.469 356.092 277.407 335.536C300.786 312.58 317.299 295.983 319.193 293.543C317.452 286.707 292.125 187.475 289.987 180.577C282.597 178.268 184.091 150.548 177.593 148.953C175.033 151.091 156.218 169.254 135.28 189.81C111.901 212.766 95.3883 229.362 93.4945 231.803C95.2354 238.639 120.562 337.87 122.7 344.768Z" fill="#685BFB"/>
<path d="M230.162 372.877C229.655 372.877 227.634 372.396 213.131 368.387C204.063 365.881 191.272 362.308 177.122 358.324C174.995 357.726 125.012 343.653 124.287 343.224C123.832 342.95 123.722 342.889 119.283 326.106C116.97 317.369 113.798 305.219 109.857 289.995C103.163 264.147 96.3633 237.597 96.2104 236.981C96.0355 236.293 95.9336 235.878 108.368 223.192C115.12 216.302 124.64 206.788 135.169 196.398C144.923 186.772 154.84 177.095 162.376 169.847C175.068 157.639 175.564 157.511 175.928 157.42C176.274 157.333 176.467 157.286 193.118 161.889C202.187 164.395 214.978 167.968 229.127 171.952C231.254 172.549 281.242 186.622 281.963 187.052C282.418 187.325 282.527 187.387 286.967 204.17C289.28 212.907 292.452 225.057 296.392 240.281C303.163 266.424 309.89 292.701 310.039 293.295C310.214 293.983 310.316 294.395 297.882 307.083C291.13 313.974 281.609 323.487 271.08 333.878C261.327 343.504 251.409 353.181 243.874 360.429C231.181 372.637 230.686 372.764 230.322 372.855C230.278 372.866 230.234 372.877 230.162 372.877ZM125.442 341.712C128.585 342.692 151.894 349.331 177.374 356.503C206.933 364.821 227.186 370.419 229.903 371.016C232.321 369.141 249.985 352.132 269.463 332.92C291.235 311.439 306.587 295.789 308.2 293.429C306.35 286.149 282.95 194.944 280.815 188.564C277.672 187.584 254.363 180.944 228.883 173.773C199.324 165.455 179.071 159.857 176.354 159.26C173.936 161.135 156.272 178.144 136.794 197.356C115.022 218.836 99.6703 234.486 98.0569 236.846C99.9253 244.2 123.311 335.335 125.442 341.712Z" fill="#685BFB"/>
<path d="M224.989 367.48C224.293 367.48 219.97 366.54 175.886 354.164C175.406 354.03 127.924 340.696 127.046 340.172C126.595 339.902 126.424 339.8 122.257 324.314C120.09 316.258 117.136 305.069 113.476 291.058C107.226 267.13 100.922 242.641 100.78 242.076C100.605 241.377 100.463 240.827 111.917 228.943C118.131 222.497 126.908 213.632 136.629 203.988C145.639 195.046 154.832 186.065 161.846 179.338C173.672 168.001 174.309 167.84 174.688 167.746C175.056 167.655 175.671 167.502 223.921 181.046C224.402 181.181 271.884 194.515 272.761 195.039C273.213 195.309 273.384 195.411 277.551 210.897C279.718 218.953 282.671 230.141 286.332 244.152C292.614 268.205 298.89 292.581 299.028 293.134C299.203 293.834 299.345 294.384 287.891 306.268C281.677 312.714 272.9 321.579 263.179 331.223C254.169 340.164 244.976 349.146 237.962 355.872C226.136 367.21 225.498 367.37 225.12 367.465C225.087 367.472 225.054 367.483 224.989 367.483V367.48ZM128.179 338.664C134.553 340.805 219.515 364.541 224.712 365.633C227.014 363.991 243.508 348.162 261.522 330.298C281.684 310.303 295.856 295.607 297.196 293.317C295.539 286.812 273.752 202.371 271.629 196.54C265.255 194.398 180.293 170.663 175.096 169.57C172.794 171.213 156.299 187.041 138.286 204.906C118.123 224.9 103.952 239.596 102.612 241.887C104.283 248.454 126.041 332.818 128.179 338.664Z" fill="#685BFB"/>
<path d="M219.772 362.086C219.033 362.086 214.663 361.197 174.655 349.998C174.218 349.874 130.826 337.724 129.81 337.116C129.355 336.847 129.129 336.708 125.239 322.522C123.218 315.147 120.479 304.92 117.099 292.118C111.206 269.793 105.492 247.715 105.354 247.165C105.179 246.48 105 245.77 115.471 234.687C121.146 228.681 129.18 220.468 138.096 211.571C138.423 211.243 171.075 178.665 173.456 178.064C173.821 177.973 174.578 177.78 218.724 190.134C219.161 190.257 262.552 202.407 263.568 203.016C264.023 203.285 264.249 203.423 268.139 217.609C270.16 224.984 272.899 235.211 276.279 248.013C282.172 270.339 287.886 292.417 288.025 292.967C288.199 293.652 288.378 294.362 277.907 305.445C272.233 311.451 264.198 319.663 255.283 328.561C254.955 328.889 222.304 361.467 219.922 362.068C219.889 362.075 219.849 362.086 219.772 362.086ZM130.921 335.605C133.554 336.482 153.385 342.153 174.884 348.17C200 355.199 217.289 359.879 219.518 360.254C221.51 358.965 235.35 345.875 253.6 327.665C274.957 306.355 285.275 295.098 286.207 293.2C284.732 287.417 264.61 209.917 262.461 204.523C259.828 203.646 239.997 197.975 218.498 191.958C193.382 184.929 176.093 180.249 173.864 179.874C171.872 181.163 158.032 194.253 139.782 212.463C118.425 233.773 108.107 245.03 107.175 246.928C108.65 252.711 128.772 330.211 130.921 335.605Z" fill="#685BFB"/>
<path d="M214.543 356.692C213.738 356.692 209.309 355.839 173.42 345.835C163.135 342.965 133.547 334.646 132.571 334.064C132.032 333.743 131.471 333.408 120.723 293.181C115.486 273.591 110.158 253.152 109.932 252.256C109.757 251.571 109.542 250.715 119.026 240.437C124.161 234.872 131.456 227.315 139.564 219.157C139.862 218.854 169.487 189.077 172.229 188.381C172.612 188.283 173.5 188.057 213.53 199.22C223.815 202.086 253.404 210.405 254.38 210.991C254.919 211.312 255.479 211.647 266.227 251.873C271.461 271.46 276.793 291.903 277.019 292.799C277.193 293.484 277.408 294.34 267.924 304.618C262.789 310.183 255.494 317.74 247.387 325.898C247.088 326.2 217.46 355.982 214.721 356.673C214.681 356.684 214.637 356.695 214.543 356.695V356.692ZM133.664 332.548C136.042 333.375 154.128 338.562 173.646 344.003C196.529 350.384 212.325 354.601 214.324 354.867C216.207 353.793 229.013 341.777 245.682 325.024C265.204 305.401 274.52 294.915 275.212 293.083C273.937 288.097 255.447 217.405 253.283 212.503C250.905 211.676 232.822 206.49 213.301 201.048C190.418 194.667 174.622 190.45 172.623 190.184C170.74 191.258 157.934 203.274 141.265 220.027C121.743 239.651 112.427 250.136 111.735 251.968C113.009 256.954 131.5 327.646 133.664 332.548Z" fill="#685BFB"/>
<path d="M209.313 351.302C208.442 351.302 203.999 350.501 172.193 341.672C162.982 339.116 136.442 331.671 135.339 331.012C134.8 330.692 134.13 330.291 124.351 294.249C119.485 276.312 114.725 258.207 114.51 257.352C114.339 256.681 114.084 255.665 122.581 246.192C127.177 241.064 133.729 234.163 141.031 226.751C150.315 217.325 168.529 199.334 170.998 198.707C171.388 198.609 172.426 198.35 208.329 208.315C217.54 210.872 244.08 218.316 245.183 218.975C245.722 219.296 246.392 219.696 256.171 255.738C261.044 273.701 265.797 291.784 266.012 292.636C266.183 293.306 266.438 294.322 257.941 303.795C253.345 308.923 246.793 315.825 239.491 323.236C230.207 332.662 211.993 350.654 209.524 351.28C209.48 351.291 209.426 351.306 209.313 351.306V351.302ZM136.406 329.497C138.526 330.276 154.868 334.975 172.415 339.844C193.08 345.58 207.386 349.335 209.134 349.488C210.842 348.691 222.639 337.732 237.775 322.38C255.359 304.549 263.761 294.694 264.217 292.971C263.15 288.797 246.287 224.901 244.109 220.487C241.989 219.707 225.647 215.009 208.1 210.14C187.464 204.411 173.173 200.659 171.388 200.499C169.6 201.366 157.829 212.303 142.739 227.607C125.156 245.438 116.753 255.294 116.298 257.016C117.365 261.19 134.235 325.094 136.406 329.501V329.497Z" fill="#685BFB"/>
<path d="M204.069 345.908C203.137 345.908 198.716 345.165 170.952 337.506C158.831 334.162 139.19 328.612 138.09 327.956C137.533 327.625 136.771 327.17 127.965 295.313C123.514 279.218 119.297 263.321 119.075 262.443C118.903 261.758 118.612 260.615 126.122 251.943C130.183 247.256 135.992 241.002 142.486 234.334C152.05 224.511 167.204 209.666 169.757 209.021C170.147 208.923 171.331 208.624 203.122 217.394C215.243 220.738 234.885 226.288 235.985 226.944C236.542 227.275 237.303 227.731 246.11 259.588C250.564 275.7 254.778 291.583 255 292.461C255.171 293.146 255.462 294.289 247.952 302.957C243.892 307.645 238.083 313.898 231.589 320.567C222.025 330.389 206.87 345.234 204.317 345.879C204.266 345.89 204.204 345.908 204.069 345.908ZM139.142 326.441C140.756 327.071 153.918 330.914 171.182 335.678C193.431 341.818 202.678 344.04 203.924 344.094C205.621 343.432 216.354 333.576 229.881 319.711C245.647 303.551 253.008 294.486 253.219 292.843C251.933 287.774 237.055 232.254 234.932 228.455C233.319 227.825 220.156 223.983 202.893 219.219C180.655 213.079 171.404 210.857 170.154 210.802C168.439 211.48 157.713 221.332 144.198 235.186C128.431 251.346 121.07 260.411 120.859 262.05C122.148 267.119 137.03 322.646 139.146 326.438L139.142 326.441Z" fill="#685BFB"/>
<path d="M198.857 340.51C196.891 340.51 187.101 338.103 169.721 333.343C159.203 330.462 142.063 325.622 140.854 324.904C140.286 324.565 139.423 324.048 131.588 296.38C127.702 282.656 123.94 268.693 123.649 267.534C123.489 266.897 123.15 265.564 129.669 257.701C133.191 253.451 138.261 247.849 143.95 241.927C152.29 233.241 165.718 220.057 168.526 219.346C169.666 219.059 179.558 221.462 197.921 226.488C208.44 229.369 225.579 234.21 226.788 234.927C227.356 235.266 228.22 235.783 236.054 263.452C239.94 277.175 243.702 291.139 243.993 292.297C244.154 292.934 244.492 294.267 237.973 302.13C234.451 306.381 229.381 311.982 223.693 317.904C215.352 326.59 201.924 339.775 199.116 340.485C199.054 340.499 198.967 340.507 198.857 340.507V340.51ZM141.881 323.382C145.002 324.7 195.452 338.769 198.712 338.707C200.412 338.168 210.119 329.387 222.046 316.99C235.383 303.128 242.289 294.282 242.22 292.708C241.204 288.695 227.895 239.771 225.761 236.446C222.651 235.131 172.467 221.12 168.956 221.12C168.945 221.12 168.938 221.12 168.93 221.12C167.23 221.659 157.524 230.44 145.596 242.838C132.259 256.699 125.353 265.546 125.422 267.119C126.439 271.133 139.747 320.057 141.881 323.382ZM168.971 221.109H168.967C168.967 221.109 168.967 221.109 168.971 221.109Z" fill="#685BFB"/>
<path d="M193.561 335.123C191.478 335.123 183.058 333.127 168.489 329.179C159.57 326.761 144.933 322.635 143.618 321.848C143.042 321.502 142.074 320.927 135.216 297.443C131.745 285.562 128.496 273.696 128.226 272.622C127.979 271.642 128.321 269.712 133.216 263.458C136.199 259.645 140.533 254.696 145.413 249.513C152.534 241.956 164.235 230.436 167.295 229.664C168.537 229.351 177.092 231.339 192.72 235.575C201.639 237.993 216.277 242.12 217.592 242.906C218.167 243.252 219.136 243.828 225.994 267.312C229.461 279.189 232.71 291.058 232.983 292.132C233.231 293.116 232.888 295.042 227.993 301.296C225.01 305.109 220.676 310.059 215.796 315.241C208.676 322.799 196.974 334.318 193.915 335.09C193.831 335.112 193.711 335.123 193.558 335.123H193.561ZM144.619 320.322C147.387 321.622 190.28 333.586 193.496 333.32C195.302 332.814 203.774 325.341 214.405 314.065C227.199 300.495 231.471 293.782 231.217 292.58C229.975 287.656 218.651 247.175 216.586 244.436C213.818 243.136 170.944 231.161 167.71 231.438C165.904 231.944 157.432 239.417 146.801 250.693C134.006 264.263 129.734 270.976 129.989 272.178C131.231 277.102 142.554 317.583 144.619 320.322Z" fill="#685BFB"/>
<path d="M188.236 329.741C185.534 329.741 175.507 327.221 167.258 325.017C159.941 323.062 147.802 319.645 146.378 318.797C145.799 318.451 144.724 317.81 138.839 298.518C135.936 288.997 133.15 279.113 132.8 277.718C131.89 274.109 141.228 263.255 146.873 257.111C153.946 249.412 162.971 240.769 166.063 239.99C167.731 239.567 178.654 242.303 187.519 244.67C194.835 246.626 206.974 250.042 208.398 250.89C208.978 251.236 210.052 251.877 215.937 271.169C218.84 280.686 221.623 290.571 221.976 291.969C222.887 295.579 213.548 306.432 207.903 312.576C200.83 320.275 191.805 328.918 188.713 329.697C188.597 329.726 188.436 329.741 188.232 329.741H188.236ZM147.354 317.256C149.619 318.443 185.443 328.394 188.283 327.927C190.498 327.366 198.532 320.082 206.563 311.341C216.495 300.532 220.599 293.951 220.213 292.41C219.186 288.338 209.48 254.656 207.422 252.424C205.161 251.236 169.385 241.29 166.5 241.753C164.257 242.335 156.233 249.612 148.217 258.338C138.285 269.148 134.181 275.729 134.567 277.27C135.594 281.342 145.296 315.02 147.358 317.256H147.354Z" fill="#685BFB"/>
<path d="M182.856 324.362C177.477 324.362 151.294 317.03 149.142 315.741C148.566 315.399 147.372 314.685 142.466 299.592C140.084 292.261 137.76 284.336 137.374 282.806C136.358 278.778 144.698 268.802 148.33 264.705C153.953 258.357 161.517 251.142 164.832 250.304C168.117 249.474 196.94 257.512 199.205 258.863C199.781 259.205 200.975 259.919 205.881 275.016C208.263 282.351 210.587 290.276 210.973 291.802C211.989 295.83 203.649 305.802 200.018 309.903C194.394 316.251 186.83 323.466 183.515 324.303C183.355 324.344 183.133 324.362 182.856 324.362ZM165.276 252.071C162.836 252.686 156.138 258.637 149.692 265.91C141.785 274.833 138.696 280.602 139.137 282.362C140.23 286.692 148.078 312.543 150.096 314.197C152.307 315.515 180.627 323.123 183.064 322.537C185.5 321.922 192.202 315.97 198.648 308.697C206.555 299.774 209.644 294.005 209.203 292.246C208.11 287.916 200.262 262.064 198.244 260.411C196.033 259.092 167.72 251.481 165.272 252.071H165.276Z" fill="#685BFB"/>
<path d="M177.298 319C171.926 319 154.163 314.036 151.902 312.688C148.824 310.853 142.316 289.35 141.948 287.897C140.855 283.577 147.061 275.554 149.778 272.305C154.105 267.134 160.056 261.518 163.596 260.622C167.122 259.733 187.572 265.385 190.009 266.839C193.086 268.674 199.594 290.177 199.962 291.63C201.055 295.95 194.849 303.973 192.132 307.222C187.805 312.393 181.854 318.013 178.314 318.905C178.059 318.971 177.717 319 177.298 319ZM164.044 262.388C161.407 263.054 155.995 267.716 151.177 273.474C146.049 279.604 143.117 285.089 143.714 287.449C144.894 292.118 150.973 310.008 152.838 311.122C155.183 312.525 175.109 317.835 177.87 317.139C180.506 316.473 185.915 311.811 190.737 306.053C195.865 299.923 198.797 294.438 198.2 292.078C197.02 287.409 190.941 269.519 189.076 268.405C186.731 267.002 166.801 261.692 164.044 262.388Z" fill="#685BFB"/>
<path d="M171.433 313.672C166.655 313.672 157.025 311.042 154.665 309.633C151.518 307.754 147.217 295.735 146.521 292.989C144.755 286 155.255 272.739 162.364 270.943C166.003 270.025 178.123 273.212 180.815 274.818C183.962 276.698 188.263 288.716 188.959 291.466C189.771 294.682 188.015 299.563 184.26 304.527C180.76 309.159 176.383 312.685 173.116 313.508C172.671 313.621 172.099 313.672 171.437 313.672H171.433ZM164.058 272.589C163.552 272.589 163.129 272.626 162.809 272.706C156.646 274.261 146.78 286.579 148.284 292.541C149.22 296.248 153.372 306.745 155.594 308.07C158.129 309.582 169.75 312.481 172.664 311.745C175.512 311.028 179.588 307.684 182.803 303.43C186.176 298.969 187.855 294.555 187.188 291.914C186.252 288.21 182.101 277.71 179.879 276.384C177.624 275.037 168.162 272.593 164.058 272.593V272.589Z" fill="#685BFB"/>
<path d="M164.523 308.537C158.331 308.537 152.679 304.349 151.095 298.077C149.226 290.673 153.728 283.13 161.132 281.262C168.536 279.39 176.079 283.895 177.947 291.299C179.816 298.704 175.314 306.246 167.91 308.115C166.777 308.402 165.641 308.537 164.519 308.537H164.523ZM164.523 282.66C163.55 282.66 162.563 282.78 161.58 283.028C155.152 284.652 151.24 291.205 152.865 297.633C154.489 304.061 161.041 307.973 167.469 306.348C173.897 304.724 177.809 298.172 176.185 291.744C174.808 286.299 169.898 282.66 164.523 282.66Z" fill="#685BFB"/>
</g>
<defs>
<clipPath id="clip0_1040_55254">
<rect width="500" height="500" fill="white" transform="translate(-112)"/>
</clipPath>
</defs>
</svg>
