<svg width="403" height="326" viewBox="0 0 403 326" fill="none" xmlns="http://www.w3.org/2000/svg">
<g clip-path="url(#clip0_1410_51467)">
<path d="M281.665 8.82001C282.554 11.0446 283.391 13.2954 284.149 15.5986C289.378 30.8569 292.227 47.2407 292.227 64.2787C292.227 83.8555 288.515 102.569 281.691 119.737C259.573 175.563 205.115 215.083 141.611 215.083C78.107 215.083 23.6227 175.563 1.50473 119.737H-113.948C-88.5879 237.669 16.1716 326 141.559 326C266.946 326 371.705 237.669 397.118 119.737C400.961 101.862 403 83.3059 403 64.2787C403 45.2516 400.961 26.6956 397.118 8.82001C396.464 5.8364 395.784 2.9313 395.026 0H277.796C279.181 2.87894 280.463 5.86255 281.639 8.82001H281.665Z" fill="url(#paint0_linear_1410_51467)"/>
</g>
<defs>
<linearGradient id="paint0_linear_1410_51467" x1="144.526" y1="326" x2="144.526" y2="0" gradientUnits="userSpaceOnUse">
<stop stop-color="#566BE3"/>
<stop offset="1" stop-color="#566BE3" stop-opacity="0"/>
</linearGradient>
<clipPath id="clip0_1410_51467">
<rect width="517" height="326" fill="white" transform="matrix(-1 0 0 -1 403 326)"/>
</clipPath>
</defs>
</svg>
