<svg width="200" height="82" viewBox="0 0 200 82" fill="none" xmlns="http://www.w3.org/2000/svg">
<g clip-path="url(#clip0_1410_51429)">
<path d="M101.635 22.5217C102.381 23.821 103.472 24.6805 104.918 25.1041C105.456 25.263 105.998 25.3445 106.536 25.3445C107.423 25.3445 108.299 25.1123 109.163 24.6439C109.586 24.4117 109.965 24.1469 110.299 23.8577L114.083 27.9473C113.411 28.5746 112.67 29.1164 111.851 29.5644C110.54 30.265 109.146 30.6968 107.672 30.8557C107.265 30.9005 106.861 30.9208 106.47 30.9208C105.407 30.9208 104.356 30.7661 103.322 30.4606C101.892 30.0369 100.601 29.3608 99.4479 28.4239C98.2952 27.4911 97.3665 26.3709 96.6577 25.0675C95.9489 23.764 95.5172 22.375 95.3542 20.9005C95.3094 20.4931 95.2891 20.0899 95.2891 19.6988C95.2891 18.6357 95.4439 17.5848 95.7493 16.5502C96.173 15.1204 96.8491 13.8292 97.786 12.6764C98.7188 11.5237 99.839 10.595 101.142 9.88621C102.446 9.17746 103.835 8.74568 105.309 8.58275C105.717 8.53794 106.12 8.51758 106.511 8.51758C107.574 8.51758 108.625 8.67236 109.66 8.97786C111.089 9.40149 112.381 10.0777 113.533 11.0145C114.686 11.9473 115.615 13.0675 116.324 14.3709C117.032 15.6785 117.464 17.0675 117.627 18.5379C117.672 18.9453 117.692 19.3608 117.692 19.7844C117.692 20.6887 117.582 21.5848 117.362 22.4768L101.631 22.5217H101.635ZM101.615 16.9208L111.155 16.9005C110.454 15.6011 109.428 14.7498 108.071 14.3424C107.529 14.1836 106.992 14.1021 106.454 14.1021C105.566 14.1021 104.69 14.3343 103.827 14.8027C102.865 15.3282 102.128 16.0369 101.619 16.9249L101.615 16.9208Z" fill="white"/>
<path d="M125.659 30.9206C125.659 32.4074 125.374 33.8371 124.807 35.2098C124.237 36.5825 123.431 37.7923 122.38 38.8432C121.329 39.8941 120.119 40.7047 118.746 41.2709C117.374 41.8412 115.944 42.1222 114.457 42.1222V36.5214C116.001 36.5214 117.325 35.9756 118.416 34.8799C119.508 33.7841 120.058 32.4644 120.058 30.9206V8.51735H125.659V30.9206ZM122.856 7.11613C121.895 7.11613 121.068 6.77397 120.384 6.08965C119.699 5.40533 119.357 4.57845 119.357 3.61715C119.357 2.65584 119.699 1.82896 120.384 1.14464C121.068 0.460323 121.895 0.118164 122.856 0.118164C123.818 0.118164 124.644 0.460323 125.329 1.14464C126.013 1.82896 126.355 2.65584 126.355 3.61715C126.355 4.57845 126.013 5.40533 125.329 6.08965C124.644 6.77397 123.818 7.11613 122.856 7.11613Z" fill="white"/>
<path d="M150.427 30.9202H144.826V29.409C144.402 29.6575 143.966 29.8774 143.514 30.0648C142.142 30.6351 140.712 30.9161 139.225 30.9161C137.738 30.9161 136.309 30.631 134.936 30.0648C133.563 29.4945 132.353 28.688 131.302 27.6371C130.252 26.5862 129.441 25.3764 128.875 24.0037C128.304 22.631 128.023 21.2013 128.023 19.7145C128.023 18.2277 128.309 16.798 128.875 15.4253C129.445 14.0526 130.252 12.8428 131.302 11.7919C132.353 10.741 133.563 9.93038 134.936 9.36419C136.309 8.79392 137.738 8.51286 139.225 8.51286C140.712 8.51286 142.142 8.79799 143.514 9.36419C143.966 9.55563 144.402 9.77152 144.826 10.02V8.50879H150.427V30.912V30.9202ZM139.225 14.1178C137.677 14.1178 136.357 14.6636 135.266 15.7593C134.174 16.855 133.624 18.1748 133.624 19.7186C133.624 21.2624 134.17 22.5862 135.266 23.6778C136.362 24.7695 137.681 25.3194 139.225 25.3194C140.769 25.3194 142.093 24.7736 143.184 23.6778C144.276 22.5821 144.826 21.2624 144.826 19.7186C144.826 18.1748 144.28 16.8509 143.184 15.7593C142.089 14.6676 140.769 14.1178 139.225 14.1178Z" fill="white"/>
<path d="M169.611 29.4139C169.187 29.6624 168.752 29.8824 168.299 30.0697C166.927 30.64 165.497 30.9211 164.01 30.9211C162.523 30.9211 161.094 30.6359 159.721 30.0697C158.348 29.4995 157.139 28.693 156.088 27.642C155.037 26.5911 154.226 25.3813 153.66 24.0086C153.09 22.6359 152.809 21.2062 152.809 19.7194C152.809 18.2327 153.094 16.8029 153.66 15.4302C154.23 14.0575 155.037 12.8477 156.088 11.7968C157.139 10.7459 158.348 9.93532 159.721 9.36913C161.094 8.79887 162.523 8.51781 164.01 8.51781C165.497 8.51781 166.927 8.80294 168.299 9.36913C168.752 9.56058 169.187 9.77646 169.611 10.0249V2.91699H175.212V30.9211H169.611V29.4099V29.4139ZM164.01 25.3243C165.554 25.3243 166.878 24.7785 167.969 23.6828C169.061 22.5871 169.611 21.2673 169.611 19.7235C169.611 18.1797 169.065 16.8559 167.969 15.7642C166.874 14.6726 165.554 14.1227 164.01 14.1227C162.466 14.1227 161.143 14.6685 160.051 15.7642C158.959 16.86 158.409 18.1797 158.409 19.7235C158.409 21.2673 158.955 22.5911 160.051 23.6828C161.147 24.7744 162.466 25.3243 164.01 25.3243Z" fill="white"/>
<path d="M200.001 30.9202H194.4V29.409C193.976 29.6575 193.541 29.8774 193.088 30.0648C191.716 30.6351 190.286 30.9161 188.799 30.9161C187.313 30.9161 185.883 30.631 184.51 30.0648C183.137 29.4945 181.928 28.688 180.877 27.6371C179.826 26.5862 179.015 25.3764 178.449 24.0037C177.879 22.631 177.598 21.2013 177.598 19.7145C177.598 18.2277 177.883 16.798 178.449 15.4253C179.019 14.0526 179.826 12.8428 180.877 11.7919C181.928 10.741 183.137 9.93038 184.51 9.36419C185.883 8.79392 187.313 8.51286 188.799 8.51286C190.286 8.51286 191.716 8.79799 193.088 9.36419C193.541 9.55563 193.976 9.77152 194.4 10.02V8.50879H200.001V30.912V30.9202ZM188.799 14.1178C187.251 14.1178 185.932 14.6636 184.84 15.7593C183.748 16.855 183.198 18.1748 183.198 19.7186C183.198 21.2624 183.744 22.5862 184.84 23.6778C185.936 24.7695 187.255 25.3194 188.799 25.3194C190.343 25.3194 191.667 24.7736 192.759 23.6778C193.85 22.5821 194.4 21.2624 194.4 19.7186C194.4 18.1748 193.854 16.8509 192.759 15.7593C191.663 14.6676 190.343 14.1178 188.799 14.1178Z" fill="white"/>
<path d="M102.854 67.3644C103.599 68.6638 104.691 69.5233 106.137 69.9469C106.675 70.1058 107.217 70.1872 107.754 70.1872C108.642 70.1872 109.518 69.9551 110.382 69.4866C110.805 69.2544 111.184 68.9897 111.518 68.7005L115.302 72.7901C114.63 73.4174 113.889 73.9591 113.07 74.4072C111.758 75.1078 110.365 75.5396 108.891 75.6984C108.483 75.7432 108.08 75.7636 107.689 75.7636C106.626 75.7636 105.575 75.6088 104.54 75.3033C103.111 74.8797 101.819 74.2035 100.667 73.2667C99.5139 72.3339 98.5852 71.2137 97.8764 69.9102C97.1677 68.6068 96.7359 67.2178 96.573 65.7432C96.5282 65.3359 96.5078 64.9327 96.5078 64.5416C96.5078 63.4785 96.6626 62.4276 96.9681 61.3929C97.3917 59.9632 98.0679 58.672 99.0048 57.5192C99.9375 56.3665 101.058 55.4377 102.361 54.729C103.665 54.0202 105.054 53.5885 106.528 53.4255C106.936 53.3807 107.339 53.3604 107.73 53.3604C108.793 53.3604 109.844 53.5151 110.878 53.8206C112.308 54.2443 113.599 54.9204 114.752 55.8573C115.905 56.7901 116.834 57.9102 117.542 59.2137C118.251 60.5212 118.683 61.9103 118.846 63.3807C118.891 63.7881 118.911 64.2035 118.911 64.6272C118.911 65.5314 118.801 66.4276 118.581 67.3196L102.85 67.3644H102.854ZM102.834 61.7636L112.373 61.7432C111.673 60.4439 110.646 59.5925 109.29 59.1852C108.748 59.0263 108.21 58.9449 107.673 58.9449C106.785 58.9449 105.909 59.177 105.045 59.6455C104.084 60.1709 103.347 60.8797 102.838 61.7677L102.834 61.7636Z" fill="white"/>
<path d="M126.898 75.7636H121.297V53.3604H126.898V75.7636Z" fill="white"/>
<path d="M137.511 54.8714C137.934 54.6229 138.37 54.403 138.822 54.2156C140.195 53.6453 141.625 53.3643 143.112 53.3643C144.598 53.3643 146.028 53.6494 147.401 54.2156C148.774 54.7859 149.983 55.5924 151.034 56.6433C151.193 56.8021 151.356 56.9732 151.515 57.1484C151.674 56.9732 151.837 56.8062 151.996 56.6433C153.046 55.5924 154.256 54.7818 155.629 54.2156C157.002 53.6453 158.431 53.3643 159.918 53.3643C161.405 53.3643 162.835 53.6494 164.207 54.2156C165.58 54.7859 166.79 55.5924 167.841 56.6433C168.892 57.6942 169.702 58.904 170.268 60.2767C170.839 61.6494 171.12 63.0791 171.12 64.5659V75.7675H165.519V64.5659C165.519 63.0221 164.973 61.6983 163.877 60.6066C162.782 59.515 161.462 58.9651 159.918 58.9651C158.374 58.9651 157.051 59.5109 155.959 60.6066C154.867 61.7023 154.317 63.0221 154.317 64.5659V75.7675H148.717V64.5659C148.717 63.0221 148.171 61.6983 147.075 60.6066C145.979 59.515 144.659 58.9651 143.116 58.9651C141.572 58.9651 140.248 59.5109 139.156 60.6066C138.065 61.7023 137.515 63.0221 137.515 64.5659V75.7675H131.914V53.3643H137.515V54.8755L137.511 54.8714Z" fill="white"/>
<path d="M18.9043 49.3646C18.7658 49.0183 18.6354 48.668 18.5173 48.3096C17.7026 45.9348 17.2587 43.3849 17.2587 40.7332C17.2587 37.6864 17.8371 34.7739 18.9002 32.1018C22.3462 23.4134 30.831 17.2627 40.7251 17.2627C50.6191 17.2627 59.1079 23.4134 62.554 32.1018H80.5417C76.5906 13.7475 60.2688 0 40.7332 0C21.1976 0 4.87576 13.7475 0.916497 32.1018C0.317719 34.8839 0 37.7719 0 40.7332C0 43.6945 0.317719 46.5825 0.916497 49.3646C1.01833 49.8289 1.12424 50.2811 1.24236 50.7373H19.5071C19.2912 50.2892 19.0916 49.8248 18.9083 49.3646H18.9043Z" fill="white"/>
<path d="M40.7326 64.2034C37.6898 64.2034 34.7774 63.6168 32.1053 62.5537L45.2988 49.3643L62.5615 32.1016H38.146L19.5106 50.737L6.87109 63.3724C9.09513 66.6922 11.7957 69.6698 14.8752 72.1953C15.4291 72.6596 15.9953 73.0914 16.5737 73.5191C16.7937 73.6861 17.0137 73.8449 17.2377 74.0038C23.8813 78.7003 31.9872 81.4621 40.7367 81.4621C53.5187 81.4621 64.9322 75.572 72.4027 66.346L60.0687 54.012C55.8365 60.1586 48.7448 64.1953 40.7326 64.1953V64.2034Z" fill="#0EF2A0"/>
<path d="M124.112 52.0859C123.151 52.0859 122.324 51.7437 121.64 51.0594C120.955 50.3751 120.613 49.5482 120.613 48.5869C120.613 47.6256 120.955 46.7987 121.64 46.1144C122.324 45.43 123.151 45.0879 124.112 45.0879C125.074 45.0879 125.9 45.43 126.585 46.1144C127.269 46.7987 127.611 47.6256 127.611 48.5869C127.611 49.5482 127.269 50.3751 126.585 51.0594C125.9 51.7437 125.074 52.0859 124.112 52.0859Z" fill="#0EF2A0"/>
<path d="M126.574 46.1143C127.258 46.7986 127.6 47.6255 127.6 48.5868C127.6 49.5481 127.258 50.3749 126.574 51.0593C125.89 51.7436 125.063 52.0857 124.101 52.0857C123.14 52.0857 122.313 51.7436 121.629 51.0593L126.574 46.1143Z" fill="white"/>
</g>
<defs>
<clipPath id="clip0_1410_51429">
<rect width="200" height="81.4664" fill="white"/>
</clipPath>
</defs>
</svg>
