<svg width="120" height="49" viewBox="0 0 120 49" fill="none" xmlns="http://www.w3.org/2000/svg">
<g clip-path="url(#clip0_1410_51010)">
<path d="M60.9796 13.5733C61.4269 14.353 62.0819 14.8687 62.9495 15.1228C63.2721 15.2181 63.5971 15.267 63.9197 15.267C64.4525 15.267 64.978 15.1277 65.4961 14.8467C65.7503 14.7074 65.9776 14.5485 66.178 14.375L68.4485 16.8287C68.0452 17.2051 67.6004 17.5302 67.1091 17.799C66.3222 18.2194 65.4863 18.4784 64.6016 18.5738C64.3572 18.6006 64.1153 18.6129 63.8806 18.6129C63.2428 18.6129 62.6122 18.52 61.9914 18.3367C61.1336 18.0825 60.3588 17.6768 59.6672 17.1147C58.9755 16.555 58.4183 15.8829 57.9931 15.1008C57.5678 14.3188 57.3087 13.4854 57.211 12.6006C57.1841 12.3562 57.1719 12.1143 57.1719 11.8797C57.1719 11.2418 57.2647 10.6112 57.448 9.99045C57.7022 9.13261 58.1079 8.35786 58.67 7.66621C59.2297 6.97456 59.9018 6.41733 60.6839 5.99208C61.466 5.56683 62.2994 5.30776 63.1841 5.21C63.4285 5.18312 63.6705 5.1709 63.9051 5.1709C64.543 5.1709 65.1735 5.26377 65.7943 5.44707C66.6521 5.70124 67.4269 6.10695 68.1185 6.66907C68.8102 7.22874 69.3674 7.90084 69.7927 8.68291C70.2179 9.46744 70.477 10.3008 70.5747 11.1831C70.6016 11.4275 70.6138 11.6768 70.6138 11.931C70.6138 12.4735 70.5478 13.0112 70.4159 13.5465L60.9772 13.5733H60.9796ZM60.9674 10.2129L66.6912 10.2006C66.2709 9.421 65.655 8.91021 64.8411 8.66581C64.5161 8.57049 64.1935 8.52161 63.8709 8.52161C63.3381 8.52161 62.8126 8.66092 62.2945 8.94198C61.7177 9.25725 61.2753 9.68251 60.9698 10.2153L60.9674 10.2129Z" fill="#2E4BF1"/>
<path d="M75.3948 18.6133C75.3948 19.5054 75.2237 20.3632 74.884 21.1868C74.5419 22.0105 74.0579 22.7363 73.4274 23.3669C72.7968 23.9974 72.071 24.4838 71.2474 24.8235C70.4237 25.1656 69.5659 25.3343 68.6738 25.3343V21.9738C69.6001 21.9738 70.3944 21.6463 71.0494 20.9889C71.7044 20.3314 72.0343 19.5396 72.0343 18.6133V5.17135H75.3948V18.6133ZM73.7133 4.33061C73.1366 4.33061 72.6404 4.12532 72.2298 3.71473C71.8193 3.30414 71.614 2.80801 71.614 2.23122C71.614 1.65444 71.8193 1.15831 72.2298 0.747722C72.6404 0.337131 73.1366 0.131836 73.7133 0.131836C74.2901 0.131836 74.7863 0.337131 75.1968 0.747722C75.6074 1.15831 75.8127 1.65444 75.8127 2.23122C75.8127 2.80801 75.6074 3.30414 75.1968 3.71473C74.7863 4.12532 74.2901 4.33061 73.7133 4.33061Z" fill="#2E4BF1"/>
<path d="M90.2545 18.6129H86.894V17.7061C86.6398 17.8552 86.3783 17.9872 86.107 18.0996C85.2834 18.4418 84.4255 18.6104 83.5335 18.6104C82.6414 18.6104 81.7836 18.4393 80.96 18.0996C80.1363 17.7575 79.4105 17.2736 78.7799 16.643C78.1494 16.0125 77.663 15.2866 77.3233 14.463C76.9811 13.6393 76.8125 12.7815 76.8125 11.8894C76.8125 10.9974 76.9836 10.1395 77.3233 9.31591C77.6655 8.49229 78.1494 7.76642 78.7799 7.13587C79.4105 6.50532 80.1363 6.01897 80.96 5.67925C81.7836 5.3371 82.6414 5.16846 83.5335 5.16846C84.4255 5.16846 85.2834 5.33954 86.107 5.67925C86.3783 5.79412 86.6398 5.92365 86.894 6.07274V5.16602H90.2545V18.608V18.6129ZM83.5335 8.53139C82.6048 8.53139 81.8129 8.85889 81.1579 9.51632C80.5029 10.1738 80.173 10.9656 80.173 11.8919C80.173 12.8182 80.5005 13.6125 81.1579 14.2674C81.8154 14.9224 82.6072 15.2524 83.5335 15.2524C84.4598 15.2524 85.254 14.9249 85.909 14.2674C86.564 13.61 86.894 12.8182 86.894 11.8919C86.894 10.9656 86.5665 10.1713 85.909 9.51632C85.2516 8.86133 84.4598 8.53139 83.5335 8.53139Z" fill="#2E4BF1"/>
<path d="M101.765 17.7087C101.511 17.8578 101.249 17.9898 100.978 18.1022C100.154 18.4444 99.2966 18.613 98.4046 18.613C97.5125 18.613 96.6547 18.4419 95.831 18.1022C95.0074 17.76 94.2816 17.2761 93.651 16.6456C93.0205 16.015 92.5341 15.2892 92.1944 14.4655C91.8522 13.6419 91.6836 12.7841 91.6836 11.892C91.6836 11 91.8547 10.1421 92.1944 9.31849C92.5365 8.49486 93.0205 7.769 93.651 7.13845C94.2816 6.5079 95.0074 6.02154 95.831 5.68183C96.6547 5.33967 97.5125 5.17104 98.4046 5.17104C99.2966 5.17104 100.154 5.34212 100.978 5.68183C101.249 5.7967 101.511 5.92623 101.765 6.07531V1.81055H105.126V18.613H101.765V17.7063V17.7087ZM98.4046 15.2549C99.3308 15.2549 100.125 14.9275 100.78 14.27C101.435 13.6126 101.765 12.8207 101.765 11.8945C101.765 10.9682 101.438 10.1739 100.78 9.5189C100.123 8.86391 99.3308 8.53397 98.4046 8.53397C97.4783 8.53397 96.684 8.86146 96.029 9.5189C95.374 10.1763 95.0441 10.9682 95.0441 11.8945C95.0441 12.8207 95.3716 13.615 96.029 14.27C96.6864 14.925 97.4783 15.2549 98.4046 15.2549Z" fill="#2E4BF1"/>
<path d="M120.001 18.6129H116.64V17.7061C116.386 17.8552 116.124 17.9872 115.853 18.0996C115.029 18.4418 114.172 18.6104 113.28 18.6104C112.388 18.6104 111.53 18.4393 110.706 18.0996C109.882 17.7575 109.157 17.2736 108.526 16.643C107.895 16.0125 107.409 15.2866 107.069 14.463C106.727 13.6393 106.559 12.7815 106.559 11.8894C106.559 10.9974 106.73 10.1395 107.069 9.31591C107.412 8.49229 107.895 7.76642 108.526 7.13587C109.157 6.50532 109.882 6.01897 110.706 5.67925C111.53 5.3371 112.388 5.16846 113.28 5.16846C114.172 5.16846 115.029 5.33954 115.853 5.67925C116.124 5.79412 116.386 5.92365 116.64 6.07274V5.16602H120.001V18.608V18.6129ZM113.28 8.53139C112.351 8.53139 111.559 8.85889 110.904 9.51632C110.249 10.1738 109.919 10.9656 109.919 11.8919C109.919 12.8182 110.247 13.6125 110.904 14.2674C111.561 14.9224 112.353 15.2524 113.28 15.2524C114.206 15.2524 115 14.9249 115.655 14.2674C116.31 13.61 116.64 12.8182 116.64 11.8919C116.64 10.9656 116.313 10.1713 115.655 9.51632C114.998 8.86133 114.206 8.53139 113.28 8.53139Z" fill="#2E4BF1"/>
<path d="M61.714 40.4796C62.1612 41.2592 62.8162 41.7749 63.6839 42.0291C64.0065 42.1244 64.3315 42.1733 64.6541 42.1733C65.1869 42.1733 65.7124 42.034 66.2305 41.7529C66.4847 41.6136 66.712 41.4547 66.9124 41.2812L69.1828 43.735C68.7796 44.1114 68.3348 44.4364 67.8435 44.7053C67.0566 45.1256 66.2207 45.3847 65.336 45.48C65.0916 45.5069 64.8496 45.5191 64.615 45.5191C63.9771 45.5191 63.3466 45.4262 62.7258 45.2429C61.868 44.9888 61.0932 44.5831 60.4016 44.0209C59.7099 43.4613 59.1527 42.7892 58.7274 42.0071C58.3022 41.225 58.0431 40.3916 57.9454 39.5069C57.9185 39.2625 57.9062 39.0205 57.9062 38.7859C57.9062 38.148 57.9991 37.5175 58.1824 36.8967C58.4366 36.0389 58.8423 35.2641 59.4044 34.5725C59.9641 33.8808 60.6362 33.3236 61.4183 32.8983C62.2003 32.4731 63.0337 32.214 63.9185 32.1163C64.1629 32.0894 64.4048 32.0771 64.6395 32.0771C65.2773 32.0771 65.9079 32.17 66.5287 32.3533C67.3865 32.6075 68.1612 33.0132 68.8529 33.5753C69.5445 34.135 70.1018 34.8071 70.527 35.5892C70.9523 36.3737 71.2113 37.2071 71.3091 38.0894C71.336 38.3338 71.3482 38.5831 71.3482 38.8372C71.3482 39.3798 71.2822 39.9175 71.1502 40.4527L61.7115 40.4796H61.714ZM61.7018 37.1191L67.4256 37.1069C67.0052 36.3273 66.3893 35.8165 65.5755 35.5721C65.2504 35.4767 64.9278 35.4279 64.6052 35.4279C64.0724 35.4279 63.547 35.5672 63.0289 35.8482C62.4521 36.1635 62.0097 36.5888 61.7042 37.1215L61.7018 37.1191Z" fill="#2E4BF1"/>
<path d="M76.1417 45.5191H72.7812V32.0771H76.1417V45.5191Z" fill="#2E4BF1"/>
<path d="M82.5084 32.9844C82.7626 32.8353 83.0241 32.7033 83.2954 32.5909C84.119 32.2487 84.9769 32.0801 85.8689 32.0801C86.761 32.0801 87.6188 32.2512 88.4424 32.5909C89.2661 32.933 89.9919 33.4169 90.6225 34.0475C90.7178 34.1428 90.8156 34.2455 90.9109 34.3505C91.0062 34.2455 91.104 34.1453 91.1993 34.0475C91.8298 33.4169 92.5557 32.9306 93.3793 32.5909C94.2029 32.2487 95.0608 32.0801 95.9528 32.0801C96.8449 32.0801 97.7027 32.2512 98.5264 32.5909C99.35 32.933 100.076 33.4169 100.706 34.0475C101.337 34.678 101.823 35.4039 102.163 36.2275C102.505 37.0512 102.674 37.909 102.674 38.8011V45.522H99.3133V38.8011C99.3133 37.8748 98.9858 37.0805 98.3284 36.4255C97.671 35.7705 96.8791 35.4406 95.9528 35.4406C95.0266 35.4406 94.2323 35.7681 93.5773 36.4255C92.9223 37.0829 92.5923 37.8748 92.5923 38.8011V45.522H89.2319V38.8011C89.2319 37.8748 88.9044 37.0805 88.2469 36.4255C87.5895 35.7705 86.7976 35.4406 85.8714 35.4406C84.9451 35.4406 84.1508 35.7681 83.4958 36.4255C82.8408 37.0829 82.5109 37.8748 82.5109 38.8011V45.522H79.1504V32.0801H82.5109V32.9868L82.5084 32.9844Z" fill="#2E4BF1"/>
<path d="M11.3426 29.6793C11.2595 29.4715 11.1813 29.2614 11.1104 29.0463C10.6216 27.6214 10.3552 26.0915 10.3552 24.5005C10.3552 22.6724 10.7022 20.9249 11.3401 19.3216C13.4077 14.1086 18.4986 10.4182 24.435 10.4182C30.3715 10.4182 35.4648 14.1086 37.5324 19.3216H48.3251C45.9544 8.30902 36.1613 0.0605469 24.4399 0.0605469C12.7185 0.0605469 2.92546 8.30902 0.549898 19.3216C0.190631 20.9909 0 22.7237 0 24.5005C0 26.2772 0.190631 28.01 0.549898 29.6793C0.610998 29.9579 0.674542 30.2292 0.745418 30.5029H11.7043C11.5747 30.2341 11.455 29.9555 11.345 29.6793H11.3426Z" fill="#2E4BF1"/>
<path d="M24.44 38.5824C22.6143 38.5824 20.8668 38.2305 19.2636 37.5926L27.1797 29.6789L37.5373 19.3213H22.888L11.7068 30.5026L4.12305 38.0838C5.45747 40.0757 7.07783 41.8622 8.92549 43.3775C9.25787 43.6561 9.59759 43.9152 9.94463 44.1718C10.0766 44.272 10.2086 44.3673 10.343 44.4626C14.3292 47.2806 19.1927 48.9376 24.4424 48.9376C32.1116 48.9376 38.9597 45.4036 43.442 39.8679L36.0416 32.4675C33.5023 36.1555 29.2473 38.5775 24.44 38.5775V38.5824Z" fill="#0EF2A0"/>
<path d="M74.4685 31.3121C73.8918 31.3121 73.3956 31.1068 72.985 30.6962C72.5744 30.2856 72.3691 29.7895 72.3691 29.2127C72.3691 28.6359 72.5744 28.1398 72.985 27.7292C73.3956 27.3186 73.8918 27.1133 74.4685 27.1133C75.0453 27.1133 75.5414 27.3186 75.952 27.7292C76.3626 28.1398 76.5679 28.6359 76.5679 29.2127C76.5679 29.7895 76.3626 30.2856 75.952 30.6962C75.5414 31.1068 75.0453 31.3121 74.4685 31.3121Z" fill="#0EF2A0"/>
<path d="M75.9455 27.7285C76.3561 28.1391 76.5614 28.6352 76.5614 29.212C76.5614 29.7888 76.3561 30.2849 75.9455 30.6955C75.5349 31.1061 75.0388 31.3114 74.462 31.3114C73.8852 31.3114 73.3891 31.1061 72.9785 30.6955L75.9455 27.7285Z" fill="#2E4BF1"/>
</g>
<defs>
<clipPath id="clip0_1410_51010">
<rect width="120" height="48.8798" fill="white" transform="translate(0 0.0605469)"/>
</clipPath>
</defs>
</svg>
