<svg width="41" height="41" viewBox="0 0 41 41" fill="none" xmlns="http://www.w3.org/2000/svg">
<path d="M9.45214 24.6823C9.38289 24.5092 9.31772 24.334 9.25866 24.1548C8.85132 22.9674 8.62933 21.6925 8.62933 20.3666C8.62933 18.8432 8.91853 17.387 9.4501 16.0509C11.1731 11.7067 15.4155 8.63136 20.3625 8.63136C25.3096 8.63136 29.554 11.7067 31.277 16.0509H40.2709C38.2953 6.87373 30.1344 0 20.3666 0C10.5988 0 2.43788 6.87373 0.458248 16.0509C0.158859 17.442 0 18.8859 0 20.3666C0 21.8472 0.158859 23.2912 0.458248 24.6823C0.509165 24.9145 0.562118 25.1405 0.621181 25.3686H9.75356C9.64562 25.1446 9.54582 24.9124 9.45417 24.6823H9.45214Z" fill="#2E4BF1"/>
<path d="M20.3663 32.1017C18.8449 32.1017 17.3887 31.8084 16.0527 31.2769L22.6494 24.6821L31.2808 16.0508H19.073L9.7553 25.3685L3.43555 31.6862C4.54756 33.3461 5.89787 34.8349 7.43758 36.0976C7.71457 36.3298 7.99766 36.5457 8.28687 36.7595C8.39685 36.843 8.50683 36.9225 8.61885 37.0019C11.9406 39.3502 15.9936 40.731 20.3683 40.731C26.7594 40.731 32.4661 37.786 36.2013 33.173L30.0343 27.006C27.9182 30.0793 24.3724 32.0976 20.3663 32.0976V32.1017Z" fill="#0EF2A0"/>
</svg>
