<svg width="744" height="1133" viewBox="0 0 744 1133" fill="none" xmlns="http://www.w3.org/2000/svg">
<g clip-path="url(#clip0_1464_57771)">
<path d="M796.392 959.329C793.212 960.601 789.995 961.799 786.703 962.884C764.892 970.368 741.472 974.447 717.117 974.447C689.133 974.447 662.384 969.133 637.842 959.367C558.042 927.708 501.551 849.761 501.551 758.865C501.551 667.969 558.042 589.984 637.841 558.326L637.841 393.075C469.264 429.373 343 579.319 343 758.79C343 938.261 469.264 1088.21 637.842 1124.58C663.394 1130.08 689.919 1133 717.117 1133C744.315 1133 770.84 1130.08 796.392 1124.58C800.657 1123.64 804.81 1122.67 809 1121.59L809 953.791C804.885 955.774 800.62 957.608 796.392 959.292L796.392 959.329Z" fill="url(#paint0_linear_1464_57771)"/>
</g>
<g clip-path="url(#clip1_1464_57771)">
<path d="M-59.3653 173.671C-56.1784 172.399 -52.9541 171.201 -49.6548 170.116C-27.797 162.632 -4.32702 158.553 20.0803 158.553C48.1242 158.553 74.931 163.867 99.5258 173.633C179.496 205.292 236.109 283.239 236.109 374.135C236.109 465.031 179.496 543.016 99.5258 574.674L99.5258 739.925C268.465 703.627 395 553.681 395 374.21C395 194.739 268.465 44.7929 99.5258 8.41974C73.9187 2.91885 47.3369 1.51968e-05 20.0803 1.63883e-05C-7.17642 1.75797e-05 -33.7582 2.91886 -59.3653 8.41974C-63.6393 9.35527 -67.8009 10.3282 -72 11.4134L-72 179.209C-67.8759 177.226 -63.6018 175.392 -59.3653 173.708L-59.3653 173.671Z" fill="url(#paint1_linear_1464_57771)"/>
</g>
<defs>
<linearGradient id="paint0_linear_1464_57771" x1="343" y1="763.037" x2="809" y2="763.037" gradientUnits="userSpaceOnUse">
<stop stop-color="#566BE3"/>
<stop offset="1" stop-color="#566BE3" stop-opacity="0"/>
</linearGradient>
<linearGradient id="paint1_linear_1464_57771" x1="395" y1="369.963" x2="-72" y2="369.963" gradientUnits="userSpaceOnUse">
<stop stop-color="#566BE3"/>
<stop offset="1" stop-color="#566BE3" stop-opacity="0"/>
</linearGradient>
<clipPath id="clip0_1464_57771">
<rect width="740" height="466" fill="white" transform="translate(343 1133) rotate(-90)"/>
</clipPath>
<clipPath id="clip1_1464_57771">
<rect width="740" height="467" fill="white" transform="translate(395) rotate(90)"/>
</clipPath>
</defs>
</svg>
